{"glyphs":{"0":{"ha":869,"x_min":64,"x_max":806,"o":"m 65 256 l 65 750 q 134 947 65 878 q 326 1017 203 1017 l 554 1017 q 806 761 806 1017 l 806 256 q 740 67 806 133 q 553 0 674 0 l 325 0 q 133 66 200 0 q 65 256 65 132 m 293 299 q 386 207 293 207 l 486 207 q 556 226 533 207 q 578 297 578 244 l 578 719 q 494 810 578 810 l 379 810 q 293 719 293 810 l 293 299 z "},"1":{"ha":519,"x_min":36,"x_max":446,"o":"m 446 1017 l 446 0 l 218 0 l 218 796 l 36 756 l 36 903 l 219 1017 l 446 1017 z "},"2":{"ha":813,"x_min":36,"x_max":768,"o":"m 36 822 l 36 992 q 458 1031 235 1031 q 689 941 611 1031 q 767 708 767 851 q 738 580 767 647 q 674 463 710 513 q 582 354 638 413 q 425 207 511 281 l 767 207 l 767 0 l 47 0 l 47 199 q 338 431 169 281 q 481 582 422 506 q 539 715 539 658 q 501 797 539 771 q 375 822 464 822 l 36 822 z "},"3":{"ha":804,"x_min":28,"x_max":738,"o":"m 471 -10 l 389 -10 q 363 -10 371 -10 q 316 -9 354 -10 q 263 -8 278 -8 q 217 -5 249 -7 q 167 0 185 -3 q 124 7 149 3 q 36 29 81 14 l 38 199 l 368 199 q 470 208 446 199 q 501 235 494 218 q 508 281 508 251 l 508 311 q 460 389 508 374 q 376 400 431 399 l 122 411 l 122 594 l 376 608 q 482 628 453 613 q 511 694 511 644 l 511 728 q 476 796 511 779 q 376 813 442 813 l 28 813 l 28 981 q 329 1021 140 1021 q 481 1019 400 1021 q 667 951 597 1017 q 736 769 736 885 l 736 706 q 626 506 736 546 q 736 294 736 464 l 736 244 q 667 56 736 122 q 471 -10 599 -10 z "},"4":{"ha":871,"x_min":18,"x_max":853,"o":"m 531 419 l 531 632 l 572 739 l 758 739 l 758 419 l 853 419 l 853 244 l 758 208 l 758 3 l 531 3 l 531 208 l 65 208 l 18 311 l 350 1017 l 597 1017 l 331 419 l 531 419 z "},"5":{"ha":825,"x_min":71,"x_max":772,"o":"m 315 619 q 461 653 363 653 q 540 650 494 653 q 715 573 657 643 q 772 389 772 503 l 772 251 q 748 131 772 183 q 683 51 724 79 q 504 -6 606 -6 q 281 0 361 -6 q 71 28 201 6 l 71 208 l 451 208 q 532 239 515 208 q 544 296 544 263 l 544 367 q 528 431 544 407 q 464 454 511 454 l 364 454 q 289 381 289 454 l 72 381 l 103 1017 l 732 1017 l 732 810 l 324 810 l 315 619 z "},"6":{"ha":838,"x_min":61,"x_max":785,"o":"m 61 533 q 300 1019 61 992 q 422 1026 358 1026 q 750 992 569 1026 l 750 818 l 422 818 q 300 719 322 818 q 289 597 289 672 q 539 625 374 625 q 765 504 722 625 q 783 378 783 450 l 783 236 q 529 -1 783 -1 l 333 -1 q 242 12 281 -1 q 167 61 203 25 q 110 156 132 97 q 61 533 61 283 m 289 429 q 313 258 289 311 q 411 206 338 206 l 481 206 q 540 221 522 206 q 557 282 557 236 l 557 346 q 542 412 557 394 q 486 429 528 429 l 289 429 z "},"7":{"ha":774,"x_min":28,"x_max":747,"o":"m 28 810 l 28 1017 l 689 1017 l 747 919 l 417 0 l 171 0 l 467 810 l 28 810 z "},"8":{"ha":863,"x_min":69,"x_max":794,"o":"m 69 240 l 69 329 q 97 434 69 390 q 176 489 125 478 q 86 578 106 521 q 69 693 69 625 l 69 783 q 150 976 69 922 q 335 1024 221 1024 l 549 1024 q 733 967 672 1024 q 794 782 794 911 l 794 714 q 781 638 794 675 q 690 553 756 563 q 744 525 722 547 q 776 471 767 503 q 794 360 794 415 l 794 246 q 686 25 794 74 q 547 0 632 0 l 335 0 q 78 157 110 0 q 69 240 69 194 m 297 271 q 317 214 297 231 q 382 197 336 197 l 486 197 q 549 215 531 197 q 567 271 567 233 l 567 350 q 489 426 567 426 l 378 426 q 306 392 321 426 q 297 350 297 375 l 297 271 m 297 686 q 317 626 297 642 q 378 611 338 611 l 488 611 q 551 629 536 611 q 567 686 567 647 l 567 742 q 547 810 567 793 q 486 828 526 828 l 382 828 q 317 812 336 828 q 297 742 297 796 l 297 686 z "},"9":{"ha":838,"x_min":56,"x_max":779,"o":"m 414 -7 q 89 28 251 -7 l 89 200 l 418 200 q 508 235 481 200 q 543 310 539 272 q 551 422 551 364 q 300 393 467 393 q 75 514 118 393 q 56 642 56 568 l 56 782 q 311 1019 56 1019 l 507 1019 q 599 1006 560 1019 q 673 958 638 993 q 731 863 708 922 q 779 485 779 735 q 540 -1 779 28 q 414 -7 478 -7 m 283 672 q 298 606 283 624 q 354 589 313 589 l 551 589 q 534 743 551 701 q 492 799 517 785 q 428 813 468 813 l 358 813 q 306 801 319 813 q 283 736 283 783 l 283 672 z "},"\u0000":{"ha":961,"x_min":93,"x_max":868,"o":"m 849 703 l 499 369 l 849 35 l 849 703 m 131 18 l 835 18 l 483 356 l 131 18 m 113 31 l 468 369 l 113 704 l 113 31 m 836 719 l 126 719 l 483 383 l 836 719 m 93 0 l 93 738 l 868 738 l 868 0 l 93 0 z "},"\r":{"ha":932,"x_min":0,"x_max":0,"o":""}," ":{"ha":347,"x_min":0,"x_max":0,"o":""},"!":{"ha":382,"x_min":78,"x_max":301,"o":"m 85 32 l 85 174 q 118 208 85 208 l 257 208 q 289 174 289 208 l 289 32 q 257 0 289 0 l 118 0 q 85 32 85 0 m 78 1015 l 301 1015 l 276 272 l 99 272 l 78 1015 z "},"\"":{"ha":649,"x_min":79,"x_max":572,"o":"m 79 1017 l 297 1017 l 297 924 l 283 738 l 96 738 l 79 924 l 79 1017 m 353 1017 l 571 1017 l 571 924 l 557 738 l 368 738 l 353 924 l 353 1017 z "},"#":{"ha":1018,"x_min":18,"x_max":1003,"o":"m 18 281 l 42 436 l 250 436 l 276 582 l 65 582 l 90 738 l 306 738 l 357 1017 l 513 1017 l 461 738 l 611 738 l 661 1017 l 817 1017 l 767 738 l 1001 738 l 979 582 l 742 582 l 717 435 l 953 435 l 932 279 l 683 279 l 631 0 l 475 0 l 528 279 l 376 281 l 325 0 l 169 0 l 221 281 l 18 281 m 406 436 l 561 435 l 586 582 l 432 582 l 406 436 z "},"$":{"ha":789,"x_min":51,"x_max":739,"o":"m 51 671 l 51 757 q 328 1025 53 1017 l 328 1144 l 460 1144 l 460 1024 q 701 982 586 1018 l 701 806 q 453 818 544 818 q 344 816 363 818 q 310 807 326 814 q 279 736 279 792 l 279 701 q 301 637 279 656 q 378 618 324 618 l 489 618 q 710 483 653 618 q 739 338 739 418 l 739 279 q 460 -11 739 -11 l 460 -125 l 328 -125 l 328 -10 q 202 1 247 -7 q 83 33 157 10 l 83 210 q 406 196 264 196 q 483 212 456 196 q 511 269 511 228 l 511 310 q 479 381 511 363 q 428 390 460 390 l 319 390 q 197 413 249 390 q 117 466 144 435 q 75 539 90 497 q 51 671 51 601 z "},"%":{"ha":1339,"x_min":39,"x_max":1301,"o":"m 39 669 l 39 833 q 83 971 39 925 q 229 1017 128 1017 l 369 1017 q 512 971 468 1017 q 556 833 556 925 l 556 669 q 512 531 556 576 q 367 485 468 485 l 226 485 q 58 568 96 485 q 39 669 39 608 m 192 700 q 210 648 192 658 q 253 638 228 638 l 340 638 q 391 652 379 638 q 403 700 403 667 l 403 801 q 390 851 403 839 q 343 864 376 864 l 256 864 q 206 851 221 864 q 192 801 192 838 l 192 700 m 279 0 l 904 1017 l 1058 1017 l 440 0 l 279 0 m 785 188 l 785 351 q 828 490 785 444 q 974 536 872 536 l 1114 536 q 1258 490 1214 536 q 1301 351 1301 443 l 1301 188 q 1258 50 1301 96 q 1111 4 1214 4 l 971 4 q 828 50 871 4 q 785 188 785 96 m 938 219 q 950 172 938 186 q 997 157 963 157 l 1085 157 q 1136 172 1124 157 q 1149 219 1149 186 l 1149 321 q 1135 370 1149 357 q 1088 383 1121 383 l 1000 383 q 952 370 967 383 q 938 321 938 357 l 938 219 z "},"&":{"ha":965,"x_min":31,"x_max":946,"o":"m 469 819 q 388 779 388 819 q 429 694 388 749 l 629 418 l 803 574 l 883 474 l 796 325 l 744 264 l 944 0 l 678 0 l 585 126 l 497 50 q 317 -7 433 -7 q 184 26 246 -7 q 79 119 122 58 q 32 265 32 190 q 150 514 32 410 l 239 592 l 172 689 q 128 808 128 750 q 148 905 128 865 q 206 976 168 944 q 296 1015 244 1007 q 431 1025 357 1025 q 678 986 504 1025 l 678 819 l 469 819 m 290 381 q 247 308 247 342 q 276 238 247 274 q 336 203 304 203 q 406 231 378 203 l 461 285 l 349 433 l 290 381 z "},"'":{"ha":331,"x_min":51,"x_max":281,"o":"m 51 1017 l 281 1017 l 281 924 l 267 738 l 67 738 l 51 924 l 51 1017 z "},"(":{"ha":546,"x_min":69,"x_max":529,"o":"m 157 -35 q 140 4 157 -35 q 97 175 124 43 q 69 447 69 307 q 96 712 69 586 q 158 921 122 838 q 296 1164 235 1093 l 322 1194 l 528 1194 q 389 911 454 1085 q 297 453 297 674 q 389 -22 297 221 q 463 -185 422 -114 q 515 -274 503 -256 l 528 -292 l 322 -292 q 239 -187 288 -261 q 157 -35 190 -114 z "},")":{"ha":546,"x_min":18,"x_max":478,"o":"m 169 4 q 184 45 169 4 q 224 209 199 86 q 249 448 249 332 q 225 681 249 564 q 168 886 201 799 q 42 1157 97 1068 l 18 1194 l 225 1194 q 308 1078 260 1157 q 389 919 356 999 q 449 713 422 840 q 476 466 476 586 q 463 247 476 346 q 426 76 449 149 q 378 -60 404 3 q 324 -164 351 -122 q 239 -278 268 -250 l 225 -292 l 18 -292 q 94 -163 50 -249 q 169 4 139 -78 z "},"*":{"ha":588,"x_min":46,"x_max":542,"o":"m 47 786 l 47 872 l 239 903 l 247 779 l 47 786 m 119 579 l 154 769 l 275 739 l 203 553 l 119 579 m 225 1001 l 308 1029 l 397 857 l 282 811 l 225 1001 m 256 643 l 322 747 l 481 622 l 429 553 l 256 643 m 326 793 l 492 904 l 542 832 l 406 697 l 326 793 z "},"+":{"ha":654,"x_min":38,"x_max":617,"o":"m 39 401 l 39 588 l 233 588 l 233 783 l 419 783 l 419 588 l 617 588 l 617 401 l 419 401 l 419 206 l 233 206 l 233 401 l 39 401 z "},",":{"ha":358,"x_min":79,"x_max":282,"o":"m 79 35 l 79 172 q 114 210 79 210 l 247 210 q 281 172 281 210 l 281 -15 q 260 -89 281 -61 q 213 -124 240 -117 q 152 -131 181 -131 q 107 -126 124 -131 l 86 -122 l 86 -47 q 116 -42 106 -47 q 128 -30 126 -36 q 129 -14 129 -24 l 129 0 l 114 0 q 89 9 99 0 q 79 35 79 18 z "},"-":{"ha":492,"x_min":28,"x_max":464,"o":"m 28 310 l 28 496 l 464 496 l 464 310 l 28 310 z "},".":{"ha":361,"x_min":79,"x_max":285,"o":"m 79 32 l 79 174 q 113 208 79 208 l 249 208 q 283 174 283 208 l 283 32 q 249 0 283 0 l 113 0 q 89 9 99 0 q 79 32 79 18 z "},"/":{"ha":661,"x_min":18,"x_max":644,"o":"m 18 -100 l 408 1069 l 643 1069 l 253 -100 l 18 -100 z "},":":{"ha":361,"x_min":79,"x_max":285,"o":"m 79 32 l 79 174 q 113 208 79 208 l 249 208 q 283 174 283 208 l 283 32 q 249 0 283 0 l 113 0 q 89 9 99 0 q 79 32 79 18 m 79 561 l 79 703 q 113 738 79 738 l 249 738 q 283 703 283 738 l 283 561 q 249 529 283 529 l 113 529 q 82 549 90 529 q 79 561 79 554 z "},";":{"ha":363,"x_min":79,"x_max":285,"o":"m 79 35 l 79 172 q 114 210 79 210 l 247 210 q 281 172 281 210 l 281 -15 q 260 -89 281 -61 q 213 -124 240 -117 q 152 -131 181 -131 q 107 -126 124 -131 l 86 -122 l 86 -47 q 116 -42 106 -47 q 128 -30 126 -36 q 129 -14 129 -24 l 129 0 l 114 0 q 89 9 99 0 q 79 35 79 18 m 81 561 l 81 703 q 114 739 81 739 l 250 739 q 285 703 285 739 l 285 561 q 250 531 285 531 l 114 531 q 83 549 90 531 q 81 561 81 554 z "},"<":{"ha":614,"x_min":46,"x_max":568,"o":"m 47 386 l 47 592 l 567 783 l 567 578 l 279 490 l 567 389 l 567 183 l 47 386 z "},"=":{"ha":649,"x_min":28,"x_max":621,"o":"m 28 242 l 28 428 l 621 428 l 621 242 l 28 242 m 28 543 l 28 729 l 621 729 l 621 543 l 28 543 z "},">":{"ha":614,"x_min":46,"x_max":568,"o":"m 47 183 l 47 389 l 335 490 l 47 578 l 47 783 l 567 592 l 567 386 l 47 183 z "},"?":{"ha":754,"x_min":18,"x_max":718,"o":"m 18 989 q 338 1028 193 1028 q 410 1026 372 1028 q 547 1002 486 1026 q 643 939 607 978 q 718 749 718 857 l 718 661 q 650 452 718 515 q 451 389 582 389 q 411 390 432 389 l 411 271 l 235 271 l 235 558 l 379 558 q 463 585 435 561 q 492 664 492 608 l 492 715 q 458 794 492 769 q 353 818 424 818 l 18 818 l 18 989 m 221 32 l 221 174 q 254 208 221 208 l 390 208 q 425 174 425 208 l 425 32 q 390 0 425 0 l 254 0 q 230 9 239 0 q 221 32 221 18 z "},"@":{"ha":1218,"x_min":61,"x_max":1140,"o":"m 61 21 l 61 421 q 122 619 61 538 q 367 711 193 711 l 622 711 q 856 606 808 711 q 876 486 876 558 l 876 0 l 733 0 l 704 78 q 694 69 704 78 q 667 47 685 60 q 626 19 650 33 q 500 -12 571 -12 q 499 -12 500 -12 q 368 45 414 -12 q 322 181 322 103 l 322 233 q 444 417 322 379 q 533 429 483 429 l 701 429 q 702 485 703 471 q 693 513 701 499 q 626 536 679 535 l 367 536 q 247 476 271 536 q 236 411 236 450 l 236 42 q 276 -77 236 -43 q 367 -111 315 -111 l 821 -111 q 933 -73 901 -111 q 964 42 964 -35 l 964 649 q 925 769 964 726 q 821 813 886 813 l 260 813 l 260 950 q 444 976 324 964 q 624 988 565 988 q 692 988 683 988 l 821 988 q 1039 915 947 988 q 1112 808 1085 876 q 1139 649 1139 740 l 1139 42 q 1062 -208 1139 -128 q 831 -289 985 -289 l 367 -289 q 147 -215 233 -289 q 61 21 61 -140 m 565 163 q 567 163 567 163 q 568 163 568 163 q 701 217 660 163 l 701 306 l 561 293 q 521 278 533 290 q 508 239 508 267 q 508 226 508 239 q 508 211 508 213 q 565 163 508 163 z "},"A":{"ha":972,"x_min":42,"x_max":958,"o":"m 42 0 l 374 1017 l 638 1017 l 958 0 l 721 0 l 654 204 l 347 204 l 281 0 l 42 0 m 403 401 l 604 401 l 508 725 l 403 401 z "},"B":{"ha":843,"x_min":74,"x_max":819,"o":"m 75 0 l 75 1017 l 504 1017 q 727 942 656 1017 q 799 742 799 868 q 762 602 799 667 q 656 528 725 538 q 797 411 754 511 q 819 304 819 363 q 744 74 819 149 q 508 0 669 0 l 75 0 m 303 197 l 499 197 q 592 315 592 197 q 569 404 592 369 q 499 439 547 439 l 303 439 l 303 197 m 303 625 l 489 625 q 553 651 531 625 q 575 726 575 676 q 550 797 575 775 q 489 819 525 819 l 303 819 l 303 625 z "},"C":{"ha":790,"x_min":51,"x_max":760,"o":"m 51 511 q 67 730 51 639 q 122 890 83 821 q 400 1028 197 1028 q 598 1017 524 1028 q 760 978 672 1007 l 760 800 q 750 801 760 800 q 724 803 740 801 q 685 808 707 806 q 637 813 664 810 q 582 817 610 815 q 475 821 519 821 q 411 819 431 821 q 369 810 392 817 q 335 791 347 804 q 310 756 322 778 q 292 700 299 733 q 279 478 279 624 q 316 265 279 332 q 464 199 353 199 q 718 207 593 199 l 760 211 l 760 33 q 439 -8 643 -8 q 400 -8 419 -8 q 129 129 210 -6 q 51 511 51 258 z "},"D":{"ha":922,"x_min":74,"x_max":876,"o":"m 75 0 l 75 1017 l 526 1017 q 672 988 610 1017 q 773 914 735 960 q 835 800 811 868 q 876 504 876 682 q 526 0 876 0 l 75 0 m 303 197 l 506 197 q 615 274 582 197 q 649 492 649 350 q 631 704 649 633 q 583 797 613 775 q 506 819 554 819 l 303 819 l 303 197 z "},"E":{"ha":788,"x_min":69,"x_max":758,"o":"m 69 211 l 69 794 q 182 994 69 944 q 307 1017 235 1017 q 757 994 636 1011 l 757 804 l 369 804 q 306 779 318 804 q 297 726 297 760 l 297 611 l 692 597 l 692 408 l 297 396 l 297 281 q 326 217 297 228 q 383 208 347 208 l 757 208 l 757 19 q 356 -3 657 6 l 321 -4 q 294 -4 310 -4 q 255 -2 279 -4 q 194 13 231 0 q 131 47 157 25 q 88 112 106 69 q 69 211 69 154 z "},"F":{"ha":788,"x_min":69,"x_max":758,"o":"m 69 0 l 69 790 q 139 964 69 911 q 301 1017 208 1017 q 307 1017 304 1017 q 757 994 636 1011 l 757 804 l 369 804 q 306 779 318 804 q 297 726 297 760 l 297 611 l 692 597 l 692 408 l 297 396 l 297 0 l 69 0 z "},"G":{"ha":853,"x_min":51,"x_max":804,"o":"m 85 203 q 74 239 85 203 q 58 347 64 275 q 51 515 51 418 q 60 684 51 611 q 90 824 68 757 q 149 935 111 892 q 378 1028 229 1028 q 598 1019 526 1028 q 790 981 669 1011 l 790 804 q 778 806 789 804 q 748 810 767 807 q 705 815 729 813 q 650 821 681 818 q 588 826 619 824 q 449 831 517 831 q 312 764 344 831 q 279 511 279 697 q 306 264 279 318 q 376 210 328 219 q 438 204 400 204 q 510 220 475 204 q 561 251 546 236 l 575 268 l 575 415 l 467 415 l 467 558 q 708 592 539 592 q 803 589 753 592 l 803 0 l 642 0 l 578 68 q 533 29 556 43 q 360 -7 478 -7 q 142 86 215 -7 q 85 203 106 131 z "},"H":{"ha":883,"x_min":74,"x_max":829,"o":"m 75 0 l 75 1017 l 303 1017 l 303 594 l 601 594 l 601 1017 l 829 1017 l 829 0 l 601 0 l 601 389 l 303 389 l 303 0 l 75 0 z "},"I":{"ha":357,"x_min":74,"x_max":303,"o":"m 75 0 l 75 1017 l 303 1017 l 303 0 l 75 0 z "},"J":{"ha":494,"x_min":32,"x_max":440,"o":"m 365 25 q 204 -7 314 -7 q 33 33 94 -7 l 35 213 q 81 211 60 211 q 128 213 103 211 q 174 228 153 214 q 211 344 211 254 l 211 1017 l 439 1017 l 439 229 q 365 25 439 72 z "},"K":{"ha":892,"x_min":74,"x_max":861,"o":"m 75 0 l 75 1017 l 292 1017 l 292 603 l 363 603 l 597 1017 l 861 1017 l 564 507 l 861 0 l 597 0 l 363 406 l 293 406 l 293 0 l 75 0 z "},"L":{"ha":740,"x_min":74,"x_max":710,"o":"m 75 206 l 75 1017 l 303 1017 l 303 279 q 332 215 303 226 q 389 207 353 207 l 710 207 l 710 0 l 294 0 q 135 48 196 0 q 75 206 75 96 z "},"M":{"ha":1200,"x_min":51,"x_max":1151,"o":"m 51 0 l 150 1017 l 467 1017 l 599 378 l 733 1017 l 1049 1017 l 1150 0 l 926 0 l 858 624 l 729 0 l 472 0 l 338 624 l 276 0 l 51 0 z "},"N":{"ha":940,"x_min":74,"x_max":886,"o":"m 75 0 l 75 1017 l 306 1017 l 658 421 l 658 1017 l 886 1017 l 886 0 l 658 0 l 304 586 l 304 0 l 75 0 z "},"O":{"ha":929,"x_min":61,"x_max":889,"o":"m 71 321 q 66 368 71 321 q 61 508 61 415 q 72 680 61 601 q 102 813 83 758 q 151 907 121 868 q 214 968 182 946 q 292 1003 246 990 q 449 1024 365 1024 q 574 1019 533 1024 q 662 1003 615 1015 q 740 968 708 990 q 801 907 771 946 q 850 814 832 868 q 889 501 889 693 q 824 144 889 269 q 717 36 790 78 q 475 -6 642 -6 q 235 33 306 -6 q 126 138 158 74 q 71 321 81 226 m 315 738 q 309 720 315 738 q 296 646 303 703 q 289 517 289 589 q 291 406 289 446 q 298 333 293 367 q 313 278 303 300 q 335 241 322 257 q 369 217 349 225 q 471 201 410 201 q 565 213 532 201 q 622 259 599 225 q 653 350 644 293 q 661 497 661 407 q 655 642 661 588 q 637 733 649 697 q 601 787 625 769 q 550 810 578 804 q 476 817 522 817 q 403 812 429 817 q 351 790 376 807 q 315 738 326 772 z "},"P":{"ha":847,"x_min":67,"x_max":807,"o":"m 67 0 l 67 1017 l 511 1017 q 742 932 671 1017 q 807 696 807 854 q 787 540 807 606 q 738 439 767 474 q 667 385 710 404 q 544 361 611 361 q 398 374 496 361 q 294 389 300 386 l 294 0 l 67 0 m 294 558 l 490 558 q 556 590 535 558 q 578 693 578 621 q 490 819 576 819 l 294 819 l 294 558 z "},"Q":{"ha":929,"x_min":61,"x_max":889,"o":"m 91 227 q 83 252 91 227 q 68 347 75 278 q 61 508 61 415 q 72 680 61 601 q 101 813 83 758 q 150 907 119 868 q 213 968 181 946 q 290 1003 244 990 q 448 1024 364 1024 q 574 1019 532 1024 q 661 1003 615 1015 q 739 968 707 990 q 801 907 771 946 q 849 814 832 868 q 889 501 889 693 q 804 114 889 224 q 665 18 749 42 q 385 -3 553 -15 q 244 27 285 6 q 174 74 204 49 q 126 138 144 100 q 91 227 107 176 m 314 738 q 308 720 314 738 q 296 646 303 703 q 289 506 289 589 q 294 374 289 422 q 309 289 299 325 q 342 235 319 253 q 467 201 383 201 q 588 225 550 201 q 644 313 626 249 q 661 474 661 376 q 658 622 661 572 q 644 708 654 672 q 622 764 635 743 q 586 797 608 785 q 488 817 549 817 q 401 812 428 817 q 350 790 375 807 q 314 738 325 772 m 643 -104 q 756 -89 690 -104 l 756 -262 q 660 -269 708 -269 q 568 -254 613 -269 q 489 -214 524 -239 q 408 -46 413 -158 l 532 -46 q 643 -104 553 -104 z "},"R":{"ha":850,"x_min":67,"x_max":836,"o":"m 67 0 l 67 1017 l 515 1017 q 731 943 653 1017 q 808 696 808 869 q 765 479 808 547 q 714 422 739 438 q 651 393 685 406 l 836 0 l 578 0 l 426 374 l 294 393 l 294 0 l 67 0 m 296 568 l 489 568 q 560 594 542 568 q 578 692 578 621 q 557 791 578 763 q 489 819 536 819 l 296 819 l 296 568 z "},"S":{"ha":824,"x_min":61,"x_max":783,"o":"m 61 671 l 61 757 q 336 1025 61 1019 q 394 1026 365 1026 q 746 982 614 1026 l 746 804 q 505 818 604 818 q 401 818 406 818 q 314 804 339 818 q 289 736 289 790 l 289 701 q 304 640 289 654 q 386 618 329 618 l 533 618 q 690 569 633 618 q 783 338 783 490 l 783 279 q 660 21 783 83 q 501 -11 594 -11 q 259 -3 338 -11 q 93 33 181 6 l 93 211 q 450 196 246 196 q 528 211 500 196 q 556 269 556 226 l 556 310 q 538 371 556 351 q 472 390 519 390 l 329 390 q 181 424 235 390 q 100 501 122 458 q 68 586 74 554 q 61 671 61 636 z "},"T":{"ha":832,"x_min":36,"x_max":806,"o":"m 36 810 l 36 1017 l 804 1017 l 804 810 l 531 810 l 531 0 l 303 0 l 303 810 l 36 810 z "},"U":{"ha":917,"x_min":74,"x_max":863,"o":"m 472 -7 l 451 -7 q 289 5 322 -7 q 224 32 256 17 q 174 69 192 47 q 134 126 156 92 q 101 206 113 161 q 75 444 75 311 l 75 1017 l 303 1017 l 303 444 q 309 326 303 371 q 335 252 315 282 q 386 211 354 222 q 472 200 418 200 q 599 253 565 200 q 633 444 633 307 l 633 1017 l 863 1017 l 863 444 q 761 79 863 174 q 697 29 725 46 q 622 4 668 13 q 472 -7 561 -7 z "},"V":{"ha":960,"x_min":42,"x_max":938,"o":"m 42 1017 l 282 1017 l 483 289 l 697 1017 l 938 1017 l 617 0 l 347 0 l 42 1017 z "},"W":{"ha":1394,"x_min":42,"x_max":1372,"o":"m 42 1017 l 282 1017 l 482 293 l 640 1017 l 882 1017 l 819 778 l 972 290 l 1132 1017 l 1372 1017 l 1106 0 l 836 0 l 719 379 l 617 0 l 347 0 l 42 1017 z "},"X":{"ha":914,"x_min":42,"x_max":892,"o":"m 42 1017 l 294 1017 l 465 699 l 639 1017 l 892 1017 l 583 507 l 883 0 l 632 0 l 465 311 l 297 0 l 46 0 l 347 507 l 42 1017 z "},"Y":{"ha":925,"x_min":42,"x_max":903,"o":"m 575 0 l 347 0 l 347 299 l 42 1017 l 289 1017 l 464 546 l 656 1017 l 903 1017 l 575 299 l 575 0 z "},"Z":{"ha":769,"x_min":32,"x_max":739,"o":"m 33 0 l 33 207 l 468 810 l 33 810 l 33 1017 l 739 1017 l 739 810 l 335 207 l 739 207 l 739 0 l 33 0 z "},"[":{"ha":469,"x_min":79,"x_max":453,"o":"m 79 0 l 79 900 q 331 1169 79 1169 l 453 1169 l 453 983 l 393 983 q 307 868 307 983 l 307 10 q 393 -106 307 -106 l 453 -106 l 453 -292 l 331 -292 q 79 0 79 -292 z "},"\\":{"ha":661,"x_min":18,"x_max":644,"o":"m 18 1069 l 253 1069 l 643 -100 l 408 -100 l 18 1069 z "},"]":{"ha":469,"x_min":18,"x_max":392,"o":"m 18 -106 l 78 -106 q 164 10 164 -106 l 164 868 q 78 983 164 983 l 18 983 l 18 1169 l 140 1169 q 392 900 392 1169 l 392 0 q 140 -292 392 -292 l 18 -292 l 18 -106 z "},"^":{"ha":529,"x_min":46,"x_max":483,"o":"m 47 738 l 192 928 l 353 928 l 483 738 l 343 738 l 268 815 l 189 738 l 47 738 z "},"_":{"ha":936,"x_min":28,"x_max":908,"o":"m 28 -1 l 28 185 l 908 185 l 908 -1 l 28 -1 z "},"`":{"ha":338,"x_min":18,"x_max":321,"o":"m 18 933 l 203 933 l 319 738 l 182 738 l 18 933 z "},"a":{"ha":721,"x_min":36,"x_max":676,"o":"m 36 193 l 36 257 q 90 406 36 347 q 250 465 144 465 q 401 465 356 465 q 447 465 447 465 q 447 496 449 494 q 426 563 447 549 q 342 578 406 578 q 61 563 278 578 l 61 700 q 206 740 131 729 q 406 751 282 751 q 603 697 531 751 q 675 506 675 643 l 675 0 l 494 0 l 447 78 q 382 23 436 54 q 263 -8 328 -8 q 92 54 149 -8 q 36 193 36 117 m 329 167 q 447 219 396 167 l 447 332 l 317 321 q 264 251 264 317 l 264 228 q 286 175 264 185 q 329 167 301 167 z "},"b":{"ha":774,"x_min":56,"x_max":729,"o":"m 56 0 l 56 1090 l 283 1090 l 283 703 q 489 749 376 749 q 642 703 590 749 q 713 572 694 656 q 729 365 729 492 q 673 85 729 178 q 499 -8 617 -8 q 285 72 382 -8 l 247 0 l 56 0 m 421 181 q 496 278 483 181 q 501 388 501 317 q 491 506 501 460 q 465 565 481 551 q 421 578 449 578 q 285 553 332 578 l 285 219 q 421 181 329 181 z "},"c":{"ha":683,"x_min":46,"x_max":647,"o":"m 394 -8 l 300 -7 q 289 -7 294 -7 q 65 186 111 -7 q 47 369 47 261 q 65 553 47 478 q 115 669 82 628 q 289 744 178 744 q 638 697 508 744 l 638 561 q 453 569 526 569 q 367 568 379 569 q 338 563 354 567 q 313 552 321 560 q 297 531 306 544 q 283 494 288 517 q 275 368 275 439 q 280 259 275 297 q 301 200 285 221 q 340 174 318 179 q 411 169 361 169 q 615 178 517 169 l 647 181 l 647 43 q 525 0 586 6 q 394 -8 446 -8 z "},"d":{"ha":774,"x_min":46,"x_max":719,"o":"m 47 348 q 47 436 47 348 q 67 591 47 524 q 114 688 88 658 q 285 749 171 749 q 492 703 399 749 l 492 1090 l 719 1090 l 719 0 l 528 0 l 492 72 q 286 -8 394 -8 q 103 82 158 -8 q 47 348 47 172 m 310 565 q 302 558 310 565 q 285 506 294 551 q 275 361 275 460 q 294 222 275 263 q 356 181 313 181 q 492 219 446 181 l 492 553 q 356 578 443 578 q 310 565 326 578 z "},"e":{"ha":729,"x_min":46,"x_max":693,"o":"m 436 168 q 678 183 576 168 l 678 32 q 551 3 632 13 q 426 -6 469 -6 q 289 -7 383 -7 q 100 81 153 -7 q 47 372 47 168 q 63 563 47 490 q 120 675 79 635 q 218 729 161 715 q 353 743 275 743 q 473 740 432 743 q 553 726 514 736 q 617 699 593 717 q 658 650 640 681 q 692 472 692 596 q 571 292 692 324 q 481 281 532 281 l 275 281 q 303 189 275 208 q 385 168 332 169 q 415 168 397 168 q 436 168 432 168 m 413 435 q 458 458 446 435 q 464 492 464 469 q 462 531 464 515 q 451 558 460 547 q 393 578 438 578 q 331 574 349 578 q 297 557 313 571 q 274 449 274 535 q 275 435 274 442 l 413 435 z "},"f":{"ha":563,"x_min":18,"x_max":544,"o":"m 18 572 l 18 714 l 128 738 l 128 875 q 226 1068 128 1021 q 375 1092 279 1092 q 544 1058 471 1092 l 544 925 l 425 928 q 422 928 424 928 q 365 907 376 928 q 354 825 354 886 l 356 813 l 356 738 l 508 738 l 508 572 l 356 572 l 356 0 l 128 0 l 128 572 l 18 572 z "},"g":{"ha":782,"x_min":42,"x_max":764,"o":"m 43 136 q 131 272 43 242 q 82 328 101 292 q 49 478 49 390 q 310 740 49 740 l 764 740 l 764 611 l 693 586 q 713 508 711 539 q 715 438 715 476 q 703 360 715 400 q 665 285 692 321 q 454 207 607 207 l 300 207 q 251 198 257 207 q 244 172 244 189 q 300 144 244 144 l 501 144 q 672 88 611 144 q 733 -83 733 32 l 733 -161 q 677 -316 733 -257 q 494 -375 621 -375 l 286 -375 q 117 -321 182 -375 q 53 -161 53 -267 l 53 -76 l 121 -17 q 66 38 89 -1 q 43 136 43 78 m 282 -129 q 315 -194 282 -185 q 358 -200 331 -200 l 439 -200 q 497 -179 486 -200 q 507 -133 507 -164 l 507 -90 q 443 -33 507 -33 l 339 -33 l 282 -31 l 282 -129 m 302 551 q 293 545 302 551 q 281 522 285 539 q 276 474 276 506 q 283 422 276 443 q 351 383 299 383 l 408 383 q 470 404 453 383 q 488 476 488 425 q 468 545 488 526 q 407 564 449 564 l 351 564 q 302 551 319 564 z "},"h":{"ha":767,"x_min":56,"x_max":722,"o":"m 56 0 l 56 1086 l 283 1086 l 283 661 q 431 743 367 729 q 517 750 464 750 q 614 730 569 750 q 681 671 658 710 q 722 483 722 601 l 722 0 l 494 0 l 494 486 q 478 555 494 535 q 419 575 461 575 q 283 517 340 575 l 283 0 l 56 0 z "},"i":{"ha":331,"x_min":46,"x_max":285,"o":"m 47 843 l 47 983 q 81 1019 47 1019 l 253 1019 q 285 983 285 1019 l 285 843 q 253 811 285 811 l 81 811 q 56 820 65 811 q 47 843 47 829 m 51 0 l 51 738 l 279 738 l 279 0 l 51 0 z "},"j":{"ha":350,"x_min":56,"x_max":296,"o":"m 56 843 l 56 983 q 89 1019 56 1019 l 264 1019 q 286 1009 278 1019 q 294 983 294 999 l 294 843 q 264 811 294 811 l 89 811 q 65 820 75 811 q 56 843 56 829 m 63 -375 l 63 738 l 290 738 l 290 -6 q 290 -75 290 -19 q 233 -375 290 -262 l 63 -375 z "},"k":{"ha":803,"x_min":56,"x_max":786,"o":"m 56 0 l 56 1086 l 283 1086 l 283 496 l 319 496 l 501 738 l 786 738 l 528 414 l 786 0 l 517 0 l 319 331 l 283 331 l 283 0 l 56 0 z "},"l":{"ha":442,"x_min":56,"x_max":425,"o":"m 56 263 l 56 1088 l 283 1088 l 283 304 q 298 206 283 233 q 342 165 313 179 q 425 136 415 136 l 425 0 l 250 0 q 103 60 151 0 q 56 263 56 121 z "},"m":{"ha":1204,"x_min":56,"x_max":1160,"o":"m 718 522 l 719 482 l 719 0 l 492 0 l 492 486 q 425 574 492 574 q 346 560 378 574 q 283 515 314 547 l 283 0 l 56 0 l 56 738 l 243 738 l 283 661 q 431 743 374 732 q 501 749 461 749 q 689 658 640 749 q 808 724 749 700 q 926 749 867 749 q 1019 740 985 749 q 1076 713 1053 731 q 1116 672 1100 696 q 1142 618 1132 649 q 1158 481 1158 560 l 1158 0 l 931 0 l 931 486 q 865 574 931 574 q 718 522 768 574 z "},"n":{"ha":767,"x_min":56,"x_max":722,"o":"m 56 0 l 56 738 l 243 738 l 283 661 q 343 706 322 692 q 408 735 364 721 q 510 750 451 750 q 614 730 569 750 q 681 671 658 710 q 722 483 722 601 l 722 0 l 494 0 l 494 486 q 464 567 494 550 q 414 575 450 575 q 283 517 340 575 l 283 0 l 56 0 z "},"o":{"ha":774,"x_min":46,"x_max":728,"o":"m 47 358 q 81 593 47 510 q 185 710 114 676 q 388 744 257 744 q 653 661 579 744 q 728 365 728 578 q 655 72 728 151 q 390 -7 582 -7 q 122 76 197 -7 q 47 358 47 158 m 276 457 q 276 433 276 457 q 275 340 275 408 q 285 233 275 272 q 317 181 296 193 q 379 169 339 169 q 436 172 419 169 q 467 184 453 175 q 488 215 482 193 q 500 340 500 261 q 497 452 500 418 q 489 512 494 486 q 469 549 483 538 q 344 567 431 579 q 293 533 308 561 q 276 457 278 506 z "},"p":{"ha":774,"x_min":56,"x_max":729,"o":"m 56 -375 l 56 738 l 247 738 l 285 667 q 499 746 381 746 q 673 652 617 746 q 729 372 729 558 q 661 60 729 142 q 490 -11 604 -11 q 283 33 376 -11 l 283 -375 l 56 -375 m 421 160 q 465 174 449 160 q 501 340 501 204 q 482 516 501 475 q 421 557 463 557 q 285 518 329 557 l 285 183 q 421 160 332 160 z "},"q":{"ha":771,"x_min":46,"x_max":717,"o":"m 322 -14 q 108 79 168 -14 q 47 369 47 172 q 117 656 47 567 q 322 746 188 746 q 545 733 431 746 q 715 700 660 719 l 715 -375 l 488 -375 l 488 40 q 322 -14 425 -14 m 275 363 q 276 299 275 328 q 281 239 276 271 q 297 193 286 207 q 378 158 321 157 q 488 186 436 158 l 488 581 l 374 581 q 292 525 318 581 q 275 363 275 486 z "},"r":{"ha":575,"x_min":56,"x_max":547,"o":"m 56 0 l 56 738 l 253 738 l 283 644 q 348 705 318 688 q 394 729 378 722 q 478 744 432 744 q 547 736 525 744 l 547 518 q 441 519 506 519 q 340 504 376 519 q 283 438 303 489 l 283 0 l 56 0 z "},"s":{"ha":707,"x_min":36,"x_max":671,"o":"m 36 476 l 36 540 q 54 644 36 600 q 116 716 72 688 q 249 744 160 744 q 402 743 339 744 q 538 731 465 742 q 633 701 610 721 l 633 563 l 310 563 q 274 555 283 563 q 264 524 264 547 l 264 501 q 275 472 264 478 q 310 465 286 465 l 469 465 q 586 438 540 465 q 669 269 669 389 l 669 192 q 618 40 669 88 q 489 -7 567 -7 q 312 -6 378 -7 q 168 7 246 -4 q 67 39 90 18 l 67 176 l 404 176 q 442 213 442 176 l 442 235 q 434 263 442 254 q 404 272 426 272 l 250 272 q 36 476 36 272 z "},"t":{"ha":532,"x_min":18,"x_max":506,"o":"m 18 574 l 18 693 l 131 739 l 167 944 l 358 944 l 358 739 l 506 739 l 506 574 l 358 574 l 358 306 q 372 206 358 233 q 417 164 386 178 q 497 136 489 136 l 497 0 l 311 0 q 215 24 254 0 q 131 264 131 78 l 131 574 l 18 574 z "},"u":{"ha":767,"x_min":46,"x_max":713,"o":"m 47 256 l 47 738 l 275 738 l 275 250 q 304 171 275 188 q 354 164 318 164 q 483 222 428 164 l 483 738 l 711 738 l 711 0 l 525 0 l 483 75 q 446 51 469 67 q 408 26 422 35 q 371 7 393 17 q 264 -12 329 -12 q 154 8 199 -12 q 88 67 110 28 q 47 256 47 136 z "},"v":{"ha":799,"x_min":18,"x_max":781,"o":"m 18 738 l 261 738 l 397 256 l 539 738 l 781 738 l 522 0 l 264 0 l 18 738 z "},"w":{"ha":1160,"x_min":18,"x_max":1143,"o":"m 18 738 l 261 738 l 383 256 l 494 738 l 717 738 l 675 553 l 783 256 l 900 738 l 1143 738 l 921 0 l 661 0 l 571 233 l 500 0 l 239 0 l 18 738 z "},"x":{"ha":819,"x_min":22,"x_max":797,"o":"m 22 0 l 272 369 l 22 738 l 297 738 l 408 539 l 522 738 l 797 738 l 543 365 l 786 0 l 522 0 l 410 196 l 297 0 l 22 0 z "},"y":{"ha":815,"x_min":19,"x_max":793,"o":"m 19 738 l 257 738 l 365 243 q 433 189 378 193 l 558 738 l 792 738 l 561 -233 l 461 -375 l 296 -375 l 390 0 q 151 200 201 0 l 19 738 z "},"z":{"ha":667,"x_min":28,"x_max":642,"o":"m 28 551 l 28 738 l 640 738 l 640 551 l 353 188 l 640 188 l 640 1 l 49 1 l 49 186 l 354 551 l 28 551 z "},"{":{"ha":446,"x_min":18,"x_max":429,"o":"m 113 619 l 113 911 q 191 1101 113 1033 q 428 1169 269 1169 l 428 983 q 359 952 378 983 q 340 828 340 921 l 340 604 q 201 464 340 478 q 302 417 265 451 q 339 328 339 382 l 339 19 q 358 -84 339 -51 q 425 -117 376 -117 q 428 -117 426 -117 l 428 -292 q 184 -233 257 -292 q 111 -53 111 -174 l 111 307 q 88 363 111 344 q 29 381 64 381 q 18 381 24 381 l 18 546 q 87 565 61 550 q 113 619 113 581 z "},"|":{"ha":344,"x_min":79,"x_max":267,"o":"m 81 -100 l 81 1069 l 267 1069 l 267 -100 l 81 -100 z "},"}":{"ha":446,"x_min":18,"x_max":429,"o":"m 21 -117 q 90 -84 71 -117 q 108 19 108 -51 l 108 328 q 144 417 108 382 q 246 464 181 451 q 107 604 107 478 l 107 828 q 71 971 107 946 q 18 983 53 983 l 18 1169 q 256 1101 176 1169 q 335 911 335 1033 l 335 619 q 349 576 335 593 q 383 554 364 560 q 428 546 401 549 l 428 381 q 417 381 422 381 q 360 363 383 381 q 336 307 336 344 l 336 -53 q 263 -233 336 -174 q 18 -292 190 -292 l 18 -117 q 21 -117 19 -117 z "},"~":{"ha":572,"x_min":46,"x_max":526,"o":"m 215 922 q 292 898 247 922 q 363 874 336 874 q 368 874 365 874 q 492 929 432 874 l 526 838 q 369 738 451 738 q 288 762 339 738 q 206 786 238 786 q 148 775 174 786 q 82 738 122 764 l 47 822 q 215 922 129 922 z "},"¡":{"ha":386,"x_min":79,"x_max":304,"o":"m 90 469 l 90 608 q 124 640 90 638 l 260 640 q 283 628 272 639 q 293 604 293 618 l 293 471 q 261 433 292 433 l 124 433 q 90 469 90 433 m 79 -375 l 103 367 l 282 367 l 304 -375 l 79 -375 z "},"¢":{"ha":675,"x_min":36,"x_max":638,"o":"m 54 186 q 36 370 36 261 q 54 554 36 479 q 282 746 100 746 q 286 744 285 746 l 286 881 l 419 881 l 419 742 q 629 697 539 731 l 629 561 q 441 569 517 569 q 351 568 365 569 q 319 561 338 567 q 294 543 301 556 q 278 508 286 531 q 264 391 264 471 q 269 276 264 311 q 281 219 274 242 q 306 186 289 196 q 392 168 333 168 q 606 178 507 168 l 638 181 l 638 42 q 415 -8 556 -6 l 415 -132 l 282 -132 l 282 -8 q 54 186 100 -6 z "},"£":{"ha":803,"x_min":46,"x_max":757,"o":"m 47 0 l 47 175 l 136 207 l 136 428 l 47 428 l 47 542 l 136 575 l 136 660 q 199 919 136 836 q 378 1010 254 993 q 485 1017 429 1017 q 711 1000 575 1017 l 756 994 l 756 811 l 497 811 q 390 790 415 811 q 364 683 364 768 l 364 575 l 647 553 l 647 428 l 364 428 l 364 207 l 756 207 l 756 0 l 47 0 z "},"¤":{"ha":614,"x_min":47,"x_max":568,"o":"m 185 614 q 306 651 240 651 q 428 615 372 651 l 492 681 l 567 613 l 499 542 q 528 425 528 492 q 486 301 528 358 l 553 239 l 483 161 l 408 233 q 303 208 361 208 q 192 243 244 208 l 126 176 l 53 249 l 119 317 q 89 431 89 372 q 117 538 89 490 l 47 603 l 119 676 l 185 614 m 308 533 q 288 533 308 533 q 237 503 267 533 q 207 441 207 472 q 215 391 207 410 q 236 358 222 372 q 308 328 265 328 q 380 358 350 328 q 410 430 410 388 q 380 503 410 472 q 308 533 350 533 z "},"¥":{"ha":897,"x_min":18,"x_max":881,"o":"m 738 478 l 738 353 l 551 353 l 551 310 l 738 310 l 738 186 l 551 186 l 551 0 l 324 0 l 324 186 l 144 186 l 144 310 l 324 310 l 324 353 l 144 353 l 144 478 l 260 478 l 18 1017 l 267 1017 l 442 561 l 631 1017 l 879 1017 l 619 478 l 738 478 z "},"¦":{"ha":346,"x_min":79,"x_max":267,"o":"m 81 -100 l 81 356 l 267 356 l 267 -100 l 81 -100 m 81 596 l 81 1069 l 267 1069 l 267 596 l 81 596 z "},"§":{"ha":746,"x_min":51,"x_max":697,"o":"m 53 458 l 53 493 q 53 501 53 493 q 92 635 53 599 q 144 664 113 654 q 51 819 51 707 l 51 875 q 103 1033 51 978 q 253 1089 156 1089 q 644 1063 531 1089 l 644 903 l 325 903 q 279 861 279 903 l 279 831 q 328 788 279 788 l 469 788 q 642 746 588 788 q 697 614 697 704 l 697 579 q 607 419 697 447 q 681 360 663 411 q 694 275 694 318 l 694 206 q 632 31 694 79 q 503 -11 578 -11 q 103 15 200 -11 l 103 175 l 418 175 q 460 186 453 175 q 468 213 468 197 l 468 250 q 457 281 468 272 q 419 289 446 289 l 274 289 q 109 326 165 289 q 53 458 53 364 m 279 515 q 292 474 279 483 q 336 464 306 464 l 408 464 q 458 475 447 464 q 468 517 468 486 l 468 557 q 442 608 468 600 q 408 611 429 611 l 336 611 q 290 599 300 611 q 279 554 279 586 l 279 515 z "},"¨":{"ha":618,"x_min":46,"x_max":572,"o":"m 72 747 q 60 760 72 747 q 47 808 47 772 q 72 868 47 843 q 133 893 97 893 q 193 869 168 893 q 218 808 218 844 q 193 747 218 772 q 133 722 168 722 q 72 747 97 722 m 426 747 q 413 760 426 747 q 400 808 400 772 q 426 868 400 843 q 487 893 451 893 q 547 869 522 893 q 572 808 572 844 q 547 747 572 772 q 487 722 522 722 q 426 747 451 722 z "},"©":{"ha":1106,"x_min":51,"x_max":1057,"o":"m 119 860 q 419 1017 200 1017 l 721 1017 q 863 989 803 1017 q 960 916 924 961 q 1018 804 996 871 q 1056 517 1056 689 q 1015 229 1056 344 q 721 0 936 0 l 419 0 q 142 143 232 0 q 51 506 51 286 q 119 860 51 725 m 192 511 q 249 235 192 340 q 419 131 306 131 l 711 131 q 915 511 915 131 q 868 803 915 721 q 811 862 849 838 q 721 886 774 886 l 419 886 q 260 815 319 886 q 192 511 192 733 m 506 810 q 764 776 663 810 l 764 663 q 547 679 647 679 q 469 642 492 679 q 447 524 447 604 q 458 407 447 443 q 556 335 479 335 q 772 357 653 335 l 772 243 q 515 204 689 204 q 349 294 400 204 q 306 518 306 367 q 506 810 306 810 z "},"ª":{"ha":510,"x_min":28,"x_max":483,"o":"m 28 361 l 28 464 l 483 464 l 483 361 l 28 361 m 44 986 q 256 1025 138 1025 q 428 990 375 1025 q 482 863 482 954 l 482 525 l 347 525 l 308 585 q 265 542 301 565 q 186 519 229 519 q 67 560 107 519 q 28 650 28 600 l 28 692 q 65 788 28 750 q 176 826 103 826 q 278 826 249 826 q 308 826 308 826 q 301 875 311 861 q 279 892 292 889 q 232 894 267 894 q 154 892 197 894 q 81 885 111 889 q 44 882 51 882 l 44 986 m 233 642 q 308 672 283 642 l 308 740 l 225 733 q 195 721 201 732 q 189 692 189 710 l 189 678 q 201 648 189 654 q 233 642 213 642 z "},"«":{"ha":822,"x_min":46,"x_max":776,"o":"m 47 492 l 333 774 l 451 657 l 283 492 l 454 322 l 339 203 l 47 492 m 368 492 l 654 774 l 774 657 l 606 492 l 776 322 l 661 203 l 368 492 z "},"¬":{"ha":669,"x_min":38,"x_max":632,"o":"m 39 325 l 39 500 l 631 500 l 631 221 l 456 221 l 456 325 l 39 325 z "},"­":{"ha":492,"x_min":28,"x_max":464,"o":"m 28 310 l 28 496 l 464 496 l 464 310 l 28 310 z "},"®":{"ha":1106,"x_min":51,"x_max":1057,"o":"m 119 860 q 419 1017 200 1017 l 721 1017 q 863 989 803 1017 q 960 916 924 961 q 1018 804 996 871 q 1056 517 1056 689 q 1015 229 1056 344 q 721 0 936 0 l 419 0 q 142 143 232 0 q 51 506 51 286 q 119 860 51 725 m 192 511 q 249 235 192 340 q 419 131 306 131 l 711 131 q 915 511 915 131 q 868 803 915 721 q 811 862 849 838 q 721 886 774 886 l 419 886 q 260 815 319 886 q 192 511 192 733 m 338 213 l 338 806 l 594 806 q 781 617 781 806 q 755 492 781 533 q 681 436 729 451 l 799 213 l 647 213 l 536 428 l 478 444 l 478 213 l 338 213 m 478 547 l 561 547 q 626 559 614 547 q 639 613 639 571 q 623 665 639 654 q 561 675 607 675 l 478 675 l 478 547 z "},"¯":{"ha":499,"x_min":46,"x_max":453,"o":"m 47 738 l 47 856 l 453 856 l 453 738 l 47 738 z "},"°":{"ha":375,"x_min":46,"x_max":329,"o":"m 66 806 q 57 823 66 806 q 47 878 47 839 q 66 949 47 917 q 117 1001 85 982 q 188 1021 150 1021 q 259 1001 226 1021 q 310 949 292 982 q 328 878 328 917 q 310 806 328 839 q 259 755 292 774 q 188 736 226 736 q 117 755 150 736 q 66 806 85 774 m 149 918 q 140 910 149 918 q 132 878 132 901 q 149 838 132 854 q 188 822 165 822 q 227 838 211 822 q 243 878 243 854 q 227 918 243 901 q 188 935 211 935 q 149 918 165 935 z "},"±":{"ha":682,"x_min":53,"x_max":631,"o":"m 53 89 l 53 275 l 631 275 l 631 89 l 53 89 m 53 528 l 53 714 l 247 714 l 247 908 l 433 908 l 433 714 l 631 714 l 631 528 l 433 528 l 433 331 l 247 331 l 247 528 l 53 528 z "},"²":{"ha":563,"x_min":28,"x_max":525,"o":"m 29 1035 q 28 1072 28 1035 q 29 1132 28 1110 l 29 1164 q 314 1193 171 1193 q 472 1137 419 1193 q 524 986 524 1081 q 297 669 524 849 l 524 669 l 524 511 l 33 511 l 33 663 q 197 782 119 718 q 350 967 350 907 q 326 1021 350 1007 q 243 1035 303 1035 l 29 1035 z "},"³":{"ha":568,"x_min":28,"x_max":514,"o":"m 274 504 q 33 532 110 504 l 35 661 l 247 663 q 322 670 304 663 q 340 706 340 678 l 340 718 q 320 756 340 746 q 253 767 300 767 l 92 775 l 92 914 l 253 925 q 323 935 303 925 q 343 971 343 944 l 343 982 q 300 1025 343 1018 q 253 1028 282 1028 l 28 1028 l 28 1157 q 289 1186 108 1186 q 343 1185 311 1186 q 409 1173 375 1185 q 465 1139 443 1161 q 514 1017 514 1093 l 514 976 q 431 844 514 872 q 514 706 514 818 l 514 675 q 467 549 514 593 q 328 504 419 504 l 274 504 z "},"´":{"ha":338,"x_min":18,"x_max":321,"o":"m 18 738 l 136 933 l 319 933 l 156 738 l 18 738 z "},"µ":{"ha":814,"x_min":83,"x_max":750,"o":"m 313 250 q 378 164 313 164 q 459 177 426 164 q 522 222 492 190 l 522 738 l 750 738 l 750 0 l 563 0 l 522 75 q 489 54 515 71 q 451 32 463 38 q 335 -1 393 -1 q 313 0 324 -1 l 313 -375 l 85 -375 l 85 738 l 313 738 l 313 250 z "},"¶":{"ha":799,"x_min":36,"x_max":783,"o":"m 36 693 l 36 822 q 96 967 36 918 q 253 1017 156 1017 l 782 1017 l 782 858 l 717 858 l 717 0 l 561 0 l 561 861 l 483 861 l 483 -375 l 328 -375 l 328 517 q 317 510 328 517 q 253 493 292 493 q 90 549 144 493 q 36 693 36 606 m 192 714 q 214 658 192 669 q 264 647 232 647 l 328 647 l 328 861 l 264 861 q 205 845 218 861 q 192 786 192 829 l 192 714 z "},"·":{"ha":361,"x_min":79,"x_max":285,"o":"m 79 464 l 79 606 q 113 642 79 642 l 249 642 q 283 606 283 642 l 283 464 q 249 433 283 433 l 113 433 q 82 451 90 433 q 79 464 79 457 z "},"¸":{"ha":335,"x_min":46,"x_max":289,"o":"m 144 -51 l 289 -51 q 253 -205 289 -160 q 128 -250 218 -250 l 47 -250 l 47 -156 l 103 -135 q 138 -108 131 -122 q 144 -51 144 -93 z "},"¹":{"ha":375,"x_min":14,"x_max":315,"o":"m 315 1183 l 315 511 l 142 511 l 142 1032 l 15 1007 l 15 1107 l 144 1183 l 315 1183 z "},"º":{"ha":550,"x_min":28,"x_max":524,"o":"m 277 519 q 207 519 277 519 q 83 575 138 519 q 28 772 28 631 q 82 967 28 913 q 275 1022 136 1022 q 422 998 369 1022 q 499 918 475 974 q 522 764 522 863 q 469 573 522 626 q 277 519 417 519 m 47 363 l 47 464 l 503 464 l 503 363 l 47 363 m 276 888 q 252 888 276 888 q 215 866 228 888 q 201 769 201 844 q 216 674 201 693 q 269 654 231 654 q 321 660 308 654 q 350 760 350 672 q 337 867 350 847 q 276 888 324 888 z "},"»":{"ha":822,"x_min":46,"x_max":776,"o":"m 47 322 l 218 492 l 50 657 l 168 774 l 454 492 l 161 203 l 47 322 m 368 322 l 539 492 l 371 657 l 490 774 l 776 492 l 483 203 l 368 322 z "},"¼":{"ha":1307,"x_min":14,"x_max":1289,"o":"m 315 1028 l 315 354 l 142 354 l 142 876 l 15 850 l 15 950 l 144 1028 l 315 1028 m 221 0 l 828 1056 l 986 1056 l 381 0 l 221 0 m 1053 286 l 1053 419 l 1085 489 l 1226 489 l 1226 286 l 1289 286 l 1289 153 l 1226 125 l 1226 1 l 1053 1 l 1053 125 l 738 125 l 706 201 l 925 672 l 1106 672 l 933 286 l 1053 286 z "},"½":{"ha":1385,"x_min":14,"x_max":1349,"o":"m 315 1028 l 315 354 l 142 354 l 142 876 l 15 850 l 15 950 l 144 1028 l 315 1028 m 208 0 l 815 1056 l 975 1056 l 368 0 l 208 0 m 847 524 q 846 562 846 524 q 846 621 846 600 l 847 654 q 1133 682 990 682 q 1294 626 1242 682 q 1347 475 1347 569 q 1117 158 1347 339 l 1347 158 l 1347 0 l 851 0 l 851 153 q 1019 278 939 211 q 1174 468 1174 406 q 1149 512 1174 500 q 1064 524 1125 524 l 847 524 z "},"¾":{"ha":1464,"x_min":28,"x_max":1418,"o":"m 28 1001 q 243 1031 107 1031 q 339 1029 289 1031 q 471 983 422 1029 q 519 860 519 938 l 519 821 q 438 689 519 717 q 519 549 519 661 l 519 519 q 436 368 519 408 q 332 347 393 347 q 299 347 325 347 q 266 347 274 347 q 235 348 258 347 q 203 349 213 349 q 174 351 194 350 q 144 353 154 351 q 116 356 133 354 q 86 361 99 358 q 33 376 53 369 l 35 506 l 251 506 q 328 514 308 506 q 347 550 347 522 l 347 563 q 326 600 347 590 q 257 611 304 610 l 92 618 l 92 757 l 257 768 q 328 778 308 769 q 349 814 349 788 l 349 828 q 326 863 349 854 q 257 872 303 872 l 28 872 l 28 1001 m 365 0 l 971 1056 l 1131 1056 l 524 0 l 365 0 m 1183 286 l 1183 419 l 1213 489 l 1356 489 l 1356 286 l 1417 286 l 1417 153 l 1356 125 l 1356 3 l 1183 3 l 1183 125 l 865 125 l 833 203 l 1053 672 l 1232 672 l 1060 286 l 1183 286 z "},"¿":{"ha":754,"x_min":36,"x_max":738,"o":"m 736 -162 q 736 -231 736 -162 q 736 -315 736 -299 l 736 -333 q 527 -368 601 -364 q 416 -372 453 -372 q 362 -372 379 -372 q 343 -371 344 -371 q 206 -347 267 -371 q 108 -281 144 -322 q 36 -92 36 -199 l 36 -4 q 105 202 36 138 q 304 267 174 267 q 342 265 322 267 l 342 385 l 519 385 l 521 97 q 444 97 497 97 q 375 97 390 97 q 268 -11 269 93 q 268 -61 268 -54 q 301 -137 268 -110 q 397 -164 333 -164 q 401 -164 400 -164 l 736 -162 m 331 622 q 364 656 331 654 l 500 656 q 524 647 514 656 q 533 624 533 638 l 533 483 q 500 447 532 449 l 364 447 q 331 483 331 450 l 331 622 z "},"À":{"ha":972,"x_min":42,"x_max":958,"o":"m 274 1303 l 457 1303 l 575 1107 l 438 1107 l 274 1303 m 42 0 l 374 1017 l 638 1017 l 958 0 l 721 0 l 654 204 l 347 204 l 281 0 l 42 0 m 403 401 l 604 401 l 508 725 l 403 401 z "},"Á":{"ha":972,"x_min":42,"x_max":958,"o":"m 438 1107 l 554 1303 l 739 1303 l 575 1107 l 438 1107 m 42 0 l 374 1017 l 638 1017 l 958 0 l 721 0 l 654 204 l 347 204 l 281 0 l 42 0 m 403 401 l 604 401 l 508 725 l 403 401 z "},"Â":{"ha":972,"x_min":42,"x_max":958,"o":"m 288 1107 l 432 1297 l 593 1297 l 724 1107 l 583 1107 l 508 1185 l 429 1107 l 288 1107 m 42 0 l 374 1017 l 638 1017 l 958 0 l 721 0 l 654 204 l 347 204 l 281 0 l 42 0 m 403 401 l 604 401 l 508 725 l 403 401 z "},"Ã":{"ha":972,"x_min":42,"x_max":958,"o":"m 589 1242 q 711 1296 649 1242 l 746 1204 q 590 1107 668 1107 q 507 1131 557 1107 q 425 1156 457 1156 q 367 1144 393 1156 q 301 1107 342 1133 l 265 1192 q 435 1290 347 1290 q 513 1265 468 1290 q 589 1242 558 1242 m 42 0 l 374 1017 l 638 1017 l 958 0 l 721 0 l 654 204 l 347 204 l 281 0 l 42 0 m 403 401 l 604 401 l 508 725 l 403 401 z "},"Ä":{"ha":972,"x_min":42,"x_max":958,"o":"m 269 1133 q 256 1145 269 1133 q 243 1194 243 1158 q 269 1253 243 1229 q 330 1278 294 1278 q 390 1253 365 1278 q 414 1194 414 1229 q 390 1133 414 1158 q 330 1107 365 1107 q 269 1133 294 1107 m 623 1133 q 610 1145 623 1133 q 597 1194 597 1158 q 623 1253 597 1229 q 684 1278 649 1278 q 744 1253 719 1278 q 768 1194 768 1229 q 744 1133 768 1158 q 684 1107 719 1107 q 623 1133 649 1107 m 42 0 l 374 1017 l 638 1017 l 958 0 l 721 0 l 654 204 l 347 204 l 281 0 l 42 0 m 403 401 l 604 401 l 508 725 l 403 401 z "},"Å":{"ha":972,"x_min":42,"x_max":958,"o":"m 365 1166 q 365 1141 365 1166 q 384 1084 365 1117 q 435 1033 403 1051 q 506 1014 468 1014 q 577 1033 544 1014 q 628 1084 610 1051 q 647 1166 647 1117 q 606 1257 647 1215 q 507 1299 565 1299 q 407 1257 449 1299 q 365 1166 365 1215 m 451 1161 q 451 1169 451 1161 q 467 1194 451 1178 q 506 1210 483 1210 q 544 1194 529 1210 q 560 1156 560 1179 q 544 1118 560 1133 q 506 1103 529 1103 q 468 1118 483 1103 q 456 1135 461 1125 q 451 1161 451 1144 m 42 0 l 374 1017 l 638 1017 l 958 0 l 721 0 l 654 204 l 347 204 l 281 0 l 42 0 m 403 401 l 604 401 l 508 725 l 403 401 z "},"Æ":{"ha":1342,"x_min":28,"x_max":1300,"o":"m 667 1001 q 753 1016 719 1014 q 812 1018 786 1018 q 869 1017 838 1018 q 1300 994 1178 1011 l 1300 804 l 932 804 q 865 769 875 804 q 860 728 861 754 l 860 610 l 1233 594 l 1233 407 l 860 394 l 860 279 q 899 213 860 221 q 946 208 917 208 l 1300 208 l 1300 19 q 964 -3 1204 6 l 883 -6 q 851 -6 871 -6 q 797 -1 831 -6 q 723 20 764 4 q 657 74 682 36 q 632 168 632 113 l 632 253 l 406 253 l 281 0 l 28 0 l 414 785 q 667 1001 501 963 m 632 450 l 632 728 l 500 450 l 632 450 z "},"Ç":{"ha":790,"x_min":51,"x_max":760,"o":"m 203 -51 l 347 -51 q 312 -205 347 -160 q 186 -250 276 -250 l 106 -250 l 106 -156 l 161 -135 q 200 -93 196 -119 q 203 -51 203 -81 m 51 511 q 67 730 51 639 q 122 890 83 821 q 400 1028 197 1028 q 598 1017 524 1028 q 760 978 672 1007 l 760 800 q 750 801 760 800 q 724 803 740 801 q 685 808 707 806 q 637 813 664 810 q 582 817 610 815 q 475 821 519 821 q 411 819 431 821 q 369 810 392 817 q 335 791 347 804 q 310 756 322 778 q 292 700 299 733 q 279 478 279 624 q 316 265 279 332 q 464 199 353 199 q 718 207 593 199 l 760 211 l 760 33 q 439 -8 643 -8 q 400 -8 419 -8 q 129 129 210 -6 q 51 511 51 258 z "},"È":{"ha":788,"x_min":69,"x_max":758,"o":"m 222 1301 l 407 1301 l 524 1106 l 386 1106 l 222 1301 m 69 211 l 69 794 q 182 994 69 944 q 307 1017 235 1017 q 757 994 636 1011 l 757 804 l 369 804 q 306 779 318 804 q 297 726 297 760 l 297 611 l 692 597 l 692 408 l 297 396 l 297 281 q 326 217 297 228 q 383 208 347 208 l 757 208 l 757 19 q 356 -3 657 6 l 321 -4 q 294 -4 310 -4 q 255 -2 279 -4 q 194 13 231 0 q 131 47 157 25 q 88 112 106 69 q 69 211 69 154 z "},"É":{"ha":788,"x_min":69,"x_max":758,"o":"m 376 1106 l 494 1300 l 678 1300 l 514 1106 l 376 1106 m 69 211 l 69 794 q 182 994 69 944 q 307 1017 235 1017 q 757 994 636 1011 l 757 804 l 369 804 q 306 779 318 804 q 297 726 297 760 l 297 611 l 692 597 l 692 408 l 297 396 l 297 281 q 326 217 297 228 q 383 208 347 208 l 757 208 l 757 19 q 356 -3 657 6 l 321 -4 q 294 -4 310 -4 q 255 -2 279 -4 q 194 13 231 0 q 131 47 157 25 q 88 112 106 69 q 69 211 69 154 z "},"Ê":{"ha":788,"x_min":69,"x_max":758,"o":"m 224 1107 l 368 1297 l 529 1297 l 661 1107 l 519 1107 l 444 1185 l 365 1107 l 224 1107 m 69 211 l 69 794 q 182 994 69 944 q 307 1017 235 1017 q 757 994 636 1011 l 757 804 l 369 804 q 306 779 318 804 q 297 726 297 760 l 297 611 l 692 597 l 692 408 l 297 396 l 297 281 q 326 217 297 228 q 383 208 347 208 l 757 208 l 757 19 q 356 -3 657 6 l 321 -4 q 294 -4 310 -4 q 255 -2 279 -4 q 194 13 231 0 q 131 47 157 25 q 88 112 106 69 q 69 211 69 154 z "},"Ë":{"ha":788,"x_min":69,"x_max":758,"o":"m 255 1106 q 237 1106 255 1106 q 194 1131 219 1106 q 169 1185 169 1156 q 181 1235 169 1215 q 249 1276 206 1276 q 316 1252 292 1276 q 340 1192 340 1228 q 315 1131 340 1156 q 255 1106 290 1106 m 549 1131 q 536 1143 549 1131 q 524 1191 524 1156 q 549 1251 524 1226 q 609 1276 574 1276 q 669 1252 644 1276 q 694 1192 694 1228 q 669 1131 694 1156 q 610 1106 644 1106 q 549 1131 575 1106 m 69 211 l 69 794 q 182 994 69 944 q 307 1017 235 1017 q 757 994 636 1011 l 757 804 l 369 804 q 306 779 318 804 q 297 726 297 760 l 297 611 l 692 597 l 692 408 l 297 396 l 297 281 q 326 217 297 228 q 383 208 347 208 l 757 208 l 757 19 q 356 -3 657 6 l 321 -4 q 294 -4 310 -4 q 255 -2 279 -4 q 194 13 231 0 q 131 47 157 25 q 88 112 106 69 q 69 211 69 154 z "},"Ì":{"ha":357,"x_min":-44,"x_max":303,"o":"m -44 1303 l 140 1303 l 257 1107 l 119 1107 l -44 1303 m 75 0 l 75 1017 l 303 1017 l 303 0 l 75 0 z "},"Í":{"ha":357,"x_min":74,"x_max":422,"o":"m 119 1107 l 238 1303 l 421 1303 l 257 1107 l 119 1107 m 75 0 l 75 1017 l 303 1017 l 303 0 l 75 0 z "},"Î":{"ha":357,"x_min":-31,"x_max":407,"o":"m -31 1107 l 115 1297 l 276 1297 l 407 1107 l 267 1107 l 192 1185 l 111 1107 l -31 1107 m 75 0 l 75 1017 l 303 1017 l 303 0 l 75 0 z "},"Ï":{"ha":357,"x_min":-75,"x_max":451,"o":"m -49 1133 q -62 1145 -49 1133 q -75 1194 -75 1158 q -49 1253 -75 1229 q 12 1278 -24 1278 q 72 1253 47 1278 q 97 1194 97 1229 q 72 1133 97 1158 q 12 1107 47 1107 q -49 1133 -24 1107 m 306 1133 q 293 1145 306 1133 q 281 1194 281 1158 q 306 1253 281 1229 q 366 1278 331 1278 q 426 1253 401 1278 q 451 1194 451 1229 q 426 1133 451 1158 q 366 1107 401 1107 q 306 1133 331 1107 m 75 0 l 75 1017 l 303 1017 l 303 0 l 75 0 z "},"Ð":{"ha":922,"x_min":-17,"x_max":876,"o":"m -15 469 l -15 567 l 75 567 l 75 1017 q 526 1017 75 1017 q 672 988 610 1017 q 773 914 735 960 q 835 800 811 868 q 876 504 876 682 q 526 0 876 0 l 75 0 l 75 469 l -15 469 m 303 197 l 506 197 q 615 274 582 197 q 647 476 647 350 q 638 665 647 601 q 608 760 628 728 q 565 806 589 793 q 506 818 540 818 l 303 818 l 303 567 l 443 567 l 443 469 l 303 469 l 303 197 z "},"Ñ":{"ha":940,"x_min":74,"x_max":886,"o":"m 564 1242 q 686 1296 624 1242 l 721 1204 q 565 1107 643 1107 q 508 1119 538 1107 q 453 1144 479 1132 q 398 1156 428 1156 q 342 1144 368 1156 q 276 1107 317 1133 l 240 1192 q 410 1290 321 1290 q 488 1265 443 1290 q 564 1242 533 1242 m 75 0 l 75 1017 l 306 1017 l 658 421 l 658 1017 l 886 1017 l 886 0 l 658 0 l 304 586 l 304 0 l 75 0 z "},"Ò":{"ha":929,"x_min":61,"x_max":889,"o":"m 243 1303 l 426 1303 l 544 1107 l 407 1107 l 243 1303 m 71 321 q 66 368 71 321 q 61 508 61 415 q 72 680 61 601 q 102 813 83 758 q 151 907 121 868 q 214 968 182 946 q 292 1003 246 990 q 449 1024 365 1024 q 574 1019 533 1024 q 662 1003 615 1015 q 740 968 708 990 q 801 907 771 946 q 850 814 832 868 q 889 501 889 693 q 824 144 889 269 q 717 36 790 78 q 475 -6 642 -6 q 235 33 306 -6 q 126 138 158 74 q 71 321 81 226 m 315 738 q 309 720 315 738 q 296 646 303 703 q 289 517 289 589 q 291 406 289 446 q 298 333 293 367 q 313 278 303 300 q 335 241 322 257 q 369 217 349 225 q 471 201 410 201 q 565 213 532 201 q 622 259 599 225 q 653 350 644 293 q 661 497 661 407 q 655 642 661 588 q 637 733 649 697 q 601 787 625 769 q 550 810 578 804 q 476 817 522 817 q 403 812 429 817 q 351 790 376 807 q 315 738 326 772 z "},"Ó":{"ha":929,"x_min":61,"x_max":889,"o":"m 407 1107 l 524 1303 l 708 1303 l 544 1107 l 407 1107 m 71 321 q 66 368 71 321 q 61 508 61 415 q 72 680 61 601 q 102 813 83 758 q 151 907 121 868 q 214 968 182 946 q 292 1003 246 990 q 449 1024 365 1024 q 574 1019 533 1024 q 662 1003 615 1015 q 740 968 708 990 q 801 907 771 946 q 850 814 832 868 q 889 501 889 693 q 824 144 889 269 q 717 36 790 78 q 475 -6 642 -6 q 235 33 306 -6 q 126 138 158 74 q 71 321 81 226 m 315 738 q 309 720 315 738 q 296 646 303 703 q 289 517 289 589 q 291 406 289 446 q 298 333 293 367 q 313 278 303 300 q 335 241 322 257 q 369 217 349 225 q 471 201 410 201 q 565 213 532 201 q 622 259 599 225 q 653 350 644 293 q 661 497 661 407 q 655 642 661 588 q 637 733 649 697 q 601 787 625 769 q 550 810 578 804 q 476 817 522 817 q 403 812 429 817 q 351 790 376 807 q 315 738 326 772 z "},"Ô":{"ha":929,"x_min":61,"x_max":889,"o":"m 257 1107 l 401 1297 l 563 1297 l 694 1107 l 553 1107 l 478 1185 l 399 1107 l 257 1107 m 71 321 q 66 368 71 321 q 61 508 61 415 q 72 680 61 601 q 102 813 83 758 q 151 907 121 868 q 214 968 182 946 q 292 1003 246 990 q 449 1024 365 1024 q 574 1019 533 1024 q 662 1003 615 1015 q 740 968 708 990 q 801 907 771 946 q 850 814 832 868 q 889 501 889 693 q 824 144 889 269 q 717 36 790 78 q 475 -6 642 -6 q 235 33 306 -6 q 126 138 158 74 q 71 321 81 226 m 315 738 q 309 720 315 738 q 296 646 303 703 q 289 517 289 589 q 291 406 289 446 q 298 333 293 367 q 313 278 303 300 q 335 241 322 257 q 369 217 349 225 q 471 201 410 201 q 565 213 532 201 q 622 259 599 225 q 653 350 644 293 q 661 497 661 407 q 655 642 661 588 q 637 733 649 697 q 601 787 625 769 q 550 810 578 804 q 476 817 522 817 q 403 812 429 817 q 351 790 376 807 q 315 738 326 772 z "},"Õ":{"ha":929,"x_min":61,"x_max":889,"o":"m 558 1242 q 681 1296 618 1242 l 715 1204 q 560 1107 638 1107 q 476 1131 526 1107 q 394 1156 426 1156 q 337 1144 363 1156 q 271 1107 311 1133 l 236 1192 q 404 1290 317 1290 q 482 1265 438 1290 q 558 1242 528 1242 m 71 321 q 66 368 71 321 q 61 508 61 415 q 72 680 61 601 q 102 813 83 758 q 151 907 121 868 q 214 968 182 946 q 292 1003 246 990 q 449 1024 365 1024 q 574 1019 533 1024 q 662 1003 615 1015 q 740 968 708 990 q 801 907 771 946 q 850 814 832 868 q 889 501 889 693 q 824 144 889 269 q 717 36 790 78 q 475 -6 642 -6 q 235 33 306 -6 q 126 138 158 74 q 71 321 81 226 m 315 738 q 309 720 315 738 q 296 646 303 703 q 289 517 289 589 q 291 406 289 446 q 298 333 293 367 q 313 278 303 300 q 335 241 322 257 q 369 217 349 225 q 471 201 410 201 q 565 213 532 201 q 622 259 599 225 q 653 350 644 293 q 661 497 661 407 q 655 642 661 588 q 637 733 649 697 q 601 787 625 769 q 550 810 578 804 q 476 817 522 817 q 403 812 429 817 q 351 790 376 807 q 315 738 326 772 z "},"Ö":{"ha":929,"x_min":61,"x_max":889,"o":"m 299 1107 q 282 1107 299 1107 q 238 1133 264 1107 q 213 1188 213 1158 q 224 1236 213 1217 q 292 1278 250 1278 q 359 1253 335 1278 q 383 1194 383 1229 q 359 1133 383 1158 q 299 1107 335 1107 m 592 1133 q 580 1145 592 1133 q 567 1194 567 1158 q 592 1253 567 1229 q 653 1278 618 1278 q 714 1253 689 1278 q 739 1194 739 1229 q 714 1133 739 1158 q 653 1107 689 1107 q 592 1133 618 1107 m 71 321 q 66 368 71 321 q 61 508 61 415 q 72 680 61 601 q 102 813 83 758 q 151 907 121 868 q 214 968 182 946 q 292 1003 246 990 q 449 1024 365 1024 q 574 1019 533 1024 q 662 1003 615 1015 q 740 968 708 990 q 801 907 771 946 q 850 814 832 868 q 889 501 889 693 q 824 144 889 269 q 717 36 790 78 q 475 -6 642 -6 q 235 33 306 -6 q 126 138 158 74 q 71 321 81 226 m 315 738 q 309 720 315 738 q 296 646 303 703 q 289 517 289 589 q 291 406 289 446 q 298 333 293 367 q 313 278 303 300 q 335 241 322 257 q 369 217 349 225 q 471 201 410 201 q 565 213 532 201 q 622 259 599 225 q 653 350 644 293 q 661 497 661 407 q 655 642 661 588 q 637 733 649 697 q 601 787 625 769 q 550 810 578 804 q 476 817 522 817 q 403 812 429 817 q 351 790 376 807 q 315 738 326 772 z "},"×":{"ha":643,"x_min":53,"x_max":593,"o":"m 53 356 l 190 493 l 53 632 l 183 764 l 322 625 l 461 765 l 593 633 l 454 493 l 593 356 l 461 224 l 322 361 l 185 224 l 53 356 z "},"Ø":{"ha":944,"x_min":60,"x_max":899,"o":"m 160 907 q 222 968 190 946 q 300 1003 254 990 q 485 1024 374 1024 q 739 974 658 1024 l 769 1017 l 881 1017 l 807 911 q 899 501 899 790 q 814 114 899 224 q 675 17 758 40 q 494 -6 600 -6 q 323 6 389 -6 q 208 53 257 18 l 171 0 l 60 0 l 144 122 q 71 515 71 238 q 160 907 71 793 m 313 703 q 309 680 313 703 q 302 610 306 657 q 299 483 299 564 q 310 354 299 403 l 608 789 q 485 817 575 817 q 353 783 383 817 q 313 703 321 749 m 344 244 q 470 201 381 201 q 598 225 560 201 q 653 313 636 249 q 671 505 671 376 q 653 696 671 633 l 344 244 z "},"Ù":{"ha":917,"x_min":74,"x_max":863,"o":"m 236 1303 l 419 1303 l 538 1107 l 400 1107 l 236 1303 m 472 -7 l 451 -7 q 289 5 322 -7 q 224 32 256 17 q 174 69 192 47 q 134 126 156 92 q 101 206 113 161 q 75 444 75 311 l 75 1017 l 303 1017 l 303 444 q 309 326 303 371 q 335 252 315 282 q 386 211 354 222 q 472 200 418 200 q 599 253 565 200 q 633 444 633 307 l 633 1017 l 863 1017 l 863 444 q 761 79 863 174 q 697 29 725 46 q 622 4 668 13 q 472 -7 561 -7 z "},"Ú":{"ha":917,"x_min":74,"x_max":863,"o":"m 400 1107 l 517 1303 l 701 1303 l 538 1107 l 400 1107 m 472 -7 l 451 -7 q 289 5 322 -7 q 224 32 256 17 q 174 69 192 47 q 134 126 156 92 q 101 206 113 161 q 75 444 75 311 l 75 1017 l 303 1017 l 303 444 q 309 326 303 371 q 335 252 315 282 q 386 211 354 222 q 472 200 418 200 q 599 253 565 200 q 633 444 633 307 l 633 1017 l 863 1017 l 863 444 q 761 79 863 174 q 697 29 725 46 q 622 4 668 13 q 472 -7 561 -7 z "},"Û":{"ha":917,"x_min":74,"x_max":863,"o":"m 250 1107 l 394 1297 l 556 1297 l 686 1107 l 547 1107 l 471 1185 l 392 1107 l 250 1107 m 472 -7 l 451 -7 q 289 5 322 -7 q 224 32 256 17 q 174 69 192 47 q 134 126 156 92 q 101 206 113 161 q 75 444 75 311 l 75 1017 l 303 1017 l 303 444 q 309 326 303 371 q 335 252 315 282 q 386 211 354 222 q 472 200 418 200 q 599 253 565 200 q 633 444 633 307 l 633 1017 l 863 1017 l 863 444 q 761 79 863 174 q 697 29 725 46 q 622 4 668 13 q 472 -7 561 -7 z "},"Ü":{"ha":917,"x_min":74,"x_max":863,"o":"m 292 1107 q 275 1107 292 1107 q 231 1133 257 1107 q 206 1188 206 1158 q 217 1236 206 1217 q 285 1278 243 1278 q 353 1253 328 1278 q 378 1194 378 1229 q 353 1133 378 1158 q 292 1107 328 1107 m 585 1133 q 573 1145 585 1133 q 560 1194 560 1158 q 585 1253 560 1229 q 647 1278 611 1278 q 706 1253 682 1278 q 731 1194 731 1229 q 706 1133 731 1158 q 647 1107 682 1107 q 585 1133 611 1107 m 472 -7 l 451 -7 q 289 5 322 -7 q 224 32 256 17 q 174 69 192 47 q 134 126 156 92 q 101 206 113 161 q 75 444 75 311 l 75 1017 l 303 1017 l 303 444 q 309 326 303 371 q 335 252 315 282 q 386 211 354 222 q 472 200 418 200 q 599 253 565 200 q 633 444 633 307 l 633 1017 l 863 1017 l 863 444 q 761 79 863 174 q 697 29 725 46 q 622 4 668 13 q 472 -7 561 -7 z "},"Ý":{"ha":925,"x_min":42,"x_max":903,"o":"m 403 1107 l 521 1303 l 706 1303 l 542 1107 l 403 1107 m 575 0 l 347 0 l 347 299 l 42 1017 l 289 1017 l 464 546 l 656 1017 l 903 1017 l 575 299 l 575 0 z "},"Þ":{"ha":753,"x_min":56,"x_max":708,"o":"m 491 208 q 465 207 491 208 q 402 206 439 206 q 283 233 365 206 l 283 0 l 56 0 l 56 1013 l 283 1013 l 283 817 l 464 817 q 708 521 708 815 q 594 238 708 300 q 491 208 543 210 m 283 403 l 381 403 q 382 403 382 403 q 459 424 439 403 q 479 499 479 444 q 472 576 479 554 q 449 607 465 597 q 381 619 425 619 l 283 619 l 283 403 z "},"ß":{"ha":796,"x_min":56,"x_max":779,"o":"m 56 0 l 56 786 q 144 1001 56 915 q 397 1086 232 1086 q 564 1063 493 1086 q 735 913 692 1022 q 751 843 751 869 q 749 786 751 817 q 727 703 747 756 q 683 621 707 651 q 631 564 658 590 q 592 521 603 538 q 582 485 582 504 q 602 449 582 465 q 651 415 622 432 q 709 378 681 399 q 758 321 738 357 q 778 239 778 285 l 778 204 q 539 -11 779 -11 q 344 15 443 -11 l 344 172 q 460 164 435 164 q 499 168 486 164 q 525 181 513 172 q 550 238 550 197 l 550 260 q 485 335 550 300 q 431 365 458 349 q 383 413 403 382 q 364 497 364 444 q 388 585 364 549 q 471 674 411 621 q 524 781 524 722 q 493 862 524 840 q 401 883 463 883 q 311 840 339 883 q 283 692 283 797 l 283 0 l 56 0 z "},"à":{"ha":721,"x_min":36,"x_max":676,"o":"m 139 1031 l 324 1031 l 440 835 l 303 835 l 139 1031 m 36 193 l 36 257 q 90 406 36 347 q 250 465 144 465 q 401 465 356 465 q 447 465 447 465 q 447 496 449 494 q 426 563 447 549 q 342 578 406 578 q 61 563 278 578 l 61 700 q 206 740 131 729 q 406 751 282 751 q 603 697 531 751 q 675 506 675 643 l 675 0 l 494 0 l 447 78 q 382 23 436 54 q 263 -8 328 -8 q 92 54 149 -8 q 36 193 36 117 m 329 167 q 447 219 396 167 l 447 332 l 317 321 q 264 251 264 317 l 264 228 q 286 175 264 185 q 329 167 301 167 z "},"á":{"ha":721,"x_min":36,"x_max":676,"o":"m 301 835 l 418 1031 l 603 1031 l 439 835 l 301 835 m 36 193 l 36 257 q 90 406 36 347 q 250 465 144 465 q 401 465 356 465 q 447 465 447 465 q 447 496 449 494 q 426 563 447 549 q 342 578 406 578 q 61 563 278 578 l 61 700 q 206 740 131 729 q 406 751 282 751 q 603 697 531 751 q 675 506 675 643 l 675 0 l 494 0 l 447 78 q 382 23 436 54 q 263 -8 328 -8 q 92 54 149 -8 q 36 193 36 117 m 329 167 q 447 219 396 167 l 447 332 l 317 321 q 264 251 264 317 l 264 228 q 286 175 264 185 q 329 167 301 167 z "},"â":{"ha":721,"x_min":36,"x_max":676,"o":"m 153 835 l 297 1025 l 458 1025 l 589 835 l 449 835 l 372 913 l 294 835 l 153 835 m 36 193 l 36 257 q 90 406 36 347 q 250 465 144 465 q 401 465 356 465 q 447 465 447 465 q 447 496 449 494 q 426 563 447 549 q 342 578 406 578 q 61 563 278 578 l 61 700 q 206 740 131 729 q 406 751 282 751 q 603 697 531 751 q 675 506 675 643 l 675 0 l 494 0 l 447 78 q 382 23 436 54 q 263 -8 328 -8 q 92 54 149 -8 q 36 193 36 117 m 329 167 q 447 219 396 167 l 447 332 l 317 321 q 264 251 264 317 l 264 228 q 286 175 264 185 q 329 167 301 167 z "},"ã":{"ha":721,"x_min":36,"x_max":676,"o":"m 451 969 q 574 1024 513 969 l 608 932 q 453 835 532 835 q 369 859 419 835 q 288 883 319 883 q 231 872 257 883 q 164 835 204 861 l 129 919 q 297 1018 210 1018 q 376 993 331 1018 q 451 969 422 969 m 36 193 l 36 257 q 90 406 36 347 q 250 465 144 465 q 401 465 356 465 q 447 465 447 465 q 447 496 449 494 q 426 563 447 549 q 342 578 406 578 q 61 563 278 578 l 61 700 q 206 740 131 729 q 406 751 282 751 q 603 697 531 751 q 675 506 675 643 l 675 0 l 494 0 l 447 78 q 382 23 436 54 q 263 -8 328 -8 q 92 54 149 -8 q 36 193 36 117 m 329 167 q 447 219 396 167 l 447 332 l 317 321 q 264 251 264 317 l 264 228 q 286 175 264 185 q 329 167 301 167 z "},"ä":{"ha":721,"x_min":36,"x_max":676,"o":"m 133 860 q 120 873 133 860 q 107 922 107 886 q 133 982 107 957 q 194 1007 158 1007 q 254 982 229 1007 q 279 922 279 957 q 254 860 279 886 q 194 835 229 835 q 133 860 158 835 m 487 860 q 474 873 487 860 q 461 922 461 886 q 487 982 461 957 q 548 1007 513 1007 q 608 982 583 1007 q 633 922 633 957 q 608 860 633 886 q 548 835 583 835 q 487 860 513 835 m 36 193 l 36 257 q 90 406 36 347 q 250 465 144 465 q 401 465 356 465 q 447 465 447 465 q 447 496 449 494 q 426 563 447 549 q 342 578 406 578 q 61 563 278 578 l 61 700 q 206 740 131 729 q 406 751 282 751 q 603 697 531 751 q 675 506 675 643 l 675 0 l 494 0 l 447 78 q 382 23 436 54 q 263 -8 328 -8 q 92 54 149 -8 q 36 193 36 117 m 329 167 q 447 219 396 167 l 447 332 l 317 321 q 264 251 264 317 l 264 228 q 286 175 264 185 q 329 167 301 167 z "},"å":{"ha":721,"x_min":36,"x_max":676,"o":"m 273 865 q 264 875 273 865 q 243 911 254 885 q 232 972 232 938 q 251 1038 232 1006 q 302 1090 269 1071 q 383 1108 335 1108 q 473 1067 432 1108 q 514 976 514 1025 q 495 894 514 926 q 444 844 476 863 q 378 825 411 825 q 318 835 344 825 q 273 865 292 846 m 334 1005 q 326 997 334 1005 q 318 966 318 989 q 334 928 318 943 q 373 913 350 913 q 411 928 396 913 q 426 966 426 943 q 411 1005 426 989 q 373 1021 396 1021 q 334 1005 350 1021 m 36 193 l 36 257 q 90 406 36 347 q 250 465 144 465 q 401 465 356 465 q 447 465 447 465 q 447 496 449 494 q 426 563 447 549 q 342 578 406 578 q 61 563 278 578 l 61 700 q 206 740 131 729 q 406 751 282 751 q 603 697 531 751 q 675 506 675 643 l 675 0 l 494 0 l 447 78 q 382 23 436 54 q 263 -8 328 -8 q 92 54 149 -8 q 36 193 36 117 m 329 167 q 447 219 396 167 l 447 332 l 317 321 q 264 251 264 317 l 264 228 q 286 175 264 185 q 329 167 301 167 z "},"æ":{"ha":1156,"x_min":36,"x_max":1121,"o":"m 36 194 l 36 242 q 174 438 36 397 q 285 449 214 450 q 401 449 356 449 q 447 450 447 449 q 449 485 449 474 q 447 497 449 497 q 426 566 447 551 q 353 581 406 581 q 61 564 300 581 l 61 701 q 203 742 129 732 q 389 753 278 753 q 589 703 532 750 q 678 736 631 728 q 797 744 725 744 q 917 740 869 744 q 1007 719 965 735 q 1072 675 1049 704 q 1119 486 1119 614 q 1064 343 1119 383 q 908 306 1011 306 l 701 306 q 739 197 701 224 q 865 169 776 169 q 993 172 953 169 q 1106 185 1033 174 l 1106 33 q 978 6 1060 15 q 854 -5 897 -4 q 728 -6 811 -6 q 598 18 644 -6 q 519 90 551 42 q 418 26 506 58 q 260 -7 331 -7 q 92 56 149 -7 q 36 194 36 118 m 329 169 q 447 222 396 169 l 447 318 l 317 307 q 264 238 264 303 l 264 225 q 283 176 264 185 q 319 169 297 169 l 329 169 m 810 581 l 800 581 q 753 578 767 581 q 724 564 739 576 q 705 527 708 551 q 701 480 701 503 q 701 450 701 457 l 839 450 q 878 463 864 450 q 892 503 892 476 q 890 544 892 529 q 878 567 888 558 q 854 578 868 576 q 810 581 840 581 z "},"ç":{"ha":683,"x_min":46,"x_max":647,"o":"m 394 -8 l 300 -7 q 289 -8 294 -7 q 65 186 111 -8 q 47 352 47 261 q 55 501 47 443 q 78 599 63 558 q 115 669 94 640 q 164 714 136 697 q 289 744 217 744 q 638 697 507 744 l 638 561 q 451 569 526 569 q 361 568 375 569 q 329 561 347 567 q 303 543 311 556 q 288 508 296 531 q 275 391 275 471 q 279 276 275 311 q 291 219 283 242 q 315 186 299 196 q 401 168 343 168 q 615 178 517 168 l 647 181 l 647 42 q 525 0 586 6 q 394 -8 446 -8 m 308 -53 l 453 -53 q 418 -206 453 -161 q 292 -251 383 -251 l 211 -251 l 211 -157 l 268 -136 q 302 -109 296 -124 q 308 -53 308 -94 z "},"è":{"ha":729,"x_min":46,"x_max":693,"o":"m 143 1022 l 328 1022 l 444 828 l 307 828 l 143 1022 m 436 168 q 678 183 576 168 l 678 32 q 551 3 632 13 q 426 -6 469 -6 q 289 -7 383 -7 q 100 81 153 -7 q 47 372 47 168 q 63 563 47 490 q 120 675 79 635 q 218 729 161 715 q 353 743 275 743 q 473 740 432 743 q 553 726 514 736 q 617 699 593 717 q 658 650 640 681 q 692 472 692 596 q 571 292 692 324 q 481 281 532 281 l 275 281 q 303 189 275 208 q 385 168 332 169 q 415 168 397 168 q 436 168 432 168 m 413 435 q 458 458 446 435 q 464 492 464 469 q 462 531 464 515 q 451 558 460 547 q 393 578 438 578 q 331 574 349 578 q 297 557 313 571 q 274 449 274 535 q 275 435 274 442 l 413 435 z "},"é":{"ha":729,"x_min":46,"x_max":693,"o":"m 304 828 l 421 1022 l 606 1022 l 442 828 l 304 828 m 436 168 q 678 183 576 168 l 678 32 q 551 3 632 13 q 426 -6 469 -6 q 289 -7 383 -7 q 100 81 153 -7 q 47 372 47 168 q 63 563 47 490 q 120 675 79 635 q 218 729 161 715 q 353 743 275 743 q 473 740 432 743 q 553 726 514 736 q 617 699 593 717 q 658 650 640 681 q 692 472 692 596 q 571 292 692 324 q 481 281 532 281 l 275 281 q 303 189 275 208 q 385 168 332 169 q 415 168 397 168 q 436 168 432 168 m 413 435 q 458 458 446 435 q 464 492 464 469 q 462 531 464 515 q 451 558 460 547 q 393 578 438 578 q 331 574 349 578 q 297 557 313 571 q 274 449 274 535 q 275 435 274 442 l 413 435 z "},"ê":{"ha":729,"x_min":46,"x_max":693,"o":"m 147 828 l 292 1019 l 453 1019 l 585 828 l 444 828 l 368 906 l 289 828 l 147 828 m 436 168 q 678 183 576 168 l 678 32 q 551 3 632 13 q 426 -6 469 -6 q 289 -7 383 -7 q 100 81 153 -7 q 47 372 47 168 q 63 563 47 490 q 120 675 79 635 q 218 729 161 715 q 353 743 275 743 q 473 740 432 743 q 553 726 514 736 q 617 699 593 717 q 658 650 640 681 q 692 472 692 596 q 571 292 692 324 q 481 281 532 281 l 275 281 q 303 189 275 208 q 385 168 332 169 q 415 168 397 168 q 436 168 432 168 m 413 435 q 458 458 446 435 q 464 492 464 469 q 462 531 464 515 q 451 558 460 547 q 393 578 438 578 q 331 574 349 578 q 297 557 313 571 q 274 449 274 535 q 275 435 274 442 l 413 435 z "},"ë":{"ha":729,"x_min":46,"x_max":693,"o":"m 128 853 q 115 866 128 853 q 103 915 103 879 q 128 975 103 950 q 188 1000 153 1000 q 249 975 224 1000 q 274 915 274 950 q 249 853 274 879 q 188 828 224 828 q 128 853 153 828 m 481 853 q 468 866 481 853 q 456 915 456 879 q 481 975 456 950 q 542 1000 507 1000 q 603 975 578 1000 q 628 915 628 950 q 603 853 628 879 q 542 828 578 828 q 481 853 507 828 m 436 168 q 678 183 576 168 l 678 32 q 551 3 632 13 q 426 -6 469 -6 q 289 -7 383 -7 q 100 81 153 -7 q 47 372 47 168 q 63 563 47 490 q 120 675 79 635 q 218 729 161 715 q 353 743 275 743 q 473 740 432 743 q 553 726 514 736 q 617 699 593 717 q 658 650 640 681 q 692 472 692 596 q 571 292 692 324 q 481 281 532 281 l 275 281 q 303 189 275 208 q 385 168 332 169 q 415 168 397 168 q 436 168 432 168 m 413 435 q 458 458 446 435 q 464 492 464 469 q 462 531 464 515 q 451 558 460 547 q 393 578 438 578 q 331 574 349 578 q 297 557 313 571 q 274 449 274 535 q 275 435 274 442 l 413 435 z "},"ì":{"ha":339,"x_min":-62,"x_max":285,"o":"m -62 1022 l 122 1022 l 239 828 l 101 828 l -62 1022 m 56 0 l 56 738 l 283 738 l 283 0 l 56 0 z "},"í":{"ha":339,"x_min":56,"x_max":403,"o":"m 101 828 l 219 1022 l 403 1022 l 239 828 l 101 828 m 56 0 l 56 738 l 283 738 l 283 0 l 56 0 z "},"î":{"ha":339,"x_min":-49,"x_max":389,"o":"m -49 828 l 97 1019 l 258 1019 l 389 828 l 249 828 l 172 906 l 93 828 l -49 828 m 56 0 l 56 738 l 283 738 l 283 0 l 56 0 z "},"ï":{"ha":339,"x_min":-93,"x_max":433,"o":"m -67 853 q -80 866 -67 853 q -93 915 -93 879 q -67 975 -93 950 q -6 1000 -42 1000 q 54 975 29 1000 q 79 915 79 950 q 54 853 79 879 q -6 828 29 828 q -67 853 -42 828 m 287 853 q 274 866 287 853 q 261 915 261 879 q 287 975 261 950 q 348 1000 313 1000 q 408 975 383 1000 q 433 915 433 950 q 408 853 433 879 q 348 828 383 828 q 287 853 313 828 m 56 0 l 56 738 l 283 738 l 283 0 l 56 0 z "},"ð":{"ha":751,"x_min":36,"x_max":715,"o":"m 300 0 q 98 89 160 0 q 36 363 36 178 q 100 643 36 549 q 300 738 164 738 l 356 738 q 464 728 439 738 q 392 844 443 800 l 250 772 l 208 850 l 290 892 q 190 904 242 904 q 118 903 138 904 l 118 1088 q 497 1003 364 1088 l 613 1061 l 656 982 l 574 942 q 685 710 656 851 q 714 367 714 568 q 450 0 714 0 l 300 0 m 297 519 q 289 513 297 519 q 272 472 281 507 q 264 351 264 436 q 280 238 264 267 q 344 210 296 210 l 408 210 q 473 240 460 210 q 486 372 486 269 q 474 503 486 475 q 408 531 461 531 l 344 531 q 297 519 314 531 z "},"ñ":{"ha":767,"x_min":56,"x_max":722,"o":"m 472 968 q 594 1022 532 968 l 629 931 q 474 833 551 833 q 390 858 440 833 q 308 882 340 882 q 251 871 276 882 q 185 833 225 860 l 149 917 q 318 1017 231 1017 q 396 992 351 1017 q 472 968 442 968 m 56 0 l 56 738 l 243 738 l 283 661 q 343 706 322 692 q 408 735 364 721 q 510 750 451 750 q 614 730 569 750 q 681 671 658 710 q 722 483 722 601 l 722 0 l 494 0 l 494 486 q 464 567 494 550 q 414 575 450 575 q 283 517 340 575 l 283 0 l 56 0 z "},"ò":{"ha":774,"x_min":46,"x_max":728,"o":"m 158 1022 l 342 1022 l 460 828 l 322 828 l 158 1022 m 47 358 q 81 593 47 510 q 185 710 114 676 q 388 744 257 744 q 653 661 579 744 q 728 365 728 578 q 655 72 728 151 q 390 -7 582 -7 q 122 76 197 -7 q 47 358 47 158 m 276 457 q 276 433 276 457 q 275 340 275 408 q 285 233 275 272 q 317 181 296 193 q 379 169 339 169 q 436 172 419 169 q 467 184 453 175 q 488 215 482 193 q 500 340 500 261 q 497 452 500 418 q 489 512 494 486 q 469 549 483 538 q 344 567 431 579 q 293 533 308 561 q 276 457 278 506 z "},"ó":{"ha":774,"x_min":46,"x_max":728,"o":"m 318 828 l 436 1022 l 619 1022 l 456 828 l 318 828 m 47 358 q 81 593 47 510 q 185 710 114 676 q 388 744 257 744 q 653 661 579 744 q 728 365 728 578 q 655 72 728 151 q 390 -7 582 -7 q 122 76 197 -7 q 47 358 47 158 m 276 457 q 276 433 276 457 q 275 340 275 408 q 285 233 275 272 q 317 181 296 193 q 379 169 339 169 q 436 172 419 169 q 467 184 453 175 q 488 215 482 193 q 500 340 500 261 q 497 452 500 418 q 489 512 494 486 q 469 549 483 538 q 344 567 431 579 q 293 533 308 561 q 276 457 278 506 z "},"ô":{"ha":774,"x_min":46,"x_max":728,"o":"m 171 828 l 315 1019 l 476 1019 l 607 828 l 467 828 l 392 906 l 313 828 l 171 828 m 47 358 q 81 593 47 510 q 185 710 114 676 q 388 744 257 744 q 653 661 579 744 q 728 365 728 578 q 655 72 728 151 q 390 -7 582 -7 q 122 76 197 -7 q 47 358 47 158 m 276 457 q 276 433 276 457 q 275 340 275 408 q 285 233 275 272 q 317 181 296 193 q 379 169 339 169 q 436 172 419 169 q 467 184 453 175 q 488 215 482 193 q 500 340 500 261 q 497 452 500 418 q 489 512 494 486 q 469 549 483 538 q 344 567 431 579 q 293 533 308 561 q 276 457 278 506 z "},"õ":{"ha":774,"x_min":46,"x_max":728,"o":"m 474 963 q 596 1017 533 963 l 631 925 q 475 828 553 828 q 392 852 442 828 q 310 876 342 876 q 252 865 278 876 q 186 828 226 854 l 150 911 q 319 1011 232 1011 q 397 986 353 1011 q 474 963 443 963 m 47 358 q 81 593 47 510 q 185 710 114 676 q 388 744 257 744 q 653 661 579 744 q 728 365 728 578 q 655 72 728 151 q 390 -7 582 -7 q 122 76 197 -7 q 47 358 47 158 m 276 457 q 276 433 276 457 q 275 340 275 408 q 285 233 275 272 q 317 181 296 193 q 379 169 339 169 q 436 172 419 169 q 467 184 453 175 q 488 215 482 193 q 500 340 500 261 q 497 452 500 418 q 489 512 494 486 q 469 549 483 538 q 344 567 431 579 q 293 533 308 561 q 276 457 278 506 z "},"ö":{"ha":774,"x_min":46,"x_max":728,"o":"m 210 828 q 193 828 210 828 q 150 853 175 828 q 125 908 125 879 q 136 957 125 938 q 204 1000 161 1000 q 272 975 247 1000 q 296 915 296 950 q 271 853 296 879 q 210 828 246 828 m 505 853 q 492 866 505 853 q 479 915 479 879 q 504 975 479 950 q 565 1000 529 1000 q 625 975 600 1000 q 650 915 650 950 q 625 853 650 879 q 565 828 600 828 q 505 853 531 828 m 47 358 q 81 593 47 510 q 185 710 114 676 q 388 744 257 744 q 653 661 579 744 q 728 365 728 578 q 655 72 728 151 q 390 -7 582 -7 q 122 76 197 -7 q 47 358 47 158 m 276 457 q 276 433 276 457 q 275 340 275 408 q 285 233 275 272 q 317 181 296 193 q 379 169 339 169 q 436 172 419 169 q 467 184 453 175 q 488 215 482 193 q 500 340 500 261 q 497 452 500 418 q 489 512 494 486 q 469 549 483 538 q 344 567 431 579 q 293 533 308 561 q 276 457 278 506 z "},"÷":{"ha":682,"x_min":46,"x_max":636,"o":"m 47 397 l 47 583 l 636 583 l 636 397 l 47 397 m 246 206 l 246 306 q 279 339 246 339 l 393 339 q 428 306 428 339 l 428 206 q 393 174 428 174 l 279 174 q 255 183 264 174 q 246 206 246 192 m 246 667 l 246 767 q 279 800 246 800 l 393 800 q 428 767 428 800 l 428 667 q 393 635 428 635 l 279 635 q 249 654 256 635 q 246 667 246 660 z "},"ø":{"ha":814,"x_min":46,"x_max":764,"o":"m 125 96 q 67 344 67 178 q 101 593 67 510 q 206 710 135 676 q 414 744 278 744 q 622 703 550 744 l 650 738 l 764 738 l 688 644 q 749 356 749 561 q 676 72 749 151 q 408 -7 603 -7 q 189 38 264 -7 l 158 0 l 47 0 l 125 96 m 302 495 q 300 482 302 495 q 296 439 297 469 q 294 367 294 408 q 303 307 294 325 l 490 544 q 408 569 471 569 q 338 558 356 569 q 314 533 321 546 q 302 495 307 521 m 322 197 q 353 175 333 181 q 406 169 372 169 q 457 172 440 169 q 488 184 474 175 q 508 215 503 193 q 521 336 521 261 q 513 436 521 411 l 322 197 z "},"ù":{"ha":767,"x_min":46,"x_max":713,"o":"m 150 1022 l 333 1022 l 451 828 l 314 828 l 150 1022 m 47 256 l 47 738 l 275 738 l 275 250 q 304 171 275 188 q 354 164 318 164 q 483 222 428 164 l 483 738 l 711 738 l 711 0 l 525 0 l 483 75 q 446 51 469 67 q 408 26 422 35 q 371 7 393 17 q 264 -12 329 -12 q 154 8 199 -12 q 88 67 110 28 q 47 256 47 136 z "},"ú":{"ha":767,"x_min":46,"x_max":713,"o":"m 311 828 l 428 1022 l 611 1022 l 447 828 l 311 828 m 47 256 l 47 738 l 275 738 l 275 250 q 304 171 275 188 q 354 164 318 164 q 483 222 428 164 l 483 738 l 711 738 l 711 0 l 525 0 l 483 75 q 446 51 469 67 q 408 26 422 35 q 371 7 393 17 q 264 -12 329 -12 q 154 8 199 -12 q 88 67 110 28 q 47 256 47 136 z "},"û":{"ha":767,"x_min":46,"x_max":713,"o":"m 161 828 l 306 1019 l 467 1019 l 597 828 l 457 828 l 382 906 l 303 828 l 161 828 m 47 256 l 47 738 l 275 738 l 275 250 q 304 171 275 188 q 354 164 318 164 q 483 222 428 164 l 483 738 l 711 738 l 711 0 l 525 0 l 483 75 q 446 51 469 67 q 408 26 422 35 q 371 7 393 17 q 264 -12 329 -12 q 154 8 199 -12 q 88 67 110 28 q 47 256 47 136 z "},"ü":{"ha":767,"x_min":46,"x_max":713,"o":"m 142 853 q 129 866 142 853 q 117 915 117 879 q 142 975 117 950 q 203 1000 167 1000 q 263 975 239 1000 q 288 915 288 950 q 263 853 288 879 q 202 828 238 828 q 142 853 167 828 m 497 853 q 484 866 497 853 q 471 915 471 879 q 496 975 471 950 q 556 1000 521 1000 q 617 975 592 1000 q 642 915 642 950 q 617 853 642 879 q 557 828 592 828 q 497 853 522 828 m 47 256 l 47 738 l 275 738 l 275 250 q 304 171 275 188 q 354 164 318 164 q 483 222 428 164 l 483 738 l 711 738 l 711 0 l 525 0 l 483 75 q 446 51 469 67 q 408 26 422 35 q 371 7 393 17 q 264 -12 329 -12 q 154 8 199 -12 q 88 67 110 28 q 47 256 47 136 z "},"ý":{"ha":815,"x_min":19,"x_max":793,"o":"m 338 828 l 454 1022 l 639 1022 l 475 828 l 338 828 m 19 738 l 257 738 l 365 243 q 433 189 378 193 l 558 738 l 792 738 l 561 -233 l 461 -375 l 296 -375 l 390 0 q 151 200 201 0 l 19 738 z "},"þ":{"ha":774,"x_min":64,"x_max":738,"o":"m 65 -375 l 65 1086 l 293 1086 l 293 658 q 497 739 392 739 q 679 646 622 739 q 736 364 736 553 q 669 51 736 135 q 496 -19 613 -19 q 293 31 379 -19 l 293 -375 l 65 -375 m 472 165 q 481 172 472 165 q 499 225 489 179 q 508 369 508 271 q 489 508 508 467 q 428 550 469 550 q 293 510 339 549 l 293 175 q 428 151 338 154 q 472 165 456 151 z "},"ÿ":{"ha":815,"x_min":19,"x_max":793,"o":"m 230 828 q 212 828 230 828 q 169 853 194 828 q 143 908 143 879 q 154 957 143 938 q 223 1000 181 1000 q 290 975 265 1000 q 314 915 314 950 q 290 853 314 879 q 230 828 265 828 m 523 853 q 510 866 523 853 q 497 915 497 879 q 523 975 497 950 q 584 1000 549 1000 q 644 975 619 1000 q 669 915 669 950 q 644 853 669 879 q 584 828 619 828 q 523 853 549 828 m 19 738 l 257 738 l 365 243 q 433 189 378 193 l 558 738 l 792 738 l 561 -233 l 461 -375 l 296 -375 l 390 0 q 151 200 201 0 l 19 738 z "},"Ā":{"ha":972,"x_min":42,"x_max":958,"o":"m 303 1107 l 303 1225 l 708 1225 l 708 1107 l 303 1107 m 42 0 l 374 1017 l 638 1017 l 958 0 l 721 0 l 654 204 l 347 204 l 281 0 l 42 0 m 403 401 l 604 401 l 508 725 l 403 401 z "},"ā":{"ha":721,"x_min":36,"x_max":676,"o":"m 171 835 l 171 953 l 576 953 l 576 835 l 171 835 m 36 193 l 36 257 q 90 406 36 347 q 250 465 144 465 q 401 465 356 465 q 447 465 447 465 q 447 496 449 494 q 426 563 447 549 q 342 578 406 578 q 61 563 278 578 l 61 700 q 206 740 131 729 q 406 751 282 751 q 603 697 531 751 q 675 506 675 643 l 675 0 l 494 0 l 447 78 q 382 23 436 54 q 263 -8 328 -8 q 92 54 149 -8 q 36 193 36 117 m 329 167 q 447 219 396 167 l 447 332 l 317 321 q 264 251 264 317 l 264 228 q 286 175 264 185 q 329 167 301 167 z "},"Ă":{"ha":972,"x_min":42,"x_max":958,"o":"m 346 1265 l 432 1265 q 451 1213 432 1232 q 504 1193 471 1193 q 579 1265 579 1193 l 665 1265 q 644 1182 665 1218 q 504 1107 601 1107 q 390 1151 435 1107 q 346 1265 346 1194 m 42 0 l 374 1017 l 638 1017 l 958 0 l 721 0 l 654 204 l 347 204 l 281 0 l 42 0 m 403 401 l 604 401 l 508 725 l 403 401 z "},"ă":{"ha":721,"x_min":36,"x_max":676,"o":"m 214 993 l 300 993 q 319 940 300 960 q 372 921 339 921 q 447 993 447 921 l 533 993 q 513 910 533 946 q 372 835 469 835 q 258 878 303 835 q 214 993 214 922 m 36 193 l 36 257 q 90 406 36 347 q 250 465 144 465 q 401 465 356 465 q 447 465 447 465 q 447 496 449 494 q 426 563 447 549 q 342 578 406 578 q 61 563 278 578 l 61 700 q 206 740 131 729 q 406 751 282 751 q 603 697 531 751 q 675 506 675 643 l 675 0 l 494 0 l 447 78 q 382 23 436 54 q 263 -8 328 -8 q 92 54 149 -8 q 36 193 36 117 m 329 167 q 447 219 396 167 l 447 332 l 317 321 q 264 251 264 317 l 264 228 q 286 175 264 185 q 329 167 301 167 z "},"Ą":{"ha":972,"x_min":42,"x_max":958,"o":"m 888 1 q 826 -84 826 -43 q 865 -140 826 -125 q 901 -146 882 -147 l 901 -260 q 867 -265 882 -265 q 831 -263 851 -265 q 786 -244 810 -261 q 711 -121 711 -194 q 801 1 711 -47 l 888 1 m 42 0 l 374 1017 l 638 1017 l 958 0 l 721 0 l 654 204 l 347 204 l 281 0 l 42 0 m 403 401 l 604 401 l 508 725 l 403 401 z "},"ą":{"ha":721,"x_min":36,"x_max":676,"o":"m 632 0 q 571 -85 571 -43 q 610 -142 571 -126 q 647 -147 628 -149 l 647 -261 q 611 -267 626 -267 q 575 -264 596 -267 q 531 -246 554 -261 q 456 -122 456 -196 q 547 0 456 -49 l 632 0 m 36 193 l 36 257 q 90 406 36 347 q 250 465 144 465 q 401 465 356 465 q 447 465 447 465 q 447 496 449 494 q 426 563 447 549 q 342 578 406 578 q 61 563 278 578 l 61 700 q 206 740 131 729 q 406 751 282 751 q 603 697 531 751 q 675 506 675 643 l 675 0 l 494 0 l 447 78 q 382 23 436 54 q 263 -8 328 -8 q 92 54 149 -8 q 36 193 36 117 m 329 167 q 447 219 396 167 l 447 332 l 317 321 q 264 251 264 317 l 264 228 q 286 175 264 185 q 329 167 301 167 z "},"Ć":{"ha":790,"x_min":51,"x_max":760,"o":"m 393 1111 l 511 1306 l 694 1306 l 531 1111 l 393 1111 m 51 511 q 67 730 51 639 q 122 890 83 821 q 400 1028 197 1028 q 598 1017 524 1028 q 760 978 672 1007 l 760 800 q 750 801 760 800 q 724 803 740 801 q 685 808 707 806 q 637 813 664 810 q 582 817 610 815 q 475 821 519 821 q 411 819 431 821 q 369 810 392 817 q 335 791 347 804 q 310 756 322 778 q 292 700 299 733 q 279 478 279 624 q 316 265 279 332 q 464 199 353 199 q 718 207 593 199 l 760 211 l 760 33 q 439 -8 643 -8 q 400 -8 419 -8 q 129 129 210 -6 q 51 511 51 258 z "},"ć":{"ha":683,"x_min":46,"x_max":647,"o":"m 315 829 l 433 1024 l 617 1024 l 453 829 l 315 829 m 394 -8 l 300 -7 q 289 -7 294 -7 q 65 186 111 -7 q 47 369 47 261 q 65 553 47 478 q 115 669 82 628 q 289 744 178 744 q 638 697 508 744 l 638 561 q 453 569 526 569 q 367 568 379 569 q 338 563 354 567 q 313 552 321 560 q 297 531 306 544 q 283 494 288 517 q 275 368 275 439 q 280 259 275 297 q 301 200 285 221 q 340 174 318 179 q 411 169 361 169 q 615 178 517 169 l 647 181 l 647 43 q 525 0 586 6 q 394 -8 446 -8 z "},"Ĉ":{"ha":790,"x_min":51,"x_max":760,"o":"m 242 1111 l 386 1303 l 547 1303 l 678 1111 l 539 1111 l 463 1189 l 383 1111 l 242 1111 m 51 511 q 67 730 51 639 q 122 890 83 821 q 400 1028 197 1028 q 598 1017 524 1028 q 760 978 672 1007 l 760 800 q 750 801 760 800 q 724 803 740 801 q 685 808 707 806 q 637 813 664 810 q 582 817 610 815 q 475 821 519 821 q 411 819 431 821 q 369 810 392 817 q 335 791 347 804 q 310 756 322 778 q 292 700 299 733 q 279 478 279 624 q 316 265 279 332 q 464 199 353 199 q 718 207 593 199 l 760 211 l 760 33 q 439 -8 643 -8 q 400 -8 419 -8 q 129 129 210 -6 q 51 511 51 258 z "},"ĉ":{"ha":683,"x_min":46,"x_max":647,"o":"m 150 828 l 294 1019 l 456 1019 l 586 828 l 446 828 l 371 906 l 292 828 l 150 828 m 394 -8 l 300 -7 q 289 -7 294 -7 q 65 186 111 -7 q 47 369 47 261 q 65 553 47 478 q 115 669 82 628 q 289 744 178 744 q 638 697 508 744 l 638 561 q 453 569 526 569 q 367 568 379 569 q 338 563 354 567 q 313 552 321 560 q 297 531 306 544 q 283 494 288 517 q 275 368 275 439 q 280 259 275 297 q 301 200 285 221 q 340 174 318 179 q 411 169 361 169 q 615 178 517 169 l 647 181 l 647 43 q 525 0 586 6 q 394 -8 446 -8 z "},"Ċ":{"ha":790,"x_min":51,"x_max":760,"o":"m 367 1144 l 367 1261 q 400 1294 367 1294 l 511 1294 q 535 1285 526 1294 q 544 1261 544 1275 l 544 1144 q 511 1111 544 1111 l 400 1111 q 376 1120 386 1111 q 367 1144 367 1129 m 51 511 q 67 730 51 639 q 122 890 83 821 q 400 1028 197 1028 q 598 1017 524 1028 q 760 978 672 1007 l 760 800 q 750 801 760 800 q 724 803 740 801 q 685 808 707 806 q 637 813 664 810 q 582 817 610 815 q 475 821 519 821 q 411 819 431 821 q 369 810 392 817 q 335 791 347 804 q 310 756 322 778 q 292 700 299 733 q 279 478 279 624 q 316 265 279 332 q 464 199 353 199 q 718 207 593 199 l 760 211 l 760 33 q 439 -8 643 -8 q 400 -8 419 -8 q 129 129 210 -6 q 51 511 51 258 z "},"ċ":{"ha":683,"x_min":46,"x_max":647,"o":"m 301 861 l 301 978 q 335 1013 301 1013 l 446 1013 q 469 1003 461 1013 q 478 978 478 993 l 478 861 q 446 829 478 829 l 335 829 q 311 838 321 829 q 301 861 301 847 m 394 -8 l 300 -7 q 289 -7 294 -7 q 65 186 111 -7 q 47 369 47 261 q 65 553 47 478 q 115 669 82 628 q 289 744 178 744 q 638 697 508 744 l 638 561 q 453 569 526 569 q 367 568 379 569 q 338 563 354 567 q 313 552 321 560 q 297 531 306 544 q 283 494 288 517 q 275 368 275 439 q 280 259 275 297 q 301 200 285 221 q 340 174 318 179 q 411 169 361 169 q 615 178 517 169 l 647 181 l 647 43 q 525 0 586 6 q 394 -8 446 -8 z "},"Č":{"ha":790,"x_min":51,"x_max":760,"o":"m 254 1303 l 394 1303 l 474 1225 l 550 1303 l 690 1303 l 550 1111 l 389 1111 l 254 1303 m 51 511 q 67 730 51 639 q 122 890 83 821 q 400 1028 197 1028 q 598 1017 524 1028 q 760 978 672 1007 l 760 800 q 750 801 760 800 q 724 803 740 801 q 685 808 707 806 q 637 813 664 810 q 582 817 610 815 q 475 821 519 821 q 411 819 431 821 q 369 810 392 817 q 335 791 347 804 q 310 756 322 778 q 292 700 299 733 q 279 478 279 624 q 316 265 279 332 q 464 199 353 199 q 718 207 593 199 l 760 211 l 760 33 q 439 -8 643 -8 q 400 -8 419 -8 q 129 129 210 -6 q 51 511 51 258 z "},"č":{"ha":683,"x_min":46,"x_max":647,"o":"m 160 1019 l 300 1019 l 379 942 l 454 1019 l 596 1019 l 456 829 l 294 829 l 160 1019 m 394 -8 l 300 -7 q 289 -7 294 -7 q 65 186 111 -7 q 47 369 47 261 q 65 553 47 478 q 115 669 82 628 q 289 744 178 744 q 638 697 508 744 l 638 561 q 453 569 526 569 q 367 568 379 569 q 338 563 354 567 q 313 552 321 560 q 297 531 306 544 q 283 494 288 517 q 275 368 275 439 q 280 259 275 297 q 301 200 285 221 q 340 174 318 179 q 411 169 361 169 q 615 178 517 169 l 647 181 l 647 43 q 525 0 586 6 q 394 -8 446 -8 z "},"Ď":{"ha":922,"x_min":74,"x_max":876,"o":"m 224 1296 l 364 1296 l 443 1218 l 519 1296 l 660 1296 l 519 1106 l 358 1106 l 224 1296 m 75 0 l 75 1017 l 526 1017 q 672 988 610 1017 q 773 914 735 960 q 835 800 811 868 q 876 504 876 682 q 526 0 876 0 l 75 0 m 303 197 l 506 197 q 615 274 582 197 q 649 492 649 350 q 631 704 649 633 q 583 797 613 775 q 506 819 554 819 l 303 819 l 303 197 z "},"ď":{"ha":871,"x_min":46,"x_max":938,"o":"m 47 348 q 47 436 47 348 q 67 591 47 524 q 114 688 88 658 q 285 749 171 749 q 492 703 399 749 l 492 1090 l 719 1090 l 719 0 l 528 0 l 492 72 q 277 -8 396 -8 q 103 82 158 -8 q 47 348 47 172 m 310 565 q 302 558 310 565 q 285 506 294 551 q 275 361 275 460 q 294 222 275 263 q 356 181 313 181 q 492 219 447 181 l 492 553 q 356 578 444 578 q 310 565 326 578 m 936 1086 l 936 992 l 922 806 l 806 806 l 792 992 l 792 1086 l 936 1086 z "},"Đ":{"ha":922,"x_min":-17,"x_max":876,"o":"m -15 469 l -15 567 l 75 567 l 75 1017 q 526 1017 75 1017 q 672 988 610 1017 q 773 914 735 960 q 835 800 811 868 q 876 504 876 682 q 526 0 876 0 l 75 0 l 75 469 l -15 469 m 303 197 l 506 197 q 615 274 582 197 q 647 476 647 350 q 638 665 647 601 q 608 760 628 728 q 565 806 589 793 q 506 818 540 818 l 303 818 l 303 567 l 443 567 l 443 469 l 303 469 l 303 197 z "},"đ":{"ha":788,"x_min":40,"x_max":801,"o":"m 40 348 q 40 436 40 348 q 61 591 40 524 q 108 688 82 658 q 278 749 165 749 q 486 703 392 749 l 486 835 l 346 835 l 346 931 l 486 931 l 486 1090 l 714 1090 l 714 931 l 800 931 l 800 835 l 714 835 l 714 0 l 522 0 l 486 72 q 270 -8 389 -8 q 96 82 151 -8 q 40 348 40 172 m 305 565 q 297 558 305 565 q 278 506 289 551 q 268 361 268 460 q 288 222 268 263 q 349 181 307 181 q 486 219 442 181 l 486 553 q 349 578 438 578 q 305 565 321 578 z "},"Ē":{"ha":788,"x_min":69,"x_max":758,"o":"m 226 1106 l 226 1225 l 632 1225 l 632 1106 l 226 1106 m 69 211 l 69 794 q 182 994 69 944 q 307 1017 235 1017 q 757 994 636 1011 l 757 804 l 369 804 q 306 779 318 804 q 297 726 297 760 l 297 611 l 692 597 l 692 408 l 297 396 l 297 281 q 326 217 297 228 q 383 208 347 208 l 757 208 l 757 19 q 356 -3 657 6 l 321 -4 q 294 -4 310 -4 q 255 -2 279 -4 q 194 13 231 0 q 131 47 157 25 q 88 112 106 69 q 69 211 69 154 z "},"ē":{"ha":729,"x_min":46,"x_max":693,"o":"m 174 828 l 174 946 l 579 946 l 579 828 l 174 828 m 436 168 q 678 183 576 168 l 678 32 q 551 3 632 13 q 426 -6 469 -6 q 289 -7 383 -7 q 100 81 153 -7 q 47 372 47 168 q 63 563 47 490 q 120 675 79 635 q 218 729 161 715 q 353 743 275 743 q 473 740 432 743 q 553 726 514 736 q 617 699 593 717 q 658 650 640 681 q 692 472 692 596 q 571 292 692 324 q 481 281 532 281 l 275 281 q 303 189 275 208 q 385 168 332 169 q 415 168 397 168 q 436 168 432 168 m 413 435 q 458 458 446 435 q 464 492 464 469 q 462 531 464 515 q 451 558 460 547 q 393 578 438 578 q 331 574 349 578 q 297 557 313 571 q 274 449 274 535 q 275 435 274 442 l 413 435 z "},"Ė":{"ha":788,"x_min":69,"x_max":758,"o":"m 365 1138 l 365 1254 q 399 1289 365 1289 l 510 1289 q 533 1279 525 1289 q 542 1254 542 1269 l 542 1138 q 510 1106 542 1106 l 399 1106 q 374 1115 383 1106 q 365 1138 365 1124 m 69 211 l 69 794 q 182 994 69 944 q 307 1017 235 1017 q 757 994 636 1011 l 757 804 l 369 804 q 306 779 318 804 q 297 726 297 760 l 297 611 l 692 597 l 692 408 l 297 396 l 297 281 q 326 217 297 228 q 383 208 347 208 l 757 208 l 757 19 q 356 -3 657 6 l 321 -4 q 294 -4 310 -4 q 255 -2 279 -4 q 194 13 231 0 q 131 47 157 25 q 88 112 106 69 q 69 211 69 154 z "},"ė":{"ha":729,"x_min":46,"x_max":693,"o":"m 288 860 l 288 976 q 321 1011 288 1011 l 432 1011 q 456 1001 447 1011 q 464 976 464 992 l 464 860 q 432 828 464 828 l 321 828 q 297 837 307 828 q 288 860 288 846 m 436 168 q 678 183 576 168 l 678 32 q 551 3 632 13 q 426 -6 469 -6 q 289 -7 383 -7 q 100 81 153 -7 q 47 372 47 168 q 63 563 47 490 q 120 675 79 635 q 218 729 161 715 q 353 743 275 743 q 473 740 432 743 q 553 726 514 736 q 617 699 593 717 q 658 650 640 681 q 692 472 692 596 q 571 292 692 324 q 481 281 532 281 l 275 281 q 303 189 275 208 q 385 168 332 169 q 415 168 397 168 q 436 168 432 168 m 413 435 q 458 458 446 435 q 464 492 464 469 q 462 531 464 515 q 451 558 460 547 q 393 578 438 578 q 331 574 349 578 q 297 557 313 571 q 274 449 274 535 q 275 435 274 442 l 413 435 z "},"Ę":{"ha":788,"x_min":69,"x_max":772,"o":"m 757 21 q 696 -65 696 -24 q 735 -122 696 -106 q 772 -126 753 -129 l 772 -242 q 736 -247 751 -247 q 700 -244 721 -247 q 656 -226 679 -242 q 581 -103 581 -176 q 672 21 581 -29 l 757 21 m 69 211 l 69 794 q 182 994 69 944 q 307 1017 235 1017 q 757 994 636 1011 l 757 804 l 369 804 q 306 779 318 804 q 297 726 297 760 l 297 611 l 692 597 l 692 408 l 297 396 l 297 281 q 326 217 297 228 q 383 208 347 208 l 757 208 l 757 19 q 356 -3 657 6 l 321 -4 q 294 -4 310 -4 q 255 -2 279 -4 q 194 13 231 0 q 131 47 157 25 q 88 112 106 69 q 69 211 69 154 z "},"ę":{"ha":729,"x_min":46,"x_max":693,"o":"m 678 32 q 618 -53 618 -12 q 656 -110 618 -94 q 693 -115 674 -117 l 693 -231 q 658 -235 674 -235 q 622 -233 643 -235 q 576 -214 601 -231 q 501 -90 501 -164 q 593 32 501 -17 l 678 32 m 436 168 q 678 183 576 168 l 678 32 q 551 3 632 13 q 426 -6 469 -6 q 289 -7 383 -7 q 100 81 153 -7 q 47 372 47 168 q 63 563 47 490 q 120 675 79 635 q 218 729 161 715 q 353 743 275 743 q 473 740 432 743 q 553 726 514 736 q 617 699 593 717 q 658 650 640 681 q 692 472 692 596 q 571 292 692 324 q 481 281 532 281 l 275 281 q 303 189 275 208 q 385 168 332 169 q 415 168 397 168 q 436 168 432 168 m 413 435 q 458 458 446 435 q 464 492 464 469 q 462 531 464 515 q 451 558 460 547 q 393 578 438 578 q 331 574 349 578 q 297 557 313 571 q 274 449 274 535 q 275 435 274 442 l 413 435 z "},"Ě":{"ha":788,"x_min":69,"x_max":758,"o":"m 228 1296 l 368 1296 l 447 1218 l 522 1296 l 664 1296 l 524 1106 l 363 1106 l 228 1296 m 69 211 l 69 794 q 182 994 69 944 q 307 1017 235 1017 q 757 994 636 1011 l 757 804 l 369 804 q 306 779 318 804 q 297 726 297 760 l 297 611 l 692 597 l 692 408 l 297 396 l 297 281 q 326 217 297 228 q 383 208 347 208 l 757 208 l 757 19 q 356 -3 657 6 l 321 -4 q 294 -4 310 -4 q 255 -2 279 -4 q 194 13 231 0 q 131 47 157 25 q 88 112 106 69 q 69 211 69 154 z "},"ě":{"ha":729,"x_min":46,"x_max":693,"o":"m 164 1017 l 304 1017 l 383 939 l 460 1017 l 600 1017 l 461 826 l 300 826 l 164 1017 m 436 168 q 678 183 576 168 l 678 32 q 551 3 632 13 q 426 -6 469 -6 q 289 -7 383 -7 q 100 81 153 -7 q 47 372 47 168 q 63 563 47 490 q 120 675 79 635 q 218 729 161 715 q 353 743 275 743 q 473 740 432 743 q 553 726 514 736 q 617 699 593 717 q 658 650 640 681 q 692 472 692 596 q 571 292 692 324 q 481 281 532 281 l 275 281 q 303 189 275 208 q 385 168 332 169 q 415 168 397 168 q 436 168 432 168 m 413 435 q 458 458 446 435 q 464 492 464 469 q 462 531 464 515 q 451 558 460 547 q 393 578 438 578 q 331 574 349 578 q 297 557 313 571 q 274 449 274 535 q 275 435 274 442 l 413 435 z "},"Ĝ":{"ha":853,"x_min":51,"x_max":804,"o":"m 244 1111 l 389 1303 l 550 1303 l 681 1111 l 540 1111 l 465 1189 l 386 1111 l 244 1111 m 85 203 q 74 239 85 203 q 58 347 64 275 q 51 515 51 418 q 60 684 51 611 q 90 824 68 757 q 149 935 111 892 q 378 1028 229 1028 q 598 1019 526 1028 q 790 981 669 1011 l 790 804 q 778 806 789 804 q 748 810 767 807 q 705 815 729 813 q 650 821 681 818 q 588 826 619 824 q 449 831 517 831 q 312 764 344 831 q 279 511 279 697 q 306 264 279 318 q 376 210 328 219 q 438 204 400 204 q 510 220 475 204 q 561 251 546 236 l 575 268 l 575 415 l 467 415 l 467 558 q 708 592 539 592 q 803 589 753 592 l 803 0 l 642 0 l 578 68 q 533 29 556 43 q 360 -7 478 -7 q 142 86 215 -7 q 85 203 106 131 z "},"ĝ":{"ha":782,"x_min":42,"x_max":764,"o":"m 169 828 l 314 1019 l 475 1019 l 606 828 l 465 828 l 389 906 l 311 828 l 169 828 m 43 136 q 131 272 43 242 q 82 328 101 292 q 49 478 49 390 q 310 740 49 740 l 764 740 l 764 611 l 693 586 q 713 508 711 539 q 715 438 715 476 q 703 360 715 400 q 665 285 692 321 q 454 207 607 207 l 300 207 q 251 198 257 207 q 244 172 244 189 q 300 144 244 144 l 501 144 q 672 88 611 144 q 733 -83 733 32 l 733 -161 q 677 -316 733 -257 q 494 -375 621 -375 l 286 -375 q 117 -321 182 -375 q 53 -161 53 -267 l 53 -76 l 121 -17 q 66 38 89 -1 q 43 136 43 78 m 282 -129 q 315 -194 282 -185 q 358 -200 331 -200 l 439 -200 q 497 -179 486 -200 q 507 -133 507 -164 l 507 -90 q 443 -33 507 -33 l 339 -33 l 282 -31 l 282 -129 m 302 551 q 293 545 302 551 q 281 522 285 539 q 276 474 276 506 q 283 422 276 443 q 351 383 299 383 l 408 383 q 470 404 453 383 q 488 476 488 425 q 468 545 488 526 q 407 564 449 564 l 351 564 q 302 551 319 564 z "},"Ğ":{"ha":853,"x_min":51,"x_max":804,"o":"m 289 1269 l 375 1269 q 394 1217 375 1236 q 447 1197 414 1197 q 522 1269 522 1197 l 608 1269 q 588 1186 608 1222 q 447 1111 544 1111 q 333 1155 378 1111 q 289 1269 289 1199 m 85 203 q 74 239 85 203 q 58 347 64 275 q 51 515 51 418 q 60 684 51 611 q 90 824 68 757 q 149 935 111 892 q 378 1028 229 1028 q 598 1019 526 1028 q 790 981 669 1011 l 790 804 q 778 806 789 804 q 748 810 767 807 q 705 815 729 813 q 650 821 681 818 q 588 826 619 824 q 449 831 517 831 q 312 764 344 831 q 279 511 279 697 q 306 264 279 318 q 376 210 328 219 q 438 204 400 204 q 510 220 475 204 q 561 251 546 236 l 575 268 l 575 415 l 467 415 l 467 558 q 708 592 539 592 q 803 589 753 592 l 803 0 l 642 0 l 578 68 q 533 29 556 43 q 360 -7 478 -7 q 142 86 215 -7 q 85 203 106 131 z "},"ğ":{"ha":782,"x_min":42,"x_max":764,"o":"m 229 986 l 315 986 q 335 933 315 953 q 388 914 354 914 q 463 986 463 914 l 549 986 q 528 903 549 939 q 388 828 485 828 q 274 872 318 828 q 229 986 229 915 m 43 136 q 131 272 43 242 q 82 328 101 292 q 49 478 49 390 q 310 740 49 740 l 764 740 l 764 611 l 693 586 q 713 508 711 539 q 715 438 715 476 q 703 360 715 400 q 665 285 692 321 q 454 207 607 207 l 300 207 q 251 198 257 207 q 244 172 244 189 q 300 144 244 144 l 501 144 q 672 88 611 144 q 733 -83 733 32 l 733 -161 q 677 -316 733 -257 q 494 -375 621 -375 l 286 -375 q 117 -321 182 -375 q 53 -161 53 -267 l 53 -76 l 121 -17 q 66 38 89 -1 q 43 136 43 78 m 282 -129 q 315 -194 282 -185 q 358 -200 331 -200 l 439 -200 q 497 -179 486 -200 q 507 -133 507 -164 l 507 -90 q 443 -33 507 -33 l 339 -33 l 282 -31 l 282 -129 m 302 551 q 293 545 302 551 q 281 522 285 539 q 276 474 276 506 q 283 422 276 443 q 351 383 299 383 l 408 383 q 470 404 453 383 q 488 476 488 425 q 468 545 488 526 q 407 564 449 564 l 351 564 q 302 551 319 564 z "},"Ġ":{"ha":853,"x_min":51,"x_max":804,"o":"m 364 1143 l 364 1260 q 397 1294 364 1294 l 508 1294 q 532 1285 524 1294 q 540 1260 540 1275 l 540 1143 q 508 1111 540 1111 l 397 1111 q 373 1120 382 1111 q 364 1143 364 1129 m 85 203 q 74 239 85 203 q 58 347 64 275 q 51 515 51 418 q 60 684 51 611 q 90 824 68 757 q 149 935 111 892 q 378 1028 229 1028 q 598 1019 526 1028 q 790 981 669 1011 l 790 804 q 778 806 789 804 q 748 810 767 807 q 705 815 729 813 q 650 821 681 818 q 588 826 619 824 q 449 831 517 831 q 312 764 344 831 q 279 511 279 697 q 306 264 279 318 q 376 210 328 219 q 438 204 400 204 q 510 220 475 204 q 561 251 546 236 l 575 268 l 575 415 l 467 415 l 467 558 q 708 592 539 592 q 803 589 753 592 l 803 0 l 642 0 l 578 68 q 533 29 556 43 q 360 -7 478 -7 q 142 86 215 -7 q 85 203 106 131 z "},"ġ":{"ha":782,"x_min":42,"x_max":764,"o":"m 303 861 l 303 978 q 336 1013 303 1013 l 447 1013 q 472 1003 463 1013 q 481 978 481 993 l 481 861 q 447 829 481 829 l 336 829 q 313 838 322 829 q 303 861 303 846 m 43 136 q 131 272 43 242 q 82 328 101 292 q 49 478 49 390 q 310 740 49 740 l 764 740 l 764 611 l 693 586 q 713 508 711 539 q 715 438 715 476 q 703 360 715 400 q 665 285 692 321 q 454 207 607 207 l 300 207 q 251 198 257 207 q 244 172 244 189 q 300 144 244 144 l 501 144 q 672 88 611 144 q 733 -83 733 32 l 733 -161 q 677 -316 733 -257 q 494 -375 621 -375 l 286 -375 q 117 -321 182 -375 q 53 -161 53 -267 l 53 -76 l 121 -17 q 66 38 89 -1 q 43 136 43 78 m 282 -129 q 315 -194 282 -185 q 358 -200 331 -200 l 439 -200 q 497 -179 486 -200 q 507 -133 507 -164 l 507 -90 q 443 -33 507 -33 l 339 -33 l 282 -31 l 282 -129 m 302 551 q 293 545 302 551 q 281 522 285 539 q 276 474 276 506 q 283 422 276 443 q 351 383 299 383 l 408 383 q 470 404 453 383 q 488 476 488 425 q 468 545 488 526 q 407 564 449 564 l 351 564 q 302 551 319 564 z "},"Ģ":{"ha":853,"x_min":51,"x_max":804,"o":"m 340 -265 l 340 -142 q 371 -108 340 -108 l 492 -108 q 521 -142 521 -108 l 521 -310 q 503 -376 521 -351 q 460 -407 485 -401 q 406 -414 431 -414 q 364 -411 381 -414 l 346 -407 l 346 -339 q 383 -324 379 -339 q 385 -308 385 -318 l 385 -297 l 371 -297 q 340 -265 340 -297 m 85 203 q 74 239 85 203 q 58 347 64 275 q 51 515 51 418 q 60 684 51 611 q 90 824 68 757 q 149 935 111 892 q 378 1028 229 1028 q 598 1019 526 1028 q 790 981 669 1011 l 790 804 q 778 806 789 804 q 748 810 767 807 q 705 815 729 813 q 650 821 681 818 q 588 826 619 824 q 449 831 517 831 q 312 764 344 831 q 279 511 279 697 q 306 264 279 318 q 376 210 328 219 q 438 204 400 204 q 510 220 475 204 q 561 251 546 236 l 575 268 l 575 415 l 467 415 l 467 558 q 708 592 539 592 q 803 589 753 592 l 803 0 l 642 0 l 578 68 q 533 29 556 43 q 360 -7 478 -7 q 142 86 215 -7 q 85 203 106 131 z "},"ģ":{"ha":782,"x_min":42,"x_max":764,"o":"m 400 1131 q 468 1122 439 1131 l 468 1054 q 432 1039 436 1056 q 429 1025 429 1033 l 429 1013 l 443 1013 q 475 981 475 1013 l 475 857 q 443 824 475 824 l 324 824 q 293 857 293 824 l 293 1026 q 328 1110 293 1086 q 397 1131 360 1131 l 400 1131 m 43 135 q 131 272 43 251 q 82 328 101 292 q 49 478 49 390 q 310 740 49 740 l 764 740 l 764 610 l 693 585 q 713 508 711 539 q 715 438 715 476 q 703 360 715 400 q 665 285 692 321 q 454 207 607 207 l 300 207 q 292 207 299 207 q 278 206 285 207 q 263 203 272 206 q 244 176 244 199 q 249 158 244 163 q 256 153 254 154 q 261 150 257 151 q 267 148 265 149 q 275 147 269 147 q 283 145 281 146 q 292 144 285 144 q 300 143 299 143 l 504 121 q 671 67 614 110 q 733 -115 733 17 l 733 -161 q 677 -316 733 -257 q 494 -375 621 -375 l 286 -375 q 85 -281 144 -375 q 53 -161 53 -232 l 53 -65 l 132 -8 q 43 135 43 36 m 282 -129 q 299 -186 282 -172 q 358 -200 317 -200 l 439 -200 q 497 -179 486 -200 q 507 -135 507 -164 l 507 -111 q 436 -57 507 -64 l 343 -47 l 282 -40 l 282 -129 m 276 478 q 351 372 276 372 l 408 372 q 469 399 451 372 q 488 480 488 425 q 469 555 488 535 q 407 575 450 575 l 351 575 q 289 543 304 575 q 276 478 276 518 z "},"Ĥ":{"ha":883,"x_min":74,"x_max":829,"o":"m 233 1107 l 378 1297 l 539 1297 l 669 1107 l 531 1107 l 454 1185 l 375 1107 l 233 1107 m 75 0 l 75 1017 l 303 1017 l 303 594 l 601 594 l 601 1017 l 829 1017 l 829 0 l 601 0 l 601 389 l 303 389 l 303 0 l 75 0 z "},"ĥ":{"ha":767,"x_min":-124,"x_max":642,"o":"m -122 1169 l 22 1361 l 183 1361 l 314 1169 l 174 1169 l 97 1247 l 19 1169 l -122 1169 m -24 0 l -24 1086 l 203 1086 l 203 661 q 351 743 288 729 q 436 750 383 750 q 533 730 489 750 q 601 671 578 710 q 642 483 642 601 l 642 0 l 414 0 l 414 486 q 397 555 414 535 q 340 575 381 575 q 204 517 260 575 l 204 0 l -24 0 z "},"Ħ":{"ha":968,"x_min":18,"x_max":950,"o":"m 18 717 l 18 813 l 107 813 l 107 1017 l 335 1017 l 335 813 l 633 813 l 633 1017 l 861 1017 l 861 813 l 950 813 l 950 717 l 861 717 l 861 0 l 633 0 l 633 389 l 335 389 l 335 0 l 107 0 l 107 717 l 18 717 m 335 594 l 633 594 l 633 717 l 335 717 l 335 594 z "},"ħ":{"ha":793,"x_min":-7,"x_max":749,"o":"m -6 836 l -6 933 l 83 933 l 83 1086 l 311 1086 l 311 933 l 457 933 l 457 836 l 311 836 l 311 661 q 349 687 322 669 q 390 713 376 704 q 471 744 439 739 q 518 750 503 750 q 535 750 533 750 q 538 750 536 750 q 710 671 665 750 q 749 483 749 603 l 749 0 l 519 0 l 519 486 q 503 555 519 535 q 453 575 488 575 q 313 517 367 574 l 313 0 l 83 0 l 83 836 l -6 836 z "},"Ĩ":{"ha":357,"x_min":-51,"x_max":429,"o":"m 272 1242 q 394 1296 332 1242 l 428 1204 q 274 1107 351 1107 q 190 1131 240 1107 q 108 1156 140 1156 q 51 1144 76 1156 q -17 1107 25 1133 l -51 1192 q 118 1290 29 1290 q 183 1274 157 1290 q 272 1242 235 1242 m 75 0 l 75 1017 l 303 1017 l 303 0 l 75 0 z "},"ĩ":{"ha":339,"x_min":-71,"x_max":411,"o":"m 253 963 q 375 1017 314 963 l 410 925 q 254 828 333 828 q 171 852 221 828 q 90 876 121 876 q 32 865 58 876 q -35 828 6 854 l -69 911 q 100 1011 11 1011 q 178 986 132 1011 q 253 963 224 963 m 56 0 l 56 738 l 283 738 l 283 0 l 56 0 z "},"Ī":{"ha":357,"x_min":-15,"x_max":392,"o":"m -14 1107 l -14 1225 l 392 1225 l 392 1107 l -14 1107 m 75 0 l 75 1017 l 303 1017 l 303 0 l 75 0 z "},"ī":{"ha":339,"x_min":-33,"x_max":374,"o":"m -33 828 l -33 947 l 372 947 l 372 828 l -33 828 m 56 0 l 56 738 l 283 738 l 283 0 l 56 0 z "},"Į":{"ha":357,"x_min":65,"x_max":303,"o":"m 243 0 q 182 -85 182 -43 q 219 -142 182 -126 q 257 -147 238 -149 l 257 -261 q 222 -267 238 -267 q 186 -264 207 -267 q 140 -246 165 -261 q 65 -122 65 -196 q 157 0 65 -49 l 243 0 m 75 0 l 75 1017 l 303 1017 l 303 0 l 75 0 z "},"į":{"ha":331,"x_min":38,"x_max":285,"o":"m 214 0 q 154 -85 154 -43 q 192 -142 154 -126 q 229 -147 210 -149 l 229 -261 q 194 -267 210 -267 q 158 -264 178 -267 q 113 -246 138 -261 q 38 -122 38 -196 q 129 0 38 -49 l 214 0 m 47 843 l 47 983 q 81 1019 47 1019 l 253 1019 q 285 983 285 1019 l 285 843 q 253 811 285 811 l 81 811 q 56 820 65 811 q 47 843 47 829 m 51 0 l 51 738 l 279 738 l 279 0 l 51 0 z "},"İ":{"ha":357,"x_min":74,"x_max":303,"o":"m 100 1139 l 100 1256 q 133 1290 100 1290 l 244 1290 q 268 1281 260 1290 q 276 1256 276 1271 l 276 1139 q 244 1107 276 1107 l 133 1107 q 110 1116 119 1107 q 100 1139 100 1125 m 75 0 l 75 1017 l 303 1017 l 303 0 l 75 0 z "},"ı":{"ha":339,"x_min":56,"x_max":285,"o":"m 56 0 l 56 738 l 283 738 l 283 0 l 56 0 z "},"Ĵ":{"ha":494,"x_min":32,"x_max":544,"o":"m 107 1107 l 251 1297 l 413 1297 l 544 1107 l 403 1107 l 328 1185 l 249 1107 l 107 1107 m 365 25 q 204 -7 314 -7 q 33 33 94 -7 l 35 213 q 81 211 60 211 q 128 213 103 211 q 174 228 153 214 q 211 344 211 254 l 211 1017 l 439 1017 l 439 229 q 365 25 439 72 z "},"ĵ":{"ha":350,"x_min":-37,"x_max":400,"o":"m -36 826 l 108 1028 l 268 1028 l 400 826 l 263 826 l 182 911 l 101 826 l -36 826 m 68 -375 l 68 738 l 297 738 l 297 -6 q 297 -28 297 -17 q 240 -375 297 -257 l 68 -375 z "},"Ķ":{"ha":892,"x_min":74,"x_max":861,"o":"m 421 -408 q 353 -400 382 -407 l 353 -332 q 385 -325 379 -332 q 392 -303 392 -314 l 392 -289 l 378 -289 q 346 -258 346 -289 l 346 -135 q 378 -101 346 -101 l 497 -101 q 528 -135 528 -101 l 528 -303 q 493 -386 528 -362 q 424 -408 461 -408 l 421 -408 m 75 0 l 75 1017 l 292 1017 l 292 603 l 363 603 l 597 1017 l 861 1017 l 564 507 l 861 0 l 597 0 l 363 406 l 293 406 l 293 0 l 75 0 z "},"ķ":{"ha":803,"x_min":56,"x_max":786,"o":"m 300 -258 l 300 -135 q 331 -101 300 -101 l 451 -101 q 481 -135 481 -101 l 481 -303 q 463 -369 481 -344 q 419 -400 444 -394 q 365 -407 390 -407 q 324 -404 340 -407 l 306 -400 l 306 -332 q 343 -317 339 -332 q 344 -303 344 -311 l 344 -289 l 331 -289 q 300 -258 300 -289 m 56 0 l 56 1086 l 283 1086 l 283 496 l 319 496 l 501 738 l 786 738 l 528 414 l 786 0 l 517 0 l 319 331 l 283 331 l 283 0 l 56 0 z "},"ĸ":{"ha":815,"x_min":56,"x_max":799,"o":"m 56 0 l 56 738 l 285 738 l 285 447 l 339 447 l 526 738 l 797 738 l 544 367 l 768 0 l 506 0 l 333 283 l 286 283 l 285 0 l 56 0 z "},"Ĺ":{"ha":740,"x_min":74,"x_max":710,"o":"m 119 1107 l 238 1303 l 421 1303 l 257 1107 l 119 1107 m 75 206 l 75 1017 l 303 1017 l 303 279 q 332 215 303 226 q 389 207 353 207 l 710 207 l 710 0 l 294 0 q 135 48 196 0 q 75 206 75 96 z "},"ĺ":{"ha":442,"x_min":56,"x_max":425,"o":"m 113 1171 l 229 1367 l 414 1367 l 250 1171 l 113 1171 m 56 263 l 56 1088 l 283 1088 l 283 304 q 298 206 283 233 q 342 165 313 179 q 425 136 415 136 l 425 0 l 250 0 q 103 60 151 0 q 56 263 56 121 z "},"Ļ":{"ha":740,"x_min":74,"x_max":710,"o":"m 310 -253 l 310 -129 q 342 -96 310 -96 l 461 -96 q 492 -129 492 -96 l 492 -299 q 474 -364 492 -339 q 429 -396 456 -389 q 376 -403 401 -403 q 335 -399 350 -403 l 317 -394 l 317 -326 q 353 -311 349 -328 q 354 -297 354 -306 l 354 -285 l 342 -285 q 310 -253 310 -285 m 75 206 l 75 1017 l 303 1017 l 303 279 q 332 215 303 226 q 389 207 353 207 l 710 207 l 710 0 l 294 0 q 135 48 196 0 q 75 206 75 96 z "},"ļ":{"ha":442,"x_min":56,"x_max":425,"o":"m 150 -254 l 150 -131 q 181 -97 150 -97 l 300 -97 q 331 -131 331 -97 l 331 -299 q 313 -365 331 -340 q 269 -396 294 -390 q 215 -403 240 -403 q 174 -400 189 -403 l 156 -396 l 156 -328 q 193 -312 188 -328 q 194 -297 194 -307 l 194 -286 l 181 -286 q 150 -254 150 -286 m 56 263 l 56 1088 l 283 1088 l 283 304 q 298 206 283 233 q 342 165 313 179 q 425 136 415 136 l 425 0 l 250 0 q 103 60 151 0 q 56 263 56 121 z "},"Ľ":{"ha":740,"x_min":74,"x_max":710,"o":"m 75 206 l 75 1017 l 303 1017 l 303 279 q 332 215 303 226 q 389 207 353 207 l 710 207 l 710 0 l 294 0 q 135 48 196 0 q 75 206 75 96 m 381 1072 l 525 1072 l 525 979 l 511 793 l 397 793 l 381 979 l 381 1072 z "},"ľ":{"ha":526,"x_min":56,"x_max":514,"o":"m 56 263 l 56 1088 l 283 1088 l 283 304 q 310 186 283 213 q 368 156 321 175 q 425 136 415 136 l 425 0 l 250 0 q 102 60 149 0 q 56 263 56 119 m 369 1086 l 514 1086 l 514 993 l 500 807 l 383 807 l 369 993 l 369 1086 z "},"Ł":{"ha":799,"x_min":28,"x_max":769,"o":"m 133 1017 l 361 1017 l 361 664 l 504 725 l 504 619 l 361 558 l 361 279 q 390 215 361 226 q 447 207 413 207 l 769 207 l 769 0 l 354 0 q 194 48 256 0 q 133 206 133 96 l 133 461 l 28 417 l 28 522 l 133 567 l 133 1017 z "},"ł":{"ha":510,"x_min":14,"x_max":492,"o":"m 117 1088 l 344 1088 l 344 722 l 492 786 l 490 681 l 344 617 l 344 304 q 358 206 344 233 q 403 165 372 179 q 485 136 475 136 l 485 0 l 311 0 q 165 60 213 0 q 117 263 117 121 l 117 521 l 15 478 l 15 583 l 117 625 l 117 1088 z "},"Ń":{"ha":940,"x_min":74,"x_max":886,"o":"m 415 1107 l 532 1303 l 717 1303 l 553 1107 l 415 1107 m 75 0 l 75 1017 l 306 1017 l 658 421 l 658 1017 l 886 1017 l 886 0 l 658 0 l 304 586 l 304 0 l 75 0 z "},"ń":{"ha":767,"x_min":56,"x_max":722,"o":"m 319 833 l 436 1028 l 621 1028 l 457 833 l 319 833 m 56 0 l 56 738 l 243 738 l 283 661 q 343 706 322 692 q 408 735 364 721 q 510 750 451 750 q 614 730 569 750 q 681 671 658 710 q 722 483 722 601 l 722 0 l 494 0 l 494 486 q 464 567 494 550 q 414 575 450 575 q 283 517 340 575 l 283 0 l 56 0 z "},"Ņ":{"ha":940,"x_min":74,"x_max":886,"o":"m 458 -408 q 389 -400 419 -407 l 389 -332 q 421 -325 417 -332 q 428 -303 428 -314 l 428 -289 l 414 -289 q 383 -258 383 -289 l 383 -135 q 414 -101 383 -101 l 535 -101 q 564 -135 564 -101 l 564 -303 q 529 -386 564 -362 q 460 -408 497 -408 l 458 -408 m 75 0 l 75 1017 l 306 1017 l 658 421 l 658 1017 l 886 1017 l 886 0 l 658 0 l 304 586 l 304 0 l 75 0 z "},"ņ":{"ha":767,"x_min":56,"x_max":722,"o":"m 292 -258 l 292 -135 q 324 -101 292 -101 l 443 -101 q 474 -135 474 -101 l 474 -303 q 456 -369 474 -344 q 411 -400 438 -394 q 358 -407 383 -407 q 317 -404 332 -407 l 299 -400 l 299 -332 q 335 -317 331 -332 q 336 -303 336 -311 l 336 -289 l 324 -289 q 292 -258 292 -289 m 56 0 l 56 738 l 243 738 l 283 661 q 343 706 322 692 q 408 735 364 721 q 510 750 451 750 q 614 730 569 750 q 681 671 658 710 q 722 483 722 601 l 722 0 l 494 0 l 494 486 q 464 567 494 550 q 414 575 450 575 q 283 517 340 575 l 283 0 l 56 0 z "},"Ň":{"ha":940,"x_min":74,"x_max":886,"o":"m 265 1297 l 406 1297 l 485 1219 l 561 1297 l 703 1297 l 563 1107 l 401 1107 l 265 1297 m 75 0 l 75 1017 l 306 1017 l 658 421 l 658 1017 l 886 1017 l 886 0 l 658 0 l 304 586 l 304 0 l 75 0 z "},"ň":{"ha":767,"x_min":56,"x_max":722,"o":"m 175 1025 l 315 1025 l 394 947 l 469 1025 l 611 1025 l 471 833 l 310 833 l 175 1025 m 56 0 l 56 738 l 243 738 l 283 661 q 343 706 322 692 q 408 735 364 721 q 510 750 451 750 q 614 730 569 750 q 681 671 658 710 q 722 483 722 601 l 722 0 l 494 0 l 494 486 q 464 567 494 550 q 414 575 450 575 q 283 517 340 575 l 283 0 l 56 0 z "},"Ŋ":{"ha":940,"x_min":74,"x_max":886,"o":"m 863 -222 q 852 -249 863 -222 q 803 -301 840 -275 q 718 -344 765 -328 q 628 -360 671 -360 q 515 -357 585 -360 l 515 -194 q 538 -193 519 -194 q 569 -190 556 -192 q 603 -181 582 -187 q 633 -164 624 -175 q 658 -86 658 -137 l 658 0 l 304 586 l 303 0 l 75 0 l 75 1017 l 306 1017 l 658 425 l 658 1017 l 886 1017 l 886 -96 q 863 -222 886 -169 z "},"ŋ":{"ha":776,"x_min":56,"x_max":722,"o":"m 56 0 l 56 738 l 243 738 l 283 661 q 330 692 296 669 q 379 724 364 715 q 501 750 432 750 q 614 730 569 750 q 681 671 658 710 q 722 483 722 601 l 722 0 l 719 -83 q 697 -201 719 -149 q 644 -284 675 -254 q 571 -335 613 -314 q 431 -372 503 -368 l 379 -247 q 474 -187 456 -221 q 494 -89 492 -151 l 494 486 q 464 567 494 550 q 414 575 450 575 q 283 517 340 575 l 283 0 l 56 0 z "},"Ō":{"ha":929,"x_min":61,"x_max":889,"o":"m 272 1107 l 272 1225 l 678 1225 l 678 1107 l 272 1107 m 71 321 q 66 368 71 321 q 61 508 61 415 q 72 680 61 601 q 102 813 83 758 q 151 907 121 868 q 214 968 182 946 q 292 1003 246 990 q 449 1024 365 1024 q 574 1019 533 1024 q 662 1003 615 1015 q 740 968 708 990 q 801 907 771 946 q 850 814 832 868 q 889 501 889 693 q 824 144 889 269 q 717 36 790 78 q 475 -6 642 -6 q 235 33 306 -6 q 126 138 158 74 q 71 321 81 226 m 315 738 q 309 720 315 738 q 296 646 303 703 q 289 517 289 589 q 291 406 289 446 q 298 333 293 367 q 313 278 303 300 q 335 241 322 257 q 369 217 349 225 q 471 201 410 201 q 565 213 532 201 q 622 259 599 225 q 653 350 644 293 q 661 497 661 407 q 655 642 661 588 q 637 733 649 697 q 601 787 625 769 q 550 810 578 804 q 476 817 522 817 q 403 812 429 817 q 351 790 376 807 q 315 738 326 772 z "},"ō":{"ha":774,"x_min":46,"x_max":728,"o":"m 185 828 l 185 947 l 590 947 l 590 828 l 185 828 m 47 358 q 81 593 47 510 q 185 710 114 676 q 388 744 257 744 q 653 661 579 744 q 728 365 728 578 q 655 72 728 151 q 390 -7 582 -7 q 122 76 197 -7 q 47 358 47 158 m 276 457 q 276 433 276 457 q 275 340 275 408 q 285 233 275 272 q 317 181 296 193 q 379 169 339 169 q 436 172 419 169 q 467 184 453 175 q 488 215 482 193 q 500 340 500 261 q 497 452 500 418 q 489 512 494 486 q 469 549 483 538 q 344 567 431 579 q 293 533 308 561 q 276 457 278 506 z "},"Ő":{"ha":929,"x_min":61,"x_max":889,"o":"m 293 1107 l 411 1303 l 594 1303 l 431 1107 l 293 1107 m 519 1107 l 638 1303 l 822 1303 l 658 1107 l 519 1107 m 71 321 q 66 368 71 321 q 61 508 61 415 q 72 680 61 601 q 102 813 83 758 q 151 907 121 868 q 214 968 182 946 q 292 1003 246 990 q 449 1024 365 1024 q 574 1019 533 1024 q 662 1003 615 1015 q 740 968 708 990 q 801 907 771 946 q 850 814 832 868 q 889 501 889 693 q 824 144 889 269 q 717 36 790 78 q 475 -6 642 -6 q 235 33 306 -6 q 126 138 158 74 q 71 321 81 226 m 315 738 q 309 720 315 738 q 296 646 303 703 q 289 517 289 589 q 291 406 289 446 q 298 333 293 367 q 313 278 303 300 q 335 241 322 257 q 369 217 349 225 q 471 201 410 201 q 565 213 532 201 q 622 259 599 225 q 653 350 644 293 q 661 497 661 407 q 655 642 661 588 q 637 733 649 697 q 601 787 625 769 q 550 810 578 804 q 476 817 522 817 q 403 812 429 817 q 351 790 376 807 q 315 738 326 772 z "},"ő":{"ha":774,"x_min":46,"x_max":733,"o":"m 206 828 l 322 1022 l 506 1022 l 342 828 l 206 828 m 432 828 l 550 1022 l 733 1022 l 569 828 l 432 828 m 47 358 q 81 593 47 510 q 185 710 114 676 q 388 744 257 744 q 653 661 579 744 q 728 365 728 578 q 655 72 728 151 q 390 -7 582 -7 q 122 76 197 -7 q 47 358 47 158 m 276 457 q 276 433 276 457 q 275 340 275 408 q 285 233 275 272 q 317 181 296 193 q 379 169 339 169 q 436 172 419 169 q 467 184 453 175 q 488 215 482 193 q 500 340 500 261 q 497 452 500 418 q 489 512 494 486 q 469 549 483 538 q 344 567 431 579 q 293 533 308 561 q 276 457 278 506 z "},"Œ":{"ha":1378,"x_min":61,"x_max":1328,"o":"m 363 799 q 345 790 363 799 q 308 713 328 781 q 289 479 289 644 q 324 258 289 314 q 475 201 358 201 q 588 225 550 201 q 643 313 626 249 q 660 482 660 376 q 653 642 660 588 q 636 733 647 697 q 601 787 625 769 q 549 810 578 804 q 460 817 521 817 q 363 799 399 817 m 61 511 q 75 706 61 618 q 117 849 89 793 q 180 941 146 906 q 265 994 214 976 q 475 1024 349 1024 q 644 1007 588 1024 q 732 967 700 990 q 879 1017 785 1017 q 897 1017 888 1017 q 1328 994 1206 1011 l 1328 804 l 960 804 q 897 779 908 804 q 888 726 888 760 l 888 611 l 1261 597 l 1261 408 l 888 396 l 888 281 q 917 217 888 228 q 974 208 939 208 l 1328 208 l 1328 19 q 992 -1 1232 7 l 911 -4 q 885 -6 897 -6 q 725 47 779 -6 q 475 -6 646 -6 q 206 49 282 -6 q 100 199 131 101 q 61 511 61 315 z "},"œ":{"ha":1182,"x_min":46,"x_max":1146,"o":"m 47 358 q 81 593 47 510 q 185 710 114 676 q 396 744 257 744 q 606 694 535 744 q 822 743 667 743 q 1069 699 1013 743 q 1138 576 1124 657 q 1144 468 1144 533 q 1119 360 1144 403 q 1049 299 1094 317 q 933 281 1003 281 l 728 281 q 758 189 726 208 q 846 168 789 169 q 918 168 858 168 q 1131 183 1029 168 l 1131 32 q 1003 3 1085 13 q 879 -6 922 -6 q 742 -7 836 -7 q 600 36 649 -7 q 388 -7 529 -7 q 122 76 197 -7 q 47 358 47 158 m 281 495 q 279 482 281 495 q 276 439 276 469 q 275 340 275 408 q 285 233 275 272 q 317 181 296 193 q 375 169 339 169 q 428 172 411 169 q 457 178 444 174 q 477 194 469 182 q 490 219 485 207 q 496 257 494 231 q 500 399 500 300 q 481 534 500 499 q 388 569 461 569 q 317 558 335 569 q 293 533 300 546 q 281 495 286 521 m 865 435 q 911 458 899 435 q 917 506 917 469 q 903 560 917 543 q 845 578 889 578 q 783 574 801 578 q 731 513 739 565 q 726 469 726 492 q 728 435 726 447 l 865 435 z "},"Ŕ":{"ha":850,"x_min":67,"x_max":836,"o":"m 361 1106 l 478 1300 l 663 1300 l 499 1106 l 361 1106 m 67 0 l 67 1017 l 515 1017 q 731 943 653 1017 q 808 696 808 869 q 765 479 808 547 q 714 422 739 438 q 651 393 685 406 l 836 0 l 578 0 l 426 374 l 294 393 l 294 0 l 67 0 m 296 568 l 489 568 q 560 594 542 568 q 578 692 578 621 q 557 791 578 763 q 489 819 536 819 l 296 819 l 296 568 z "},"ŕ":{"ha":575,"x_min":56,"x_max":547,"o":"m 240 828 l 357 1024 l 542 1024 l 378 828 l 240 828 m 56 0 l 56 738 l 253 738 l 283 644 q 348 705 318 688 q 394 729 378 722 q 478 744 432 744 q 547 736 525 744 l 547 518 q 441 519 506 519 q 340 504 376 519 q 283 438 303 489 l 283 0 l 56 0 z "},"Ŗ":{"ha":850,"x_min":67,"x_max":836,"o":"m 324 -251 l 324 -128 q 356 -93 324 -93 l 475 -93 q 506 -128 506 -93 l 506 -296 q 488 -362 506 -337 q 443 -393 469 -386 q 390 -400 415 -400 q 349 -397 364 -400 l 331 -392 l 331 -324 q 368 -308 363 -325 q 369 -294 369 -304 l 369 -282 l 356 -282 q 324 -251 324 -282 m 67 0 l 67 1017 l 515 1017 q 731 943 653 1017 q 808 696 808 869 q 765 479 808 547 q 714 422 739 438 q 651 393 685 406 l 836 0 l 578 0 l 426 374 l 294 393 l 294 0 l 67 0 m 296 568 l 489 568 q 560 594 542 568 q 578 692 578 621 q 557 791 578 763 q 489 819 536 819 l 296 819 l 296 568 z "},"ŗ":{"ha":575,"x_min":47,"x_max":539,"o":"m 139 -408 q 71 -400 100 -407 l 71 -332 q 108 -317 103 -332 q 110 -303 110 -311 l 110 -289 l 96 -289 q 64 -258 64 -289 l 64 -135 q 96 -101 64 -101 l 215 -101 q 246 -135 246 -101 l 246 -303 q 211 -386 246 -362 q 142 -408 179 -408 l 139 -408 m 47 0 l 47 738 l 244 738 l 275 644 q 358 716 310 688 q 462 744 407 744 q 539 736 517 744 l 539 518 q 433 519 497 519 q 331 504 368 519 q 275 438 294 489 l 275 0 l 47 0 z "},"Ř":{"ha":850,"x_min":67,"x_max":836,"o":"m 214 1297 l 356 1297 l 433 1219 l 510 1297 l 651 1297 l 511 1107 l 350 1107 l 214 1297 m 67 0 l 67 1017 l 515 1017 q 731 943 653 1017 q 808 696 808 869 q 765 479 808 547 q 714 422 739 438 q 651 393 685 406 l 836 0 l 578 0 l 426 374 l 294 393 l 294 0 l 67 0 m 296 568 l 489 568 q 560 594 542 568 q 578 692 578 621 q 557 791 578 763 q 489 819 536 819 l 296 819 l 296 568 z "},"ř":{"ha":575,"x_min":56,"x_max":547,"o":"m 83 1019 l 224 1019 l 303 942 l 379 1019 l 519 1019 l 381 828 l 219 828 l 83 1019 m 56 0 l 56 738 l 253 738 l 283 644 q 348 705 318 688 q 394 729 378 722 q 478 744 432 744 q 547 736 525 744 l 547 518 q 441 519 506 519 q 340 504 376 519 q 283 438 303 489 l 283 0 l 56 0 z "},"Ś":{"ha":824,"x_min":61,"x_max":783,"o":"m 357 1110 l 475 1304 l 658 1304 l 494 1110 l 357 1110 m 61 671 l 61 757 q 336 1025 61 1019 q 394 1026 365 1026 q 746 982 614 1026 l 746 804 q 505 818 604 818 q 401 818 406 818 q 314 804 339 818 q 289 736 289 790 l 289 701 q 304 640 289 654 q 386 618 329 618 l 533 618 q 690 569 633 618 q 783 338 783 490 l 783 279 q 660 21 783 83 q 501 -11 594 -11 q 259 -3 338 -11 q 93 33 181 6 l 93 211 q 450 196 246 196 q 528 211 500 196 q 556 269 556 226 l 556 310 q 538 371 556 351 q 472 390 519 390 l 329 390 q 181 424 235 390 q 100 501 122 458 q 68 586 74 554 q 61 671 61 636 z "},"ś":{"ha":707,"x_min":36,"x_max":671,"o":"m 290 829 l 408 1025 l 592 1025 l 428 829 l 290 829 m 36 476 l 36 540 q 54 644 36 600 q 116 716 72 688 q 249 744 160 744 q 402 743 339 744 q 538 731 465 742 q 633 701 610 721 l 633 563 l 310 563 q 274 555 283 563 q 264 524 264 547 l 264 501 q 275 472 264 478 q 310 465 286 465 l 469 465 q 586 438 540 465 q 669 269 669 389 l 669 192 q 618 40 669 88 q 489 -7 567 -7 q 312 -6 378 -7 q 168 7 246 -4 q 67 39 90 18 l 67 176 l 404 176 q 442 213 442 176 l 442 235 q 434 263 442 254 q 404 272 426 272 l 250 272 q 36 476 36 272 z "},"Ŝ":{"ha":824,"x_min":61,"x_max":783,"o":"m 210 1110 l 354 1300 l 515 1300 l 646 1110 l 506 1110 l 431 1188 l 351 1110 l 210 1110 m 61 671 l 61 757 q 336 1025 61 1019 q 394 1026 365 1026 q 746 982 614 1026 l 746 804 q 505 818 604 818 q 401 818 406 818 q 314 804 339 818 q 289 736 289 790 l 289 701 q 304 640 289 654 q 386 618 329 618 l 533 618 q 690 569 633 618 q 783 338 783 490 l 783 279 q 660 21 783 83 q 501 -11 594 -11 q 259 -3 338 -11 q 93 33 181 6 l 93 211 q 450 196 246 196 q 528 211 500 196 q 556 269 556 226 l 556 310 q 538 371 556 351 q 472 390 519 390 l 329 390 q 181 424 235 390 q 100 501 122 458 q 68 586 74 554 q 61 671 61 636 z "},"ŝ":{"ha":707,"x_min":36,"x_max":671,"o":"m 138 828 l 282 1019 l 443 1019 l 574 828 l 433 828 l 358 906 l 279 828 l 138 828 m 36 476 l 36 540 q 54 644 36 600 q 116 716 72 688 q 249 744 160 744 q 402 743 339 744 q 538 731 465 742 q 633 701 610 721 l 633 563 l 310 563 q 274 555 283 563 q 264 524 264 547 l 264 501 q 275 472 264 478 q 310 465 286 465 l 469 465 q 586 438 540 465 q 669 269 669 389 l 669 192 q 618 40 669 88 q 489 -7 567 -7 q 312 -6 378 -7 q 168 7 246 -4 q 67 39 90 18 l 67 176 l 404 176 q 442 213 442 176 l 442 235 q 434 263 442 254 q 404 272 426 272 l 250 272 q 36 476 36 272 z "},"Ş":{"ha":824,"x_min":61,"x_max":783,"o":"m 369 -61 l 514 -61 q 479 -215 514 -169 q 353 -260 444 -260 l 272 -260 l 272 -164 l 329 -144 q 363 -117 357 -132 q 369 -61 369 -103 m 61 671 l 61 757 q 336 1025 61 1019 q 394 1026 365 1026 q 746 982 614 1026 l 746 804 q 505 818 604 818 q 401 818 406 818 q 314 804 339 818 q 289 736 289 790 l 289 701 q 304 640 289 654 q 386 618 329 618 l 533 618 q 690 569 633 618 q 783 338 783 490 l 783 279 q 660 21 783 83 q 501 -11 594 -11 q 259 -3 338 -11 q 93 33 181 6 l 93 211 q 450 196 246 196 q 528 211 500 196 q 556 269 556 226 l 556 310 q 538 371 556 351 q 472 390 519 390 l 329 390 q 181 424 235 390 q 100 501 122 458 q 68 586 74 554 q 61 671 61 636 z "},"ş":{"ha":707,"x_min":36,"x_max":671,"o":"m 178 -53 l 324 -53 q 288 -206 324 -161 q 163 -251 253 -251 l 81 -251 l 81 -156 l 138 -136 q 172 -109 165 -124 q 178 -53 178 -94 m 36 476 l 36 540 q 54 644 36 600 q 116 716 72 688 q 249 744 160 744 q 402 743 339 744 q 538 731 465 742 q 633 701 610 721 l 633 563 l 310 563 q 274 555 283 563 q 264 524 264 547 l 264 501 q 275 472 264 478 q 310 465 286 465 l 469 465 q 586 438 540 465 q 669 269 669 389 l 669 192 q 618 40 669 88 q 489 -7 567 -7 q 312 -6 378 -7 q 168 7 246 -4 q 67 39 90 18 l 67 176 l 404 176 q 442 213 442 176 l 442 235 q 434 263 442 254 q 404 272 426 272 l 250 272 q 36 476 36 272 z "},"Š":{"ha":824,"x_min":61,"x_max":783,"o":"m 214 1300 l 354 1300 l 433 1222 l 510 1300 l 651 1300 l 511 1110 l 350 1110 l 214 1300 m 61 671 l 61 757 q 336 1025 61 1019 q 394 1026 365 1026 q 746 982 614 1026 l 746 804 q 505 818 604 818 q 401 818 406 818 q 314 804 339 818 q 289 736 289 790 l 289 701 q 304 640 289 654 q 386 618 329 618 l 533 618 q 690 569 633 618 q 783 338 783 490 l 783 279 q 660 21 783 83 q 501 -11 594 -11 q 259 -3 338 -11 q 93 33 181 6 l 93 211 q 450 196 246 196 q 528 211 500 196 q 556 269 556 226 l 556 310 q 538 371 556 351 q 472 390 519 390 l 329 390 q 181 424 235 390 q 100 501 122 458 q 68 586 74 554 q 61 671 61 636 z "},"š":{"ha":707,"x_min":36,"x_max":671,"o":"m 144 1021 l 285 1021 l 364 943 l 440 1021 l 581 1021 l 442 829 l 281 829 l 144 1021 m 36 476 l 36 540 q 54 644 36 600 q 116 716 72 688 q 249 744 160 744 q 402 743 339 744 q 538 731 465 742 q 633 701 610 721 l 633 563 l 310 563 q 274 555 283 563 q 264 524 264 547 l 264 501 q 275 472 264 478 q 310 465 286 465 l 469 465 q 586 438 540 465 q 669 269 669 389 l 669 192 q 618 40 669 88 q 489 -7 567 -7 q 312 -6 378 -7 q 168 7 246 -4 q 67 39 90 18 l 67 176 l 404 176 q 442 213 442 176 l 442 235 q 434 263 442 254 q 404 272 426 272 l 250 272 q 36 476 36 272 z "},"Ţ":{"ha":832,"x_min":36,"x_max":806,"o":"m 188 -56 l 333 -56 q 298 -210 333 -164 q 172 -256 263 -256 l 90 -256 l 90 -160 l 147 -139 q 181 -112 175 -126 q 188 -56 188 -97 m 36 810 l 36 1017 l 804 1017 l 804 810 l 531 810 l 531 0 l 303 0 l 303 810 l 36 810 z "},"ţ":{"ha":532,"x_min":18,"x_max":506,"o":"m 158 -56 l 303 -56 q 268 -210 303 -165 q 142 -256 233 -256 l 61 -256 l 61 -161 l 118 -139 q 152 -113 146 -128 q 158 -56 158 -99 m 18 574 l 18 693 l 131 739 l 167 944 l 358 944 l 358 739 l 506 739 l 506 574 l 358 574 l 358 306 q 372 206 358 233 q 417 164 386 178 q 497 136 489 136 l 497 0 l 311 0 q 215 24 254 0 q 131 264 131 78 l 131 574 l 18 574 z "},"Ť":{"ha":832,"x_min":36,"x_max":806,"o":"m 199 1297 l 339 1297 l 418 1219 l 494 1297 l 636 1297 l 494 1107 l 333 1107 l 199 1297 m 36 810 l 36 1017 l 804 1017 l 804 810 l 531 810 l 531 0 l 303 0 l 303 810 l 36 810 z "},"ť":{"ha":597,"x_min":18,"x_max":574,"o":"m 18 574 l 18 693 l 131 739 l 167 944 l 358 944 l 358 739 l 506 739 l 506 574 l 358 574 l 358 306 q 372 206 358 233 q 417 164 386 178 q 497 136 489 136 l 497 0 l 311 0 q 215 24 254 0 q 131 264 131 78 l 131 574 l 18 574 m 574 1113 l 574 1019 l 558 833 l 444 833 l 429 1019 l 428 1113 l 574 1113 z "},"Ŧ":{"ha":815,"x_min":24,"x_max":792,"o":"m 24 810 l 24 1017 l 792 1017 l 792 810 l 517 810 l 517 596 l 642 596 l 642 500 l 517 500 l 517 0 l 289 0 l 289 500 l 164 500 l 164 596 l 289 596 l 289 810 l 24 810 z "},"ŧ":{"ha":524,"x_min":18,"x_max":506,"o":"m 18 574 l 18 693 l 131 739 l 167 944 l 358 944 l 358 739 l 506 739 l 506 574 l 358 574 l 358 447 l 461 447 l 461 351 l 358 351 l 358 306 q 383 185 358 210 q 441 155 394 174 q 494 136 488 136 l 494 0 l 311 0 q 176 61 221 0 q 131 264 131 122 l 131 351 l 39 351 l 39 447 l 131 447 l 131 574 l 18 574 z "},"Ũ":{"ha":917,"x_min":74,"x_max":863,"o":"m 551 1240 q 674 1294 611 1240 l 708 1203 q 553 1106 631 1106 q 469 1130 519 1106 q 388 1154 419 1154 q 330 1143 356 1154 q 264 1106 304 1132 l 228 1189 q 397 1289 310 1289 q 475 1264 431 1288 q 551 1240 521 1240 m 472 -7 l 451 -7 q 289 5 322 -7 q 224 32 256 17 q 174 69 192 47 q 134 126 156 92 q 101 206 113 161 q 75 444 75 311 l 75 1017 l 303 1017 l 303 444 q 309 326 303 371 q 335 252 315 282 q 386 211 354 222 q 472 200 418 200 q 599 253 565 200 q 633 444 633 307 l 633 1017 l 863 1017 l 863 444 q 761 79 863 174 q 697 29 725 46 q 622 4 668 13 q 472 -7 561 -7 z "},"ũ":{"ha":767,"x_min":46,"x_max":713,"o":"m 463 963 q 585 1017 522 963 l 619 925 q 464 828 542 828 q 381 852 431 828 q 299 876 331 876 q 241 865 267 876 q 175 828 215 854 l 139 911 q 308 1011 221 1011 q 386 986 342 1011 q 463 963 432 963 m 47 256 l 47 738 l 275 738 l 275 250 q 304 171 275 188 q 354 164 318 164 q 483 222 428 164 l 483 738 l 711 738 l 711 0 l 525 0 l 483 75 q 446 51 469 67 q 408 26 422 35 q 371 7 393 17 q 264 -12 329 -12 q 154 8 199 -12 q 88 67 110 28 q 47 256 47 136 z "},"Ū":{"ha":917,"x_min":74,"x_max":863,"o":"m 265 1107 l 265 1225 l 671 1225 l 671 1107 l 265 1107 m 472 -7 l 451 -7 q 289 5 322 -7 q 224 32 256 17 q 174 69 192 47 q 134 126 156 92 q 101 206 113 161 q 75 444 75 311 l 75 1017 l 303 1017 l 303 444 q 309 326 303 371 q 335 252 315 282 q 386 211 354 222 q 472 200 418 200 q 599 253 565 200 q 633 444 633 307 l 633 1017 l 863 1017 l 863 444 q 761 79 863 174 q 697 29 725 46 q 622 4 668 13 q 472 -7 561 -7 z "},"ū":{"ha":767,"x_min":46,"x_max":713,"o":"m 176 828 l 176 947 l 582 947 l 582 828 l 176 828 m 47 256 l 47 738 l 275 738 l 275 250 q 304 171 275 188 q 354 164 318 164 q 483 222 428 164 l 483 738 l 711 738 l 711 0 l 525 0 l 483 75 q 446 51 469 67 q 408 26 422 35 q 371 7 393 17 q 264 -12 329 -12 q 154 8 199 -12 q 88 67 110 28 q 47 256 47 136 z "},"Ŭ":{"ha":917,"x_min":74,"x_max":863,"o":"m 308 1265 l 394 1265 q 414 1213 394 1232 q 467 1193 433 1193 q 542 1265 542 1193 l 628 1265 q 607 1182 628 1218 q 467 1107 564 1107 q 353 1151 397 1107 q 308 1265 308 1194 m 472 -7 l 451 -7 q 289 5 322 -7 q 224 32 256 17 q 174 69 192 47 q 134 126 156 92 q 101 206 113 161 q 75 444 75 311 l 75 1017 l 303 1017 l 303 444 q 309 326 303 371 q 335 252 315 282 q 386 211 354 222 q 472 200 418 200 q 599 253 565 200 q 633 444 633 307 l 633 1017 l 863 1017 l 863 444 q 761 79 863 174 q 697 29 725 46 q 622 4 668 13 q 472 -7 561 -7 z "},"ŭ":{"ha":767,"x_min":46,"x_max":713,"o":"m 222 986 l 308 986 q 328 933 308 953 q 381 914 347 914 q 456 986 456 914 l 542 986 q 497 871 542 914 q 381 828 451 828 q 267 872 311 828 q 222 986 222 915 m 47 256 l 47 738 l 275 738 l 275 250 q 304 171 275 188 q 354 164 318 164 q 483 222 428 164 l 483 738 l 711 738 l 711 0 l 525 0 l 483 75 q 446 51 469 67 q 408 26 422 35 q 371 7 393 17 q 264 -12 329 -12 q 154 8 199 -12 q 88 67 110 28 q 47 256 47 136 z "},"Ů":{"ha":917,"x_min":74,"x_max":863,"o":"m 347 1177 q 337 1193 347 1177 q 328 1249 328 1210 q 347 1320 328 1288 q 398 1372 365 1353 q 479 1392 431 1392 q 569 1350 528 1392 q 610 1259 610 1308 q 591 1177 610 1210 q 540 1126 572 1144 q 469 1107 507 1107 q 398 1126 431 1107 q 347 1177 365 1144 m 469 1303 q 457 1303 469 1303 q 430 1287 446 1303 q 414 1252 414 1271 q 422 1222 414 1233 q 465 1196 438 1196 q 507 1211 492 1196 q 522 1249 522 1226 q 507 1287 522 1271 q 469 1303 492 1303 m 472 -7 l 451 -7 q 289 5 322 -7 q 224 32 256 17 q 174 69 192 47 q 134 126 156 92 q 101 206 113 161 q 75 444 75 311 l 75 1017 l 303 1017 l 303 444 q 309 326 303 371 q 335 252 315 282 q 386 211 354 222 q 472 200 418 200 q 599 253 565 200 q 633 444 633 307 l 633 1017 l 863 1017 l 863 444 q 761 79 863 174 q 697 29 725 46 q 622 4 668 13 q 472 -7 561 -7 z "},"ů":{"ha":767,"x_min":46,"x_max":713,"o":"m 280 869 q 270 878 280 869 q 250 914 261 888 q 239 974 239 940 q 258 1041 239 1008 q 309 1093 276 1074 q 380 1113 342 1113 q 451 1093 418 1113 q 501 1041 483 1074 q 519 969 519 1008 q 501 898 519 931 q 451 847 483 865 q 385 828 418 828 q 325 839 351 828 q 280 869 299 850 m 380 1024 q 368 1024 380 1024 q 341 1008 357 1024 q 325 975 325 992 q 329 949 325 958 q 342 932 333 939 q 380 917 357 917 q 418 932 403 917 q 433 969 433 947 q 418 1008 433 992 q 380 1024 403 1024 m 47 256 l 47 738 l 275 738 l 275 250 q 304 171 275 188 q 354 164 318 164 q 483 222 428 164 l 483 738 l 711 738 l 711 0 l 525 0 l 483 75 q 446 51 469 67 q 408 26 422 35 q 371 7 393 17 q 264 -12 329 -12 q 154 8 199 -12 q 88 67 110 28 q 47 256 47 136 z "},"Ű":{"ha":917,"x_min":74,"x_max":863,"o":"m 286 1107 l 403 1303 l 588 1303 l 424 1107 l 286 1107 m 514 1107 l 631 1303 l 814 1303 l 650 1107 l 514 1107 m 472 -7 l 451 -7 q 289 5 322 -7 q 224 32 256 17 q 174 69 192 47 q 134 126 156 92 q 101 206 113 161 q 75 444 75 311 l 75 1017 l 303 1017 l 303 444 q 309 326 303 371 q 335 252 315 282 q 386 211 354 222 q 472 200 418 200 q 599 253 565 200 q 633 444 633 307 l 633 1017 l 863 1017 l 863 444 q 761 79 863 174 q 697 29 725 46 q 622 4 668 13 q 472 -7 561 -7 z "},"ű":{"ha":767,"x_min":46,"x_max":726,"o":"m 197 828 l 314 1022 l 499 1022 l 335 828 l 197 828 m 424 828 l 542 1022 l 725 1022 l 561 828 l 424 828 m 47 256 l 47 738 l 275 738 l 275 250 q 304 171 275 188 q 354 164 318 164 q 483 222 428 164 l 483 738 l 711 738 l 711 0 l 525 0 l 483 75 q 446 51 469 67 q 408 26 422 35 q 371 7 393 17 q 264 -12 329 -12 q 154 8 199 -12 q 88 67 110 28 q 47 256 47 136 z "},"Ų":{"ha":917,"x_min":74,"x_max":863,"o":"m 515 -1 q 454 -87 454 -46 q 493 -143 454 -128 q 531 -149 511 -150 l 531 -264 q 494 -268 510 -268 q 458 -266 479 -268 q 414 -247 438 -264 q 339 -124 339 -197 q 431 -1 339 -50 l 515 -1 m 472 -7 l 451 -7 q 289 5 322 -7 q 224 32 256 17 q 174 69 192 47 q 134 126 156 92 q 101 206 113 161 q 75 444 75 311 l 75 1017 l 303 1017 l 303 444 q 309 326 303 371 q 335 252 315 282 q 386 211 354 222 q 472 200 418 200 q 599 253 565 200 q 633 444 633 307 l 633 1017 l 863 1017 l 863 444 q 761 79 863 174 q 697 29 725 46 q 622 4 668 13 q 472 -7 561 -7 z "},"ų":{"ha":767,"x_min":46,"x_max":713,"o":"m 665 -3 q 604 -88 604 -47 q 643 -144 604 -129 q 679 -150 660 -151 l 679 -264 q 644 -269 660 -269 q 608 -267 629 -269 q 563 -249 588 -265 q 488 -125 488 -199 q 579 -3 488 -51 l 665 -3 m 47 256 l 47 738 l 275 738 l 275 250 q 304 171 275 188 q 354 164 318 164 q 483 222 428 164 l 483 738 l 711 738 l 711 0 l 525 0 l 483 75 q 446 51 469 67 q 408 26 422 35 q 371 7 393 17 q 264 -12 329 -12 q 154 8 199 -12 q 88 67 110 28 q 47 256 47 136 z "},"Ŵ":{"ha":1394,"x_min":42,"x_max":1372,"o":"m 500 1106 l 644 1296 l 806 1296 l 938 1106 l 797 1106 l 721 1183 l 642 1106 l 500 1106 m 42 1017 l 282 1017 l 482 293 l 640 1017 l 882 1017 l 819 778 l 972 290 l 1132 1017 l 1372 1017 l 1106 0 l 836 0 l 719 379 l 617 0 l 347 0 l 42 1017 z "},"ŵ":{"ha":1160,"x_min":18,"x_max":1143,"o":"m 375 826 l 519 1017 l 681 1017 l 811 826 l 671 826 l 596 904 l 517 826 l 375 826 m 18 738 l 261 738 l 383 256 l 494 738 l 717 738 l 675 553 l 783 256 l 900 738 l 1143 738 l 921 0 l 661 0 l 571 233 l 500 0 l 239 0 l 18 738 z "},"Ŷ":{"ha":925,"x_min":42,"x_max":903,"o":"m 250 1106 l 394 1296 l 556 1296 l 688 1106 l 547 1106 l 471 1183 l 392 1106 l 250 1106 m 575 0 l 347 0 l 347 299 l 42 1017 l 289 1017 l 464 546 l 656 1017 l 903 1017 l 575 299 l 575 0 z "},"ŷ":{"ha":815,"x_min":19,"x_max":793,"o":"m 188 828 l 332 1019 l 493 1019 l 625 828 l 485 828 l 408 906 l 329 828 l 188 828 m 19 738 l 257 738 l 365 243 q 433 189 378 193 l 558 738 l 792 738 l 561 -233 l 461 -375 l 296 -375 l 390 0 q 151 200 201 0 l 19 738 z "},"Ÿ":{"ha":925,"x_min":42,"x_max":903,"o":"m 296 1107 q 278 1107 296 1107 q 235 1133 261 1107 q 210 1188 210 1158 q 221 1236 210 1217 q 288 1278 246 1278 q 356 1253 331 1278 q 381 1194 381 1229 q 356 1133 381 1158 q 296 1107 331 1107 m 589 1133 q 576 1145 589 1133 q 564 1194 564 1158 q 589 1253 564 1229 q 650 1278 614 1278 q 710 1253 686 1278 q 735 1194 735 1229 q 710 1133 735 1158 q 649 1107 685 1107 q 589 1133 614 1107 m 575 0 l 347 0 l 347 299 l 42 1017 l 289 1017 l 464 546 l 656 1017 l 903 1017 l 575 299 l 575 0 z "},"Ź":{"ha":769,"x_min":32,"x_max":739,"o":"m 317 1107 l 435 1303 l 618 1303 l 454 1107 l 317 1107 m 33 0 l 33 207 l 468 810 l 33 810 l 33 1017 l 739 1017 l 739 810 l 335 207 l 739 207 l 739 0 l 33 0 z "},"ź":{"ha":667,"x_min":28,"x_max":642,"o":"m 265 828 l 383 1022 l 567 1022 l 403 828 l 265 828 m 28 551 l 28 738 l 640 738 l 640 551 l 353 188 l 640 188 l 640 1 l 49 1 l 49 186 l 354 551 l 28 551 z "},"Ż":{"ha":769,"x_min":32,"x_max":739,"o":"m 297 1139 l 297 1256 q 331 1290 297 1290 l 442 1290 q 465 1281 457 1290 q 474 1256 474 1271 l 474 1139 q 442 1107 474 1107 l 331 1107 q 307 1116 317 1107 q 297 1139 297 1125 m 33 0 l 33 207 l 468 810 l 33 810 l 33 1017 l 739 1017 l 739 810 l 335 207 l 739 207 l 739 0 l 33 0 z "},"ż":{"ha":667,"x_min":28,"x_max":642,"o":"m 246 860 l 246 976 q 279 1011 246 1011 l 390 1011 q 414 1001 406 1011 q 422 976 422 992 l 422 860 q 390 828 422 828 l 279 828 q 256 837 265 828 q 246 860 246 846 m 28 551 l 28 738 l 640 738 l 640 551 l 353 188 l 640 188 l 640 1 l 49 1 l 49 186 l 354 551 l 28 551 z "},"Ž":{"ha":769,"x_min":32,"x_max":739,"o":"m 167 1297 l 308 1297 l 386 1219 l 463 1297 l 604 1297 l 464 1107 l 303 1107 l 167 1297 m 33 0 l 33 207 l 468 810 l 33 810 l 33 1017 l 739 1017 l 739 810 l 335 207 l 739 207 l 739 0 l 33 0 z "},"ž":{"ha":667,"x_min":28,"x_max":642,"o":"m 117 1019 l 257 1019 l 336 942 l 411 1019 l 553 1019 l 413 828 l 251 828 l 117 1019 m 28 551 l 28 738 l 640 738 l 640 551 l 353 188 l 640 188 l 640 1 l 49 1 l 49 186 l 354 551 l 28 551 z "},"ƒ":{"ha":824,"x_min":18,"x_max":807,"o":"m 114 -108 q 240 57 207 -108 q 253 122 246 83 l 313 510 l 200 510 l 226 675 l 339 675 l 344 703 q 494 1056 383 954 q 632 1111 554 1111 q 792 1083 731 1111 q 806 1076 806 1076 l 785 936 l 714 936 q 593 803 626 936 q 572 703 582 763 l 568 675 l 715 675 l 689 510 l 542 510 l 481 122 q 383 -180 450 -76 q 194 -283 317 -283 q 70 -270 110 -283 q 18 -249 31 -257 l 40 -108 l 114 -108 z "},"ˆ":{"ha":529,"x_min":46,"x_max":483,"o":"m 47 738 l 192 928 l 353 928 l 483 738 l 343 738 l 267 815 l 189 738 l 47 738 z "},"ˇ":{"ha":529,"x_min":46,"x_max":483,"o":"m 47 928 l 188 928 l 267 850 l 342 928 l 483 928 l 343 738 l 182 738 l 47 928 z "},"˘":{"ha":411,"x_min":46,"x_max":367,"o":"m 47 894 l 133 894 q 152 842 133 861 q 206 822 171 822 q 281 894 281 822 l 367 894 q 344 811 367 847 q 206 736 303 736 q 92 780 136 736 q 47 894 47 824 z "},"˙":{"ha":269,"x_min":46,"x_max":224,"o":"m 47 751 l 47 868 q 81 903 47 903 l 192 903 q 214 893 206 903 q 222 868 222 883 l 222 751 q 192 719 222 719 l 81 719 q 56 728 65 719 q 47 751 47 738 z "},"˚":{"ha":375,"x_min":46,"x_max":329,"o":"m 66 806 q 57 823 66 806 q 47 878 47 839 q 66 949 47 917 q 117 1001 85 982 q 188 1021 150 1021 q 259 1001 226 1021 q 310 949 292 982 q 328 878 328 917 q 310 806 328 839 q 259 755 292 774 q 188 736 226 736 q 117 755 150 736 q 66 806 85 774 m 149 916 q 141 908 149 916 q 133 878 133 900 q 149 840 133 856 q 188 825 165 825 q 226 840 211 825 q 242 878 242 856 q 226 916 242 900 q 188 932 211 932 q 149 916 165 932 z "},"˛":{"ha":282,"x_min":46,"x_max":238,"o":"m 222 0 q 163 -85 163 -44 q 200 -142 163 -126 q 238 -147 218 -149 l 238 -261 q 203 -267 218 -267 q 167 -265 188 -267 q 121 -246 146 -262 q 46 -122 46 -196 q 138 0 46 -49 l 222 0 z "},"˜":{"ha":572,"x_min":46,"x_max":526,"o":"m 369 872 q 492 926 429 872 l 526 835 q 371 738 449 738 q 288 762 338 738 q 206 786 238 786 q 148 775 174 786 q 82 738 122 764 l 47 822 q 215 921 128 921 q 293 896 249 921 q 369 872 339 872 z "},"˝":{"ha":568,"x_min":18,"x_max":547,"o":"m 18 738 l 136 933 l 319 933 l 156 738 l 18 738 m 246 738 l 363 933 l 547 933 l 383 738 l 246 738 z "},"̸":{"ha":869,"x_min":64,"x_max":806,"o":"m 65 256 l 65 750 q 134 947 65 878 q 326 1017 203 1017 l 554 1017 q 806 761 806 1017 l 806 256 q 740 67 806 133 q 553 0 674 0 l 325 0 q 133 66 200 0 q 65 256 65 132 m 293 424 q 296 361 293 368 l 529 803 q 494 810 515 810 l 379 810 q 293 719 293 810 l 293 424 m 386 207 l 486 207 q 556 226 533 207 q 578 297 578 244 l 578 611 q 572 672 578 665 l 333 219 q 386 207 353 207 z "},"Ω":{"ha":1053,"x_min":60,"x_max":993,"o":"m 211 203 q 60 522 60 303 q 73 682 60 618 q 120 810 86 746 q 206 921 154 874 q 340 997 257 968 q 525 1026 422 1026 q 707 1000 628 1026 q 838 929 786 974 q 924 822 889 885 q 986 542 986 706 q 956 346 986 422 q 857 200 926 269 l 993 186 l 993 0 l 635 0 l 635 203 q 736 351 713 268 q 758 499 758 425 q 753 610 758 574 q 732 685 747 646 q 693 754 717 725 q 528 819 636 819 q 374 772 426 819 q 304 658 321 724 q 288 504 288 596 q 311 344 288 413 q 415 203 335 275 l 415 0 l 68 0 l 68 189 l 211 203 z "},"π":{"ha":899,"x_min":18,"x_max":881,"o":"m 18 531 l 18 738 l 814 738 l 814 531 l 707 531 l 707 272 q 728 190 707 210 q 803 169 749 169 l 881 169 l 881 36 q 699 -7 817 -7 q 479 261 479 -7 l 479 531 l 344 531 l 344 0 l 117 0 l 117 531 l 18 531 z "},"Ḃ":{"ha":843,"x_min":74,"x_max":819,"o":"m 344 1138 l 344 1254 q 378 1289 344 1289 l 489 1289 q 513 1279 504 1289 q 521 1254 521 1269 l 521 1138 q 489 1106 521 1106 l 378 1106 q 353 1115 363 1106 q 344 1138 344 1124 m 75 0 l 75 1017 l 504 1017 q 727 942 656 1017 q 799 742 799 868 q 762 602 799 667 q 656 528 725 538 q 797 411 754 511 q 819 304 819 363 q 744 74 819 149 q 508 0 669 0 l 75 0 m 303 197 l 499 197 q 592 315 592 197 q 569 404 592 369 q 499 439 547 439 l 303 439 l 303 197 m 303 625 l 489 625 q 553 651 531 625 q 575 726 575 676 q 550 797 575 775 q 489 819 525 819 l 303 819 l 303 625 z "},"ḃ":{"ha":774,"x_min":46,"x_max":719,"o":"m 72 1208 l 72 1325 q 106 1360 72 1360 l 217 1360 q 239 1350 231 1360 q 247 1325 247 1340 l 247 1208 q 217 1176 247 1176 l 106 1176 q 81 1185 90 1176 q 72 1208 72 1194 m 46 0 l 46 1090 l 272 1090 l 272 703 q 479 749 367 749 q 631 703 581 749 q 701 572 683 656 q 719 365 719 492 q 663 85 719 178 q 488 -8 606 -8 q 275 72 371 -8 l 238 0 l 46 0 m 410 181 q 486 278 474 181 q 492 388 492 317 q 481 506 492 460 q 455 565 471 551 q 410 578 439 578 q 275 553 322 578 l 275 219 q 410 181 319 181 z "},"Ḋ":{"ha":922,"x_min":74,"x_max":876,"o":"m 347 1140 l 347 1257 q 381 1292 347 1292 l 492 1292 q 516 1282 507 1292 q 525 1257 525 1272 l 525 1140 q 492 1108 525 1108 l 381 1108 q 357 1117 367 1108 q 347 1140 347 1126 m 75 0 l 75 1017 l 526 1017 q 672 988 610 1017 q 773 914 735 960 q 835 800 811 868 q 876 504 876 682 q 526 0 876 0 l 75 0 m 303 197 l 506 197 q 615 274 582 197 q 649 492 649 350 q 631 704 649 633 q 583 797 613 775 q 506 819 554 819 l 303 819 l 303 197 z "},"ḋ":{"ha":774,"x_min":46,"x_max":719,"o":"m 518 1206 l 518 1322 q 551 1357 518 1357 l 663 1357 q 686 1347 678 1357 q 694 1322 694 1338 l 694 1206 q 663 1174 694 1174 l 551 1174 q 527 1183 536 1174 q 518 1206 518 1192 m 47 348 q 47 436 47 348 q 67 591 47 524 q 114 688 88 658 q 285 749 171 749 q 492 703 399 749 l 492 1090 l 719 1090 l 719 0 l 528 0 l 492 72 q 286 -8 394 -8 q 103 82 158 -8 q 47 348 47 172 m 310 565 q 302 558 310 565 q 285 506 294 551 q 275 361 275 460 q 294 222 275 263 q 356 181 313 181 q 492 219 446 181 l 492 553 q 356 578 443 578 q 310 565 326 578 z "},"Ḟ":{"ha":788,"x_min":69,"x_max":758,"o":"m 347 1138 l 347 1254 q 381 1289 347 1289 l 492 1289 q 524 1254 524 1289 l 524 1138 q 492 1106 524 1106 l 381 1106 q 347 1138 347 1106 m 69 0 l 69 790 q 139 964 69 911 q 301 1017 208 1017 q 307 1017 304 1017 q 757 994 636 1011 l 757 804 l 369 804 q 306 779 318 804 q 297 726 297 760 l 297 611 l 692 597 l 692 408 l 297 396 l 297 0 l 69 0 z "},"ḟ":{"ha":563,"x_min":18,"x_max":544,"o":"m 247 1214 l 247 1331 q 281 1365 247 1365 l 392 1365 q 414 1356 406 1365 q 422 1331 422 1346 l 422 1214 q 392 1182 422 1182 l 281 1182 q 256 1191 265 1182 q 247 1214 247 1200 m 18 572 l 18 714 l 128 738 l 128 875 q 226 1068 128 1021 q 375 1092 279 1092 q 544 1058 471 1092 l 544 925 l 425 928 q 422 928 424 928 q 365 907 376 928 q 354 825 354 886 l 356 813 l 356 738 l 508 738 l 508 572 l 356 572 l 356 0 l 128 0 l 128 572 l 18 572 z "},"Ṁ":{"ha":1200,"x_min":51,"x_max":1151,"o":"m 511 1139 l 511 1256 q 544 1290 511 1290 l 656 1290 q 679 1281 671 1290 q 688 1256 688 1271 l 688 1139 q 656 1107 688 1107 l 544 1107 q 520 1116 529 1107 q 511 1139 511 1125 m 51 0 l 150 1017 l 467 1017 l 599 378 l 733 1017 l 1049 1017 l 1150 0 l 926 0 l 858 624 l 729 0 l 472 0 l 338 624 l 276 0 l 51 0 z "},"ṁ":{"ha":1204,"x_min":56,"x_max":1160,"o":"m 526 864 l 526 981 q 560 1015 526 1015 l 671 1015 q 694 1006 686 1015 q 703 981 703 996 l 703 864 q 671 832 703 832 l 560 832 q 536 841 546 832 q 526 864 526 850 m 718 522 l 719 482 l 719 0 l 492 0 l 492 486 q 425 574 492 574 q 346 560 378 574 q 283 515 314 547 l 283 0 l 56 0 l 56 738 l 243 738 l 283 661 q 431 743 374 732 q 501 749 461 749 q 689 658 640 749 q 808 724 749 700 q 926 749 867 749 q 1019 740 985 749 q 1076 713 1053 731 q 1116 672 1100 696 q 1142 618 1132 649 q 1158 481 1158 560 l 1158 0 l 931 0 l 931 486 q 865 574 931 574 q 718 522 768 574 z "},"Ṗ":{"ha":847,"x_min":67,"x_max":807,"o":"m 300 1142 l 300 1258 q 333 1293 300 1293 l 444 1293 q 467 1283 458 1293 q 475 1258 475 1274 l 475 1142 q 444 1110 475 1110 l 333 1110 q 309 1118 318 1110 q 300 1142 300 1126 m 67 0 l 67 1017 l 511 1017 q 742 932 671 1017 q 807 696 807 854 q 787 540 807 606 q 738 439 767 474 q 667 385 710 404 q 544 361 611 361 q 398 374 496 361 q 294 389 300 386 l 294 0 l 67 0 m 294 558 l 490 558 q 556 590 535 558 q 578 693 578 621 q 490 819 576 819 l 294 819 l 294 558 z "},"ṗ":{"ha":774,"x_min":56,"x_max":729,"o":"m 311 865 l 311 982 q 344 1017 311 1017 l 456 1017 q 479 1007 471 1017 q 488 982 488 997 l 488 865 q 456 833 488 833 l 344 833 q 320 842 329 833 q 311 865 311 851 m 56 -375 l 56 738 l 247 738 l 285 667 q 499 746 381 746 q 673 652 617 746 q 729 372 729 558 q 661 60 729 142 q 490 -11 604 -11 q 283 33 376 -11 l 283 -375 l 56 -375 m 421 160 q 465 174 449 160 q 501 340 501 204 q 482 516 501 475 q 421 557 463 557 q 285 518 329 557 l 285 183 q 421 160 332 160 z "},"Ṡ":{"ha":824,"x_min":61,"x_max":783,"o":"m 319 1144 l 319 1261 q 353 1296 319 1296 l 464 1296 q 486 1286 478 1296 q 494 1261 494 1276 l 494 1144 q 464 1113 494 1113 l 353 1113 q 328 1122 338 1113 q 319 1144 319 1131 m 61 671 l 61 757 q 336 1025 61 1019 q 394 1026 365 1026 q 746 982 614 1026 l 746 804 q 505 818 604 818 q 401 818 406 818 q 314 804 339 818 q 289 736 289 790 l 289 701 q 304 640 289 654 q 386 618 329 618 l 533 618 q 690 569 633 618 q 783 338 783 490 l 783 279 q 660 21 783 83 q 501 -11 594 -11 q 259 -3 338 -11 q 93 33 181 6 l 93 211 q 450 196 246 196 q 528 211 500 196 q 556 269 556 226 l 556 310 q 538 371 556 351 q 472 390 519 390 l 329 390 q 181 424 235 390 q 100 501 122 458 q 68 586 74 554 q 61 671 61 636 z "},"ṡ":{"ha":707,"x_min":36,"x_max":671,"o":"m 274 864 l 274 981 q 307 1015 274 1015 l 418 1015 q 442 1006 433 1015 q 450 981 450 996 l 450 864 q 418 832 450 832 l 307 832 q 283 841 292 832 q 274 864 274 850 m 36 476 l 36 540 q 54 644 36 600 q 116 716 72 688 q 249 744 160 744 q 402 743 339 744 q 538 731 465 742 q 633 701 610 721 l 633 563 l 310 563 q 274 555 283 563 q 264 524 264 547 l 264 501 q 275 472 264 478 q 310 465 286 465 l 469 465 q 586 438 540 465 q 669 269 669 389 l 669 192 q 618 40 669 88 q 489 -7 567 -7 q 312 -6 378 -7 q 168 7 246 -4 q 67 39 90 18 l 67 176 l 404 176 q 442 213 442 176 l 442 235 q 434 263 442 254 q 404 272 426 272 l 250 272 q 36 476 36 272 z "},"Ṫ":{"ha":832,"x_min":36,"x_max":806,"o":"m 329 1139 l 329 1256 q 363 1290 329 1290 l 474 1290 q 497 1281 489 1290 q 506 1256 506 1271 l 506 1139 q 474 1107 506 1107 l 363 1107 q 338 1116 347 1107 q 329 1139 329 1125 m 36 810 l 36 1017 l 804 1017 l 804 810 l 531 810 l 531 0 l 303 0 l 303 810 l 36 810 z "},"ṫ":{"ha":532,"x_min":18,"x_max":506,"o":"m 160 1060 l 160 1176 q 193 1211 160 1211 l 304 1211 q 328 1201 319 1211 q 336 1176 336 1192 l 336 1060 q 304 1028 336 1028 l 193 1028 q 169 1037 178 1028 q 160 1060 160 1046 m 18 574 l 18 693 l 131 739 l 167 944 l 358 944 l 358 739 l 506 739 l 506 574 l 358 574 l 358 306 q 372 206 358 233 q 417 164 386 178 q 497 136 489 136 l 497 0 l 311 0 q 215 24 254 0 q 131 264 131 78 l 131 574 l 18 574 z "},"Ẁ":{"ha":1394,"x_min":42,"x_max":1372,"o":"m 478 1300 l 661 1300 l 779 1106 l 642 1106 l 478 1300 m 42 1017 l 282 1017 l 482 293 l 640 1017 l 882 1017 l 819 778 l 972 290 l 1132 1017 l 1372 1017 l 1106 0 l 836 0 l 719 379 l 617 0 l 347 0 l 42 1017 z "},"ẁ":{"ha":1160,"x_min":18,"x_max":1143,"o":"m 351 1021 l 536 1021 l 653 826 l 515 826 l 351 1021 m 18 738 l 261 738 l 383 256 l 494 738 l 717 738 l 675 553 l 783 256 l 900 738 l 1143 738 l 921 0 l 661 0 l 571 233 l 500 0 l 239 0 l 18 738 z "},"Ẃ":{"ha":1394,"x_min":42,"x_max":1372,"o":"m 642 1106 l 760 1300 l 943 1300 l 779 1106 l 642 1106 m 42 1017 l 282 1017 l 482 293 l 640 1017 l 882 1017 l 819 778 l 972 290 l 1132 1017 l 1372 1017 l 1106 0 l 836 0 l 719 379 l 617 0 l 347 0 l 42 1017 z "},"ẃ":{"ha":1160,"x_min":18,"x_max":1143,"o":"m 515 826 l 633 1021 l 817 1021 l 653 826 l 515 826 m 18 738 l 261 738 l 383 256 l 494 738 l 717 738 l 675 553 l 783 256 l 900 738 l 1143 738 l 921 0 l 661 0 l 571 233 l 500 0 l 239 0 l 18 738 z "},"Ẅ":{"ha":1394,"x_min":42,"x_max":1372,"o":"m 466 1131 q 453 1143 466 1131 q 440 1191 440 1156 q 466 1251 440 1226 q 527 1276 492 1276 q 587 1252 563 1276 q 611 1192 611 1228 q 587 1131 611 1156 q 527 1106 563 1106 q 466 1131 492 1106 m 881 1106 q 864 1106 881 1106 q 820 1131 846 1106 q 794 1185 794 1156 q 806 1235 794 1215 q 874 1276 832 1276 q 942 1252 917 1276 q 967 1192 967 1228 q 942 1131 967 1156 q 881 1106 917 1106 m 42 1017 l 282 1017 l 482 293 l 640 1017 l 882 1017 l 819 778 l 972 290 l 1132 1017 l 1372 1017 l 1106 0 l 836 0 l 719 379 l 617 0 l 347 0 l 42 1017 z "},"ẅ":{"ha":1160,"x_min":18,"x_max":1143,"o":"m 348 852 q 335 865 348 852 q 322 913 322 878 q 348 972 322 947 q 409 997 374 997 q 469 972 444 997 q 494 912 494 947 q 469 851 494 876 q 409 826 444 826 q 348 852 374 826 m 763 826 q 745 826 763 826 q 703 852 728 826 q 678 907 678 878 q 689 956 678 936 q 756 997 714 997 q 824 972 799 997 q 849 912 849 947 q 824 851 849 876 q 763 826 799 826 m 18 738 l 261 738 l 383 256 l 494 738 l 717 738 l 675 553 l 783 256 l 900 738 l 1143 738 l 921 0 l 661 0 l 571 233 l 500 0 l 239 0 l 18 738 z "},"Ỳ":{"ha":925,"x_min":42,"x_max":903,"o":"m 239 1303 l 424 1303 l 542 1107 l 403 1107 l 239 1303 m 575 0 l 347 0 l 347 299 l 42 1017 l 289 1017 l 464 546 l 656 1017 l 903 1017 l 575 299 l 575 0 z "},"ỳ":{"ha":815,"x_min":19,"x_max":793,"o":"m 176 1022 l 361 1022 l 478 828 l 340 828 l 176 1022 m 19 738 l 257 738 l 365 243 q 433 189 378 193 l 558 738 l 792 738 l 561 -233 l 461 -375 l 296 -375 l 390 0 q 151 200 201 0 l 19 738 z "},"–":{"ha":713,"x_min":28,"x_max":685,"o":"m 28 306 l 28 493 l 685 493 l 685 306 l 28 306 z "},"—":{"ha":1022,"x_min":28,"x_max":994,"o":"m 28 308 l 28 496 l 994 496 l 994 308 l 28 308 z "},"‘":{"ha":354,"x_min":74,"x_max":281,"o":"m 75 897 q 228 1033 75 1033 q 251 1031 242 1033 l 272 1028 l 272 940 q 271 940 272 940 q 228 897 228 940 l 228 871 l 244 871 q 279 836 279 871 l 279 697 q 244 658 279 658 l 108 658 q 75 697 75 658 l 75 897 z "},"’":{"ha":354,"x_min":74,"x_max":281,"o":"m 279 793 q 126 657 279 657 q 103 660 113 657 l 82 663 l 82 750 q 83 750 82 750 q 126 794 126 750 l 126 819 l 111 819 q 85 828 94 819 q 75 856 75 838 l 75 994 q 111 1033 75 1033 l 246 1033 q 279 994 279 1033 l 279 793 z "},"‚":{"ha":354,"x_min":74,"x_max":281,"o":"m 279 -26 q 126 -162 279 -162 q 103 -160 113 -162 l 82 -157 l 82 -69 q 83 -69 82 -69 q 126 -25 126 -69 l 126 0 l 111 0 q 85 9 94 0 q 75 36 75 18 l 75 175 q 111 214 75 214 l 246 214 q 279 175 279 214 l 279 -26 z "},"“":{"ha":594,"x_min":68,"x_max":529,"o":"m 493 869 q 528 833 528 869 l 528 694 q 493 656 528 656 l 358 656 q 324 694 324 656 l 324 896 q 476 1031 324 1031 q 501 1029 490 1031 l 521 1025 l 521 939 q 521 939 521 939 q 476 894 476 939 l 476 869 l 493 869 m 68 896 q 221 1031 68 1031 q 246 1029 235 1031 l 265 1025 l 265 939 q 265 939 265 939 q 222 894 222 939 l 222 869 l 238 869 q 263 860 253 869 q 272 833 272 851 l 272 694 q 238 656 272 656 l 103 656 q 68 694 68 656 l 68 896 z "},"”":{"ha":594,"x_min":68,"x_max":529,"o":"m 103 817 q 68 853 68 817 l 68 992 q 103 1031 68 1031 l 239 1031 q 272 992 272 1031 l 272 792 q 119 656 272 656 q 96 657 106 656 l 75 661 l 75 747 q 76 747 75 747 q 119 792 119 747 l 119 817 l 103 817 m 528 792 q 375 656 528 656 q 351 657 361 656 l 331 661 l 331 747 q 332 747 331 747 q 375 792 375 747 l 375 817 l 358 817 q 333 826 343 817 q 324 853 324 835 l 324 992 q 358 1031 324 1031 l 494 1031 q 528 992 528 1031 l 528 792 z "},"„":{"ha":594,"x_min":68,"x_max":529,"o":"m 103 0 q 68 36 68 0 l 68 175 q 103 214 68 214 l 239 214 q 272 175 272 214 l 272 -26 q 119 -162 272 -162 q 96 -160 106 -162 l 75 -157 l 75 -69 q 76 -69 75 -69 q 119 -25 119 -69 l 119 0 l 103 0 m 528 -26 q 375 -162 528 -162 q 351 -160 361 -162 l 331 -157 l 331 -69 q 332 -69 331 -69 q 375 -25 375 -69 l 375 0 l 358 0 q 333 9 343 0 q 324 36 324 18 l 324 175 q 358 214 324 214 l 494 214 q 528 175 528 214 l 528 -26 z "},"†":{"ha":639,"x_min":18,"x_max":622,"o":"m 18 611 l 18 788 l 203 806 l 219 1069 l 422 1069 l 438 806 l 621 788 l 621 611 l 438 592 l 419 -100 l 218 -100 l 203 592 l 18 611 z "},"‡":{"ha":657,"x_min":18,"x_max":622,"o":"m 18 189 l 18 365 l 207 389 l 203 592 l 18 611 l 18 788 l 203 806 l 219 1069 l 422 1069 l 438 806 l 621 788 l 621 611 l 438 592 l 433 388 l 621 365 l 621 189 l 426 168 l 419 -100 l 218 -100 l 213 167 l 18 189 z "},"•":{"ha":428,"x_min":79,"x_max":350,"o":"m 79 438 l 79 621 q 125 669 79 669 l 301 669 q 350 621 350 669 l 350 438 q 301 393 350 393 l 125 393 q 92 405 104 393 q 79 438 79 417 z "},"…":{"ha":1117,"x_min":243,"x_max":826,"o":"m 243 32 l 243 174 q 276 208 243 208 l 413 208 q 447 174 447 208 l 447 32 q 413 0 447 0 l 276 0 q 253 9 263 0 q 243 32 243 18 m 432 32 l 432 174 q 465 208 432 208 l 601 208 q 636 174 636 208 l 636 32 q 601 0 636 0 l 465 0 q 442 9 451 0 q 432 32 432 18 m 621 32 l 621 174 q 654 208 621 208 l 790 208 q 825 174 825 208 l 825 32 q 790 0 825 0 l 654 0 q 631 9 640 0 q 621 32 621 18 z "},"‰":{"ha":1914,"x_min":39,"x_max":1876,"o":"m 39 669 l 39 833 q 83 971 39 925 q 229 1017 128 1017 l 369 1017 q 512 971 468 1017 q 556 833 556 925 l 556 669 q 512 531 556 576 q 367 485 468 485 l 226 485 q 58 568 96 485 q 39 669 39 608 m 192 700 q 210 648 192 658 q 253 638 228 638 l 340 638 q 391 652 379 638 q 403 700 403 667 l 403 801 q 390 851 403 839 q 343 864 376 864 l 256 864 q 206 851 221 864 q 192 801 192 838 l 192 700 m 279 0 l 904 1017 l 1058 1017 l 440 0 l 279 0 m 785 188 l 785 351 q 828 490 785 444 q 974 536 872 536 l 1114 536 q 1258 490 1214 536 q 1301 351 1301 443 l 1301 188 q 1258 50 1301 96 q 1111 4 1214 4 l 971 4 q 828 50 871 4 q 785 188 785 96 m 938 219 q 950 172 938 186 q 997 157 963 157 l 1085 157 q 1136 172 1124 157 q 1149 219 1149 186 l 1149 321 q 1135 370 1149 357 q 1088 383 1121 383 l 1000 383 q 952 370 967 383 q 938 321 938 357 l 938 219 m 1360 188 l 1360 351 q 1380 457 1360 424 q 1422 506 1400 490 q 1550 536 1467 536 l 1689 536 q 1833 490 1789 536 q 1876 351 1876 443 l 1876 188 q 1858 88 1876 126 q 1686 4 1821 4 l 1547 4 q 1403 50 1447 4 q 1360 188 1360 96 m 1513 219 q 1525 172 1513 186 q 1572 157 1538 157 l 1661 157 q 1712 172 1700 157 q 1724 219 1724 186 l 1724 321 q 1710 370 1724 357 q 1664 383 1697 383 l 1575 383 q 1527 370 1542 383 q 1513 321 1513 357 l 1513 219 z "},"‹":{"ha":494,"x_min":46,"x_max":456,"o":"m 47 492 l 333 774 l 451 657 l 283 492 l 454 322 l 339 203 l 47 492 z "},"›":{"ha":494,"x_min":46,"x_max":456,"o":"m 47 322 l 218 492 l 50 657 l 168 774 l 454 492 l 161 203 l 47 322 z "},"⁄":{"ha":492,"x_min":-85,"x_max":578,"o":"m -85 0 l 418 1056 l 576 1056 l 75 0 l -85 0 z "},"⁰":{"ha":643,"x_min":56,"x_max":589,"o":"m 56 682 l 56 1006 q 104 1138 56 1093 q 244 1183 153 1183 l 408 1183 q 589 1011 589 1183 l 589 682 q 542 554 589 597 q 408 511 494 511 l 243 511 q 56 682 56 511 m 231 722 q 246 679 231 690 q 290 668 261 668 l 357 668 q 402 678 389 668 q 415 722 415 689 l 415 971 q 403 1013 415 1000 q 363 1025 390 1025 l 285 1025 q 235 1004 243 1025 q 231 971 231 990 l 231 722 z "},"⁴":{"ha":604,"x_min":14,"x_max":592,"o":"m 356 797 l 356 931 l 388 1000 l 529 1000 l 529 797 l 592 797 l 592 664 l 529 654 l 529 513 l 356 513 l 356 636 l 47 636 l 15 711 l 233 1183 l 408 1183 l 231 797 l 356 797 z "},"⁵":{"ha":576,"x_min":51,"x_max":540,"o":"m 51 667 l 308 667 q 358 679 351 667 q 367 714 367 696 l 367 750 q 356 787 367 774 q 315 800 346 800 l 244 800 q 200 758 200 800 l 53 758 l 74 1183 l 511 1183 l 511 1025 l 224 1025 l 219 926 q 328 951 253 951 q 376 949 350 951 q 499 895 458 943 q 540 769 540 847 l 540 681 q 424 515 540 551 q 324 506 392 506 q 51 529 183 506 l 51 667 z "},"⁶":{"ha":608,"x_min":50,"x_max":571,"o":"m 103 1117 q 116 1134 103 1117 q 158 1167 129 1151 q 224 1188 186 1182 q 337 1193 263 1193 q 547 1168 411 1193 l 547 1035 l 314 1035 q 231 981 244 1035 q 224 913 224 956 q 388 933 282 933 q 532 889 493 933 q 571 764 571 844 l 571 675 q 389 511 571 511 l 247 511 q 167 525 200 511 q 64 686 88 560 q 50 855 50 756 q 64 1019 50 954 q 103 1117 78 1083 m 224 783 q 240 699 224 728 q 303 669 256 669 l 350 669 q 387 678 376 669 q 397 710 397 686 l 397 742 q 390 775 397 767 q 356 783 382 783 l 224 783 z "},"⁷":{"ha":568,"x_min":13,"x_max":554,"o":"m 14 1025 l 14 1183 l 510 1183 l 553 1111 l 299 511 l 110 511 l 328 1025 l 14 1025 z "},"⁸":{"ha":643,"x_min":61,"x_max":583,"o":"m 61 669 l 61 726 q 81 796 61 767 q 139 832 101 825 q 76 885 90 853 q 61 968 61 917 l 61 1028 q 250 1189 61 1189 l 407 1189 q 563 1122 524 1189 q 583 1029 583 1088 l 583 985 q 547 897 583 926 q 508 881 531 883 q 583 750 583 867 l 583 676 q 529 539 583 572 q 408 510 483 510 l 249 510 q 121 538 161 510 q 72 594 79 567 q 61 669 61 635 m 235 700 q 246 669 235 678 q 285 660 257 660 l 361 660 q 399 669 389 660 q 408 700 408 679 l 408 740 q 399 773 408 763 q 361 783 389 783 l 285 783 q 245 773 256 783 q 235 740 235 763 l 235 700 m 235 967 q 247 933 235 942 q 285 925 258 925 l 360 925 q 400 935 392 925 q 408 967 408 946 l 408 993 q 396 1031 408 1022 q 358 1039 383 1039 l 288 1039 q 242 1026 250 1039 q 235 993 235 1013 l 235 967 z "},"⁹":{"ha":608,"x_min":42,"x_max":563,"o":"m 42 936 l 42 1026 q 224 1193 42 1193 l 365 1193 q 446 1178 413 1193 q 549 1014 525 1143 q 563 840 563 942 q 549 674 563 739 q 508 574 535 608 q 389 503 464 513 q 270 496 346 496 q 67 521 194 496 l 67 656 l 299 656 q 382 713 368 656 q 389 785 389 739 q 225 763 331 763 q 81 808 119 763 q 42 936 42 854 m 215 960 q 224 923 215 932 q 258 914 232 914 l 389 914 q 374 1005 389 975 q 311 1035 358 1035 l 261 1035 q 226 1026 236 1035 q 215 992 215 1017 l 215 960 z "},"₀":{"ha":643,"x_min":56,"x_max":589,"o":"m 56 -106 l 56 217 q 104 349 56 304 q 244 394 153 394 l 408 394 q 589 222 589 394 l 589 -106 q 542 -235 589 -192 q 408 -278 494 -278 l 243 -278 q 56 -106 56 -278 m 231 -65 q 246 -109 231 -99 q 290 -119 261 -119 l 357 -119 q 402 -109 389 -119 q 415 -67 415 -99 l 415 183 q 403 224 415 213 q 363 236 390 236 l 285 236 q 235 215 243 236 q 231 183 231 201 l 231 -65 z "},"₁":{"ha":375,"x_min":14,"x_max":315,"o":"m 315 394 l 315 -278 l 142 -278 l 142 244 l 15 218 l 15 319 l 144 394 l 315 394 z "},"₂":{"ha":568,"x_min":28,"x_max":531,"o":"m 29 247 q 28 285 28 247 q 29 344 28 322 l 29 376 q 317 404 172 404 q 477 349 424 404 q 531 197 531 293 q 299 -119 531 61 l 531 -119 l 531 -278 l 33 -278 l 33 -126 q 201 -6 121 -69 q 356 179 356 118 q 332 233 356 219 q 247 247 308 247 l 29 247 z "},"₃":{"ha":575,"x_min":28,"x_max":521,"o":"m 290 -285 q 33 -256 111 -285 l 35 -126 l 251 -126 q 328 -118 308 -126 q 347 -82 347 -110 l 347 -69 q 326 -32 347 -42 q 257 -21 304 -22 l 92 -14 l 92 125 l 257 136 q 328 147 308 138 q 349 182 349 156 l 349 194 q 326 231 349 221 q 257 240 303 240 l 28 240 l 28 368 q 292 399 108 399 q 339 397 315 399 q 471 351 422 397 q 519 228 519 306 l 519 189 q 438 57 519 85 q 519 -83 519 29 l 519 -112 q 414 -272 519 -237 q 332 -283 378 -283 l 290 -285 z "},"₄":{"ha":611,"x_min":14,"x_max":599,"o":"m 363 10 l 363 142 l 394 213 l 536 213 l 536 10 l 597 10 l 597 -125 l 536 -133 l 536 -275 l 363 -275 l 363 -153 l 47 -153 l 15 -76 l 233 394 l 414 394 l 242 10 l 363 10 z "},"₅":{"ha":581,"x_min":51,"x_max":544,"o":"m 515 394 l 515 236 l 225 236 l 219 139 q 329 163 254 163 q 379 161 353 163 q 503 107 463 156 q 544 -19 544 58 l 544 -108 q 426 -272 544 -236 q 325 -282 394 -282 q 51 -258 185 -282 l 51 -121 l 311 -121 q 361 -108 354 -121 q 371 -74 371 -93 l 371 -39 q 360 -2 371 -15 q 319 11 350 11 l 249 11 q 201 -17 201 11 l 53 -17 l 74 394 l 515 394 z "},"₆":{"ha":608,"x_min":50,"x_max":571,"o":"m 103 328 q 116 345 103 328 q 158 378 129 363 q 226 399 186 394 q 342 404 267 404 q 547 381 417 404 l 547 247 l 314 247 q 231 192 244 247 q 224 124 224 167 q 388 146 282 146 q 532 101 493 146 q 571 -24 571 57 l 571 -114 q 389 -278 571 -278 l 247 -278 q 167 -262 200 -278 q 64 -103 88 -229 q 50 67 50 -32 q 64 230 50 165 q 103 328 78 294 m 224 -4 q 240 -90 224 -61 q 303 -119 256 -119 l 350 -119 q 387 -110 376 -119 q 397 -79 397 -101 l 397 -47 q 390 -12 397 -21 q 356 -4 382 -4 l 224 -4 z "},"₇":{"ha":568,"x_min":13,"x_max":554,"o":"m 14 238 l 14 394 l 510 394 l 553 322 l 299 -278 l 110 -278 l 328 238 l 14 238 z "},"₈":{"ha":643,"x_min":61,"x_max":583,"o":"m 61 -61 q 94 24 61 -6 q 139 44 113 39 q 76 97 90 65 q 61 181 61 129 l 61 239 q 250 400 61 400 l 407 400 q 563 335 524 400 q 583 242 583 299 l 583 197 q 560 124 583 153 q 508 92 538 96 q 579 -3 567 82 q 583 -39 583 -21 l 583 -111 q 529 -249 583 -215 q 408 -278 483 -278 l 249 -278 q 121 -250 161 -278 q 72 -194 79 -221 q 61 -118 61 -154 l 61 -61 m 235 -49 l 235 -87 q 256 -124 235 -117 q 285 -128 265 -128 l 361 -128 q 399 -118 389 -128 q 408 -87 408 -108 l 408 -49 q 399 -16 408 -26 q 361 -6 389 -6 l 285 -6 q 245 -15 256 -6 q 235 -49 235 -25 m 235 178 q 247 145 235 154 q 285 136 258 136 l 360 136 q 400 147 392 136 q 408 178 408 157 l 408 206 q 396 242 408 233 q 358 250 383 250 l 288 250 q 242 238 250 250 q 235 206 235 225 l 235 178 z "},"₉":{"ha":608,"x_min":42,"x_max":563,"o":"m 42 147 l 42 239 q 224 406 42 406 l 365 406 q 446 390 413 406 q 549 226 525 356 q 563 64 563 156 q 553 -85 563 -28 q 528 -178 543 -143 q 489 -236 513 -212 q 399 -282 450 -275 q 275 -289 349 -289 q 67 -267 201 -289 l 67 -133 l 299 -133 q 382 -76 368 -133 q 389 -4 389 -50 q 225 -25 331 -25 q 81 20 119 -25 q 42 147 42 65 m 215 172 q 224 134 215 143 q 258 125 232 125 l 389 125 q 374 217 389 186 q 311 247 358 247 l 261 247 q 226 238 236 247 q 215 203 215 228 l 215 172 z "},"€":{"ha":861,"x_min":18,"x_max":843,"o":"m 467 1028 q 649 1015 536 1028 q 838 975 761 1001 l 838 811 q 566 831 642 831 q 462 827 490 831 q 415 818 433 824 q 383 799 396 813 q 363 776 369 786 q 353 744 356 765 q 347 664 347 715 l 672 653 l 672 547 l 347 539 l 347 461 l 672 450 l 672 344 q 393 336 481 340 l 347 333 q 404 203 347 232 q 517 178 450 178 q 792 203 638 178 l 843 211 l 843 50 q 684 4 774 17 q 517 -8 594 -8 q 413 -6 439 -8 q 351 5 386 -4 q 285 28 315 14 q 223 68 254 42 q 169 129 192 94 q 119 333 119 208 l 18 344 l 18 450 l 119 461 l 119 539 l 18 550 l 18 650 l 119 664 q 149 849 119 779 q 249 974 183 931 q 467 1028 332 1028 z "},"ℓ":{"ha":679,"x_min":28,"x_max":624,"o":"m 389 1026 q 554 964 486 1026 q 622 778 622 901 q 594 649 622 714 q 519 531 565 583 q 335 367 433 432 l 335 326 q 369 199 336 228 q 475 156 403 168 q 520 146 475 154 q 569 138 565 138 l 569 1 q 508 1 569 1 q 383 1 446 1 l 322 1 q 161 58 215 1 q 107 250 107 115 l 107 275 q 61 247 93 264 l 28 356 q 107 433 64 386 l 107 794 q 179 967 107 907 q 389 1026 251 1026 m 428 803 q 410 838 428 825 q 381 850 393 850 q 335 800 335 850 l 335 592 q 426 794 428 704 q 428 803 428 799 z "},"№":{"ha":1558,"x_min":67,"x_max":1522,"o":"m 67 0 l 67 819 q 100 932 67 885 q 308 1028 165 1028 q 499 953 428 1028 q 547 854 539 911 l 685 218 q 703 202 689 199 q 718 222 718 206 l 718 786 q 782 964 718 908 q 951 1019 846 1019 l 1328 1019 q 1478 963 1435 1018 q 1521 774 1521 907 q 1474 587 1521 640 q 1307 529 1426 533 l 1257 529 q 1090 581 1128 533 q 1049 688 1056 625 q 1042 813 1042 751 l 1211 813 q 1232 694 1211 708 q 1265 689 1242 689 l 1299 689 q 1341 701 1331 689 q 1351 770 1351 714 q 1340 841 1351 826 q 1259 857 1329 856 q 1101 858 1189 858 q 980 839 1014 858 q 946 751 946 819 l 946 200 q 913 92 946 139 q 700 -7 844 -7 q 518 68 585 -7 q 469 176 479 113 l 331 819 q 319 831 328 829 q 303 827 311 833 q 296 810 296 821 l 296 0 l 67 0 z "},"™":{"ha":986,"x_min":18,"x_max":974,"o":"m 18 897 l 18 1017 l 419 1017 l 419 897 l 290 897 l 290 532 l 150 532 l 150 897 l 18 897 m 432 532 l 490 1017 l 639 1017 l 706 747 l 756 1017 l 908 1017 l 972 532 l 832 532 l 806 779 l 768 532 l 642 532 l 594 778 l 574 532 l 432 532 z "},"℮":{"ha":947,"x_min":56,"x_max":893,"o":"m 475 0 q 169 105 282 0 q 56 368 56 210 q 172 636 56 526 q 304 715 233 689 q 470 740 375 740 q 633 718 565 740 q 764 649 701 696 q 892 358 883 556 l 228 358 q 222 358 226 358 q 217 358 218 358 q 211 343 211 357 l 211 158 q 258 97 211 132 q 475 29 349 29 q 622 62 551 29 q 739 146 693 94 l 817 146 q 659 31 738 61 q 475 0 581 0 m 719 382 l 731 382 q 735 383 735 382 q 736 392 736 383 l 736 576 q 649 667 736 621 q 472 714 561 714 q 369 699 421 714 q 285 662 318 683 q 231 619 251 640 q 211 585 211 597 l 211 394 q 214 384 211 386 q 222 382 217 382 l 719 382 z "},"∂":{"ha":875,"x_min":53,"x_max":800,"o":"m 53 315 q 140 558 53 471 q 372 646 226 646 q 569 567 518 646 q 528 762 567 703 q 411 821 490 821 q 260 799 332 821 q 143 750 188 778 l 111 919 q 260 1001 192 974 q 410 1028 329 1028 q 703 899 607 1028 q 799 538 799 771 q 710 149 799 296 q 403 -7 614 -7 q 103 135 199 -7 q 53 315 53 210 m 279 319 q 317 229 279 261 q 403 197 356 197 q 480 222 450 197 q 525 283 510 246 q 553 411 551 354 q 419 442 499 442 q 279 319 279 442 z "},"∆":{"ha":986,"x_min":18,"x_max":969,"o":"m 18 0 l 450 1017 l 553 1017 l 968 0 l 18 0 m 325 197 l 717 197 l 519 669 l 325 197 z "},"∏":{"ha":907,"x_min":18,"x_max":889,"o":"m 18 810 l 18 1017 l 889 1017 l 889 810 l 789 810 l 789 0 l 561 0 l 561 810 l 344 810 l 344 0 l 117 0 l 117 810 l 18 810 z "},"∑":{"ha":785,"x_min":36,"x_max":768,"o":"m 36 1017 l 767 1017 l 767 810 l 318 810 l 613 375 l 318 -67 l 767 -67 l 767 -278 l 36 -278 l 36 -67 l 333 375 l 36 810 l 36 1017 z "},"−":{"ha":633,"x_min":28,"x_max":606,"o":"m 28 401 l 28 588 l 606 588 l 606 401 l 28 401 z "},"√":{"ha":931,"x_min":18,"x_max":914,"o":"m 18 311 l 18 518 l 263 518 l 357 310 l 665 1111 l 914 1111 l 486 0 l 261 0 l 103 311 l 18 311 z "},"∞":{"ha":1046,"x_min":46,"x_max":1000,"o":"m 95 306 q 82 323 95 306 q 58 382 69 340 q 47 474 47 424 q 56 563 47 524 q 89 639 65 603 q 281 714 139 714 q 519 586 424 714 q 769 714 594 714 q 957 639 907 714 q 1000 474 1000 574 q 950 307 1000 372 q 769 235 897 235 q 630 261 690 235 q 517 361 569 288 q 416 260 471 286 q 288 235 361 235 q 167 253 214 235 q 95 306 121 272 m 217 525 q 215 519 217 525 q 212 501 213 513 q 211 474 211 490 q 213 447 211 458 q 219 423 214 435 q 233 404 225 411 q 290 389 253 389 q 417 474 360 389 q 360 535 394 510 q 297 560 325 560 q 253 555 268 560 q 229 544 238 550 q 217 525 221 538 m 753 389 q 835 474 835 389 q 819 538 835 517 q 753 560 804 560 q 625 472 681 560 q 753 389 681 389 z "},"∫":{"ha":614,"x_min":18,"x_max":597,"o":"m 18 -108 l 92 -108 q 161 -71 140 -108 q 188 7 183 -32 q 193 122 193 63 l 193 703 q 288 1056 193 954 q 417 1111 339 1111 q 581 1083 518 1111 q 596 1076 594 1076 l 596 936 l 526 936 q 438 865 457 936 q 421 703 421 806 l 421 122 q 370 -180 421 -76 q 195 -283 319 -283 q 18 -249 71 -283 l 18 -108 z "},"≈":{"ha":696,"x_min":46,"x_max":651,"o":"m 250 464 q 354 439 292 464 q 460 414 417 414 q 533 425 503 414 q 614 467 563 436 l 650 371 q 558 294 603 322 q 468 267 513 267 q 358 293 424 267 q 254 319 292 319 q 190 312 217 319 q 131 290 164 304 q 75 267 99 275 l 47 367 q 250 464 153 464 m 250 718 q 354 692 292 718 q 460 667 417 667 q 533 678 503 667 q 614 721 563 690 l 650 624 q 558 548 603 575 q 468 521 513 521 q 358 547 424 521 q 254 574 292 574 q 190 565 217 574 q 131 542 164 557 q 75 521 99 528 l 47 619 q 250 718 153 718 z "},"≠":{"ha":629,"x_min":18,"x_max":613,"o":"m 18 242 l 18 431 l 229 431 l 294 542 l 18 542 l 18 729 l 403 729 l 453 815 l 558 815 l 508 729 l 611 729 l 611 542 l 400 542 l 335 431 l 611 431 l 611 242 l 228 242 l 168 140 l 63 140 l 122 242 l 18 242 z "},"≤":{"ha":613,"x_min":46,"x_max":568,"o":"m 47 101 l 47 267 l 567 267 l 567 101 l 47 101 m 47 497 l 47 703 l 567 872 l 567 668 l 279 601 l 567 522 l 567 317 l 47 497 z "},"≥":{"ha":613,"x_min":46,"x_max":568,"o":"m 47 101 l 47 267 l 568 267 l 568 101 l 47 101 m 47 317 l 47 522 l 336 601 l 47 668 l 47 872 l 568 703 l 568 497 l 47 317 z "},"◊":{"ha":706,"x_min":18,"x_max":689,"o":"m 18 518 l 306 1017 l 408 1017 l 688 518 l 408 0 l 306 0 l 18 518 m 236 518 l 357 292 l 472 518 l 357 731 l 236 518 z "},"ﬀ":{"ha":1111,"x_min":18,"x_max":1094,"o":"m 18 572 l 18 714 l 156 738 l 156 861 q 199 1004 156 940 q 367 1078 249 1078 q 563 1044 485 1078 l 563 911 l 454 913 q 393 883 404 913 q 383 806 383 860 l 383 738 l 676 738 l 676 875 q 776 1068 676 1021 q 924 1092 828 1092 q 1094 1058 1019 1092 l 1094 925 l 975 928 q 971 928 974 928 q 915 907 925 928 q 904 825 904 886 l 904 813 l 904 738 l 1057 738 l 1057 572 l 903 572 l 903 0 l 675 0 l 675 572 l 381 572 l 381 0 l 153 0 l 153 572 l 18 572 z "},"ﬁ":{"ha":882,"x_min":18,"x_max":831,"o":"m 18 572 l 18 714 l 128 738 l 128 786 q 213 1001 128 915 q 453 1092 301 1092 q 633 1082 519 1092 q 786 1056 747 1072 l 786 922 l 525 928 q 518 928 521 928 q 356 775 356 928 l 356 738 l 831 724 l 831 0 l 603 0 l 603 572 l 356 572 l 356 0 l 128 0 l 128 572 l 18 572 z "},"ﬂ":{"ha":1004,"x_min":18,"x_max":988,"o":"m 18 572 l 18 714 l 128 738 l 128 797 q 211 1031 128 964 q 418 1092 286 1092 l 847 1089 l 847 304 q 872 186 847 213 q 931 156 883 175 q 986 136 978 136 l 986 0 l 813 0 q 703 25 744 0 q 619 263 619 75 l 619 926 l 461 928 q 380 899 404 928 q 356 797 356 871 l 356 738 l 508 738 l 508 572 l 356 572 l 356 0 l 128 0 l 128 572 l 18 572 z "},"ﬃ":{"ha":1417,"x_min":18,"x_max":1363,"o":"m 18 572 l 18 714 l 156 738 l 156 861 q 199 1004 156 940 q 367 1078 249 1078 q 563 1044 485 1078 l 563 911 l 454 913 q 400 896 422 913 q 386 860 388 886 q 383 806 385 835 l 382 738 l 660 738 l 660 786 q 744 1001 660 915 q 983 1092 833 1092 q 1191 1079 1092 1092 q 1317 1056 1290 1067 l 1317 922 l 1057 928 q 1050 928 1054 928 q 888 775 888 928 l 888 738 l 1363 724 l 1363 0 l 1135 0 l 1135 572 l 888 572 l 888 0 l 660 0 l 660 572 l 382 572 l 382 0 l 153 0 l 153 572 l 18 572 z "},"ﬄ":{"ha":1542,"x_min":18,"x_max":1525,"o":"m 18 572 l 18 714 l 156 738 l 156 861 q 199 1004 156 940 q 367 1078 249 1078 q 563 1044 485 1078 l 563 911 l 454 913 q 393 883 404 913 q 383 806 383 860 l 382 738 l 665 738 l 665 797 q 886 1086 665 1057 q 956 1092 918 1092 l 1383 1088 l 1383 304 q 1395 209 1383 231 q 1417 180 1407 188 q 1471 154 1426 172 q 1525 136 1515 136 l 1525 0 l 1350 0 q 1202 60 1249 0 q 1156 263 1156 119 l 1156 926 l 999 928 q 917 899 942 928 q 893 797 893 871 l 893 738 l 1046 738 l 1046 572 l 892 572 l 892 0 l 664 0 l 664 572 l 382 572 l 382 0 l 153 0 l 153 572 l 18 572 z "},"ﬆ":{"ha":1233,"x_min":36,"x_max":1213,"o":"m 36 475 l 36 539 q 86 683 36 629 q 239 738 136 738 l 838 738 l 872 943 l 1065 943 l 1065 738 l 1211 738 l 1211 574 l 1065 574 l 1065 304 q 1090 183 1065 208 q 1148 154 1101 172 q 1201 136 1194 136 l 1201 -1 l 1018 -1 q 883 60 928 -1 q 838 263 838 121 l 838 561 l 310 561 q 274 553 283 561 q 264 522 264 546 l 264 500 q 275 469 264 475 q 310 463 286 463 l 469 463 q 586 436 540 463 q 669 268 669 388 l 669 192 q 618 40 669 88 q 489 -7 567 -7 q 67 39 119 -7 l 67 176 l 404 176 q 442 213 442 176 l 442 233 q 434 262 442 253 q 404 271 426 271 l 250 271 q 36 475 36 271 z "}}}
